SplineFontDB: 3.0
FontName: VoynichEVA
FullName: Voynich EVA
FamilyName: Voynich EVA
Weight: Regular
Copyright: Copyright (c) 2019 Rebecca Bettencourt\nCopyright (c) 2005 Glenn Claston\nCopyright (c) 1997 Gabriel Landini
UComments: "2019-6-17: Created with FontForge (http://fontforge.org)"
Version: 1.0
ItalicAngle: 0
UnderlinePosition: -204
UnderlineWidth: 102
Ascent: 1638
Descent: 410
InvalidEm: 0
LayerCount: 2
Layer: 0 0 "Back" 1
Layer: 1 0 "Fore" 0
XUID: [1021 743 -2085470654 1400523]
FSType: 0
OS2Version: 0
OS2_WeightWidthSlopeOnly: 0
OS2_UseTypoMetrics: 1
CreationTime: 1560802910
ModificationTime: 1561450373
PfmFamily: 17
TTFWeight: 400
TTFWidth: 5
LineGap: 0
VLineGap: 0
OS2TypoAscent: 1638
OS2TypoAOffset: 0
OS2TypoDescent: -410
OS2TypoDOffset: 0
OS2TypoLinegap: 0
OS2WinAscent: 2888
OS2WinAOffset: 0
OS2WinDescent: 1304
OS2WinDOffset: 0
HheadAscent: 2888
HheadAOffset: 0
HheadDescent: -1304
HheadDOffset: 0
OS2CapHeight: 1582
OS2XHeight: 870
OS2Vendor: 'KrKo'
MarkAttachClasses: 1
DEI: 91125
Encoding: UnicodeFull
UnicodeInterp: none
NameList: AGL For New Fonts
DisplaySize: -36
AntiAlias: 1
FitToEm: 1
WinInfo: 0 16 4
BeginPrivate: 0
EndPrivate
BeginChars: 1114112 1113

StartChar: dotlessi
Encoding: 305 305 0
Width: 1204
Flags: HW
LayerCount: 2
Fore
SplineSet
799 113 m 0
 860 113 926 137 971 137 c 0
 994 137 1005 126 1006 104 c 0
 1006 63 973 19 948 -4 c 128
 912 -38 845 -49 772 -49 c 0
 722 -49 652 -39 621 -23 c 0
 532 24 437 186 408 298 c 128
 380 408 305 517 217 559 c 0
 204 566 189 569 172 569 c 0
 116 569 57 518 18 492 c 1
 13 492 8 495 4 502 c 0
 -12 534 -20 565 -20 596 c 0
 -20 598 -20 600 -20 602 c 0
 -20 631 -12 657 4 680 c 1
 46 725 65 763 119 782 c 128
 150 793 186 799 225 799 c 0
 251 799 294 788 354 766 c 0
 403 748 451 734 498 723 c 1
 606 723 690 737 751 766 c 128
 812 795 868 852 920 938 c 0
 1000 1069 1040 1212 1040 1368 c 0
 1040 1370 1040 1372 1040 1374 c 0
 1040 1481 1004 1579 930 1668 c 128
 856 1757 772 1802 678 1802 c 0
 667 1802 638 1790 590 1765 c 0
 534 1735 494 1700 471 1661 c 0
 454 1632 446 1607 446 1585 c 0
 446 1570 449 1553 455 1536 c 1
 465 1497 l 1
 457 1460 l 1
 453 1448 440 1429 418 1403 c 2
 391 1372 l 1
 342 1401 310 1427 294 1451 c 128
 278 1475 270 1505 270 1540 c 2
 270 1585 l 1
 272 1636 l 1
 272 1722 318 1807 408 1891 c 128
 498 1975 584 2017 666 2017 c 0
 852 2017 994 1957 1092 1837 c 0
 1173 1736 1214 1609 1214 1456 c 0
 1214 1316 1193 1210 1161 1081 c 0
 1127 935 1088 842 1044 801 c 0
 923 688 823 612 745 575 c 0
 737 571 715 567 678 563 c 0
 566 551 505 544 494 541 c 1
 518 498 598 314 604 303 c 0
 635 243 663 199 686 170 c 0
 716 133 744 115 770 115 c 0
 783 114 793 113 799 113 c 0
EndSplineSet
EndChar

StartChar: exclam
Encoding: 33 33 2
Width: 569
Flags: HW
LayerCount: 2
Fore
SplineSet
231 365 m 1
 208 586 180 902 180 1067 c 2
 180 1520 l 2
 180 1581 228 1622 289 1622 c 0
 347 1622 391 1581 391 1520 c 2
 391 1059 l 2
 391 879 371 587 346 365 c 1
 231 365 l 1
293 33 m 0
 234 33 182 74 182 141 c 0
 182 202 225 252 293 252 c 0
 349 252 401 209 401 143 c 0
 401 83 363 33 293 33 c 0
EndSplineSet
EndChar

StartChar: quotedbl
Encoding: 34 34 3
Width: 819
Flags: HW
LayerCount: 2
Fore
SplineSet
-180 608 m 1
 -178 842 l 1
 1006 842 l 1
 999 608 l 1
 -180 608 l 1
315 1597 m 1
 276 1597 233 1737 233 1776 c 0
 233 1818 263 1867 324 1923 c 0
 372 1967 427 1989 489 1989 c 1
 516 1987 l 1
 699 1971 778 1860 778 1651 c 0
 778 1560 735 1444 649 1303 c 128
 556 1150 472 1061 368 1002 c 128
 360 998 346 992 326 985 c 1
 268 977 l 1
 238 977 209 985 197 997 c 1
 305 1097 390 1186 451 1264 c 0
 553 1394 604 1507 604 1603 c 0
 604 1706 567 1788 475 1788 c 1
 453 1786 l 2
 402 1782 377 1750 377 1690 c 0
 377 1633 356 1602 315 1597 c 1
EndSplineSet
EndChar

StartChar: numbersign
Encoding: 35 35 4
Width: 1138
Flags: HW
LayerCount: 2
Fore
SplineSet
193 207 m 0
 156 207 127 238 127 276 c 0
 127 281 128 290 131 303 c 0
 147 363 178 524 199 627 c 1
 29 627 l 1
 66 776 l 1
 227 776 l 1
 303 1139 l 1
 90 1139 l 1
 131 1288 l 1
 332 1288 l 1
 348 1411 352 1423 387 1593 c 0
 396 1639 426 1677 475 1677 c 0
 515 1677 547 1643 547 1602 c 0
 547 1594 546 1587 545 1581 c 0
 519 1456 507 1395 481 1288 c 1
 797 1288 l 1
 856 1589 l 2
 865 1633 901 1677 948 1677 c 0
 983 1677 1008 1643 1008 1606 c 0
 1008 1595 1007 1587 1006 1581 c 2
 948 1288 l 1
 1120 1288 l 1
 1083 1139 l 1
 918 1139 l 1
 844 776 l 1
 1059 776 l 1
 1014 627 l 1
 813 627 l 1
 743 291 l 1
 735 243 702 199 653 199 c 0
 616 199 598 220 598 262 c 0
 598 271 599 280 600 287 c 0
 620 387 639 509 662 627 c 1
 348 627 l 1
 279 295 l 1
 271 250 240 207 193 207 c 0
387 788 m 1
 700 788 l 1
 776 1151 l 1
 461 1151 l 1
 387 788 l 1
EndSplineSet
EndChar

StartChar: dollar
Encoding: 36 36 5
Width: 827
Flags: HW
LayerCount: 2
Fore
SplineSet
125 506 m 1
 233 485 l 1
 241 402 242 389 281 344 c 0
 320 299 365 276 416 276 c 1
 416 801 l 1
 334 825 l 1
 268 851 214 904 184 967 c 1
 170 1008 150 1081 150 1135 c 0
 150 1251 187 1342 242 1409 c 0
 282 1455 336 1466 416 1479 c 1
 416 1571 l 2
 416 1606 430 1624 457 1624 c 0
 482 1624 494 1607 494 1573 c 2
 496 1477 l 1
 571 1469 604 1460 643 1415 c 0
 699 1349 734 1291 745 1184 c 1
 623 1198 l 1
 618 1258 615 1270 586 1302 c 128
 560 1331 537 1342 496 1356 c 1
 496 918 l 1
 558 898 608 859 650 824 c 128
 718 768 736 701 752 586 c 128
 758 546 760 517 760 498 c 0
 759 487 758 479 758 473 c 0
 745 373 726 328 680 251 c 128
 639 182 598 158 496 158 c 1
 500 35 l 1
 500 -7 486 -28 459 -29 c 0
 429 -29 414 -6 414 41 c 2
 416 158 l 1
 363 164 314 169 276 192 c 128
 208 233 156 323 135 411 c 128
 128 439 125 471 125 506 c 1
416 1352 m 1
 319 1339 268 1257 268 1147 c 0
 268 1062 297 991 358 961 c 0
 367 957 387 950 416 940 c 1
 416 1352 l 1
496 274 m 1
 556 283 572 291 600 336 c 128
 626 378 651 450 651 516 c 256
 651 620 628 680 575 731 c 0
 552 756 525 774 496 786 c 1
 496 274 l 1
EndSplineSet
EndChar

StartChar: percent
Encoding: 37 37 6
Width: 1677
Flags: HW
LayerCount: 2
Fore
SplineSet
76 1384 m 0
 76 1435 82 1475 94 1505 c 128
 106 1535 126 1571 156 1614 c 0
 207 1687 282 1724 379 1724 c 2
 383 1724 l 2
 476 1724 552 1691 612 1626 c 0
 674 1556 702 1502 702 1374 c 0
 702 1315 694 1271 680 1240 c 128
 666 1209 641 1174 604 1135 c 0
 541 1066 466 1031 379 1030 c 0
 294 1030 221 1065 158 1135 c 0
 97 1204 76 1255 76 1384 c 0
233 1366 m 0
 233 1322 235 1295 240 1286 c 1
 252 1273 263 1260 272 1247 c 0
 301 1209 338 1190 383 1190 c 256
 428 1190 466 1209 496 1247 c 0
 508 1260 520 1274 532 1288 c 1
 541 1305 546 1335 547 1380 c 0
 547 1421 542 1449 532 1466 c 1
 517 1484 505 1499 496 1511 c 0
 466 1550 428 1569 383 1569 c 0
 342 1569 307 1550 276 1511 c 0
 235 1458 234 1458 233 1366 c 0
367 -131 m 0
 326 -131 303 -100 303 -57 c 0
 304 -37 310 -13 322 14 c 0
 564 551 809 1087 1051 1626 c 0
 1077 1680 1115 1739 1180 1739 c 0
 1227 1739 1251 1715 1251 1666 c 0
 1251 1650 1248 1635 1239 1614 c 0
 1156 1437 851 747 752 532 c 0
 670 353 580 164 483 -35 c 0
 450 -99 412 -131 367 -131 c 0
979 377 m 0
 979 496 1004 529 1059 606 c 0
 1111 680 1187 717 1286 717 c 0
 1379 717 1455 684 1516 618 c 0
 1578 548 1606 495 1606 367 c 0
 1606 308 1598 263 1584 232 c 128
 1570 201 1544 166 1507 127 c 0
 1444 58 1369 23 1282 23 c 0
 1197 23 1124 58 1061 127 c 0
 1000 196 979 248 979 377 c 0
1137 358 m 0
 1137 314 1139 288 1143 279 c 1
 1155 266 1166 253 1176 240 c 0
 1205 202 1241 183 1286 182 c 0
 1331 182 1369 201 1399 240 c 0
 1411 253 1423 267 1436 281 c 1
 1445 298 1450 328 1450 373 c 0
 1450 414 1445 442 1436 459 c 1
 1421 477 1408 492 1399 504 c 0
 1369 542 1331 561 1286 561 c 0
 1245 561 1210 542 1180 504 c 0
 1139 451 1137 452 1137 358 c 0
EndSplineSet
EndChar

StartChar: quotesingle
Encoding: 39 39 7
Width: 393
Flags: HW
LayerCount: 2
Fore
SplineSet
299 1544 m 0
 299 1678 253 1772 131 1774 c 1
 106 1772 l 1
 45 1765 14 1725 14 1651 c 0
 14 1584 -12 1536 -65 1536 c 1
 -139 1636 l 1
 -158 1693 -168 1734 -168 1759 c 0
 -168 1811 -130 1872 -55 1942 c 0
 1 1994 69 2021 146 2021 c 2
 150 2021 l 1
 186 2019 l 1
 421 1995 514 1863 514 1602 c 0
 514 1491 461 1355 354 1194 c 128
 247 1033 138 921 29 858 c 0
 -10 836 -19 833 -68 817 c 1
 -105 810 -136 807 -162 807 c 2
 -186 807 l 2
 -195 807 -207 808 -221 811 c 2
 -264 823 l 1
 -45 1016 l 1
 58 1110 136 1195 190 1270 c 0
 263 1370 299 1461 299 1544 c 0
EndSplineSet
EndChar

StartChar: parenleft
Encoding: 40 40 8
Width: 509
Flags: HW
LayerCount: 2
Fore
SplineSet
14 662 m 0
 14 1069 147 1404 367 1604 c 0
 428 1661 471 1692 494 1696 c 1
 468 1664 447 1627 424 1593 c 1
 352 1446 l 1
 269 1231 217 951 217 662 c 0
 217 417 235 240 289 49 c 1
 322 -84 367 -196 426 -289 c 0
 465 -353 489 -387 500 -391 c 1
 488 -391 446 -356 375 -285 c 0
 280 -184 205 -75 139 59 c 1
 56 245 14 446 14 662 c 0
EndSplineSet
EndChar

StartChar: parenright
Encoding: 41 41 9
Width: 509
Flags: HW
LayerCount: 2
Fore
SplineSet
-16 -391 m 1
 174 -169 268 228 268 649 c 2
 268 662 l 2
 268 1040 200 1358 66 1591 c 0
 28 1656 3 1691 -8 1696 c 1
 9 1696 50 1665 115 1604 c 0
 330 1402 471 1067 471 662 c 0
 471 438 429 237 344 59 c 1
 289 -68 212 -182 111 -285 c 0
 42 -354 -1 -390 -16 -391 c 1
EndSplineSet
EndChar

StartChar: asterisk
Encoding: 42 42 10
Width: 1798
Flags: HW
LayerCount: 2
Fore
SplineSet
-10 389 m 0
 7 389 72 379 90 379 c 0
 112 379 136 382 162 387 c 1
 124 370 93 342 70 303 c 0
 56 276 2 258 -39 258 c 0
 -64 258 -78 264 -82 276 c 0
 -90 299 -94 317 -94 330 c 0
 -94 348 -81 363 -55 375 c 0
 -29 384 -14 389 -10 389 c 0
-68 1530 m 1
 -64 1548 -45 1562 -10 1571 c 1
 15 1571 38 1543 59 1487 c 0
 76 1439 88 1412 113 1376 c 1
 94 1389 55 1410 -2 1438 c 1
 -46 1454 -68 1477 -68 1530 c 1
784 236 m 0
 784 214 787 205 787 189 c 0
 787 109 710 49 631 49 c 0
 588 49 565 61 544 102 c 128
 529 131 522 162 522 195 c 0
 522 254 548 291 600 302 c 128
 654 313 709 376 709 440 c 0
 709 557 567 582 453 582 c 0
 386 582 341 569 291 550 c 128
 265 540 240 535 217 535 c 0
 144 535 92 591 92 662 c 0
 92 726 137 771 204 771 c 0
 219 771 242 767 272 760 c 0
 379 734 451 721 489 721 c 0
 597 721 663 757 702 834 c 0
 703 836 703 837 703 840 c 0
 703 860 676 904 621 971 c 0
 552 1056 517 1124 516 1176 c 0
 516 1249 564 1293 618 1326 c 128
 654 1347 685 1358 711 1358 c 0
 759 1358 794 1314 815 1227 c 0
 828 1168 843 1110 858 1053 c 1
 875 1024 891 996 907 967 c 0
 924 942 942 930 963 930 c 0
 976 930 993 935 1012 944 c 0
 1101 989 1163 1063 1200 1164 c 128
 1237 1265 1273 1367 1309 1470 c 1
 1340 1482 1370 1488 1397 1489 c 0
 1488 1489 1559 1429 1559 1339 c 0
 1559 1312 1552 1284 1538 1257 c 1
 1435 1160 1364 1085 1325 1031 c 128
 1286 977 1266 934 1266 901 c 0
 1266 868 1287 845 1307 827 c 0
 1418 727 1476 675 1481 670 c 0
 1507 641 1523 617 1528 596 c 1
 1475 609 1419 620 1366 621 c 0
 1306 621 1232 606 1224 562 c 128
 1221 544 1219 532 1219 526 c 130
 1219 514 l 2
 1219 495 1235 468 1266 434 c 128
 1297 400 1313 356 1313 303 c 0
 1313 274 1297 242 1264 206 c 128
 1231 170 1195 152 1157 152 c 0
 1142 152 1126 156 1110 164 c 0
 1054 194 1024 235 1020 288 c 128
 1016 341 983 367 920 367 c 0
 830 367 785 323 784 236 c 0
98 1130 m 0
 98 1157 131 1184 160 1186 c 0
 199 1186 246 1161 301 1112 c 128
 339 1078 374 1040 374 1016 c 0
 374 1002 362 992 330 991 c 0
 289 991 241 1005 184 1034 c 128
 127 1063 98 1095 98 1130 c 0
299 137 m 0
 299 172 353 191 369 193 c 1
 392 193 404 184 403 166 c 0
 403 148 387 98 380 78 c 128
 375 64 367 57 354 57 c 0
 346 57 334 61 319 70 c 1
 308 89 299 118 299 137 c 0
340 1565 m 1
 340 1594 l 130
 340 1608 352 1617 377 1622 c 0
 388 1622 403 1611 424 1589 c 0
 458 1546 481 1465 502 1405 c 1
 443 1457 400 1497 373 1524 c 0
 352 1545 341 1558 340 1565 c 1
647 -145 m 0
 647 -202 627 -256 575 -256 c 0
 550 -256 535 -255 530 -252 c 0
 512 -243 498 -217 487 -174 c 1
 487 -151 504 -123 539 -90 c 0
 561 -69 580 -59 596 -59 c 0
 632 -59 647 -101 647 -145 c 0
662 1819 m 0
 744 1819 754 1775 754 1677 c 1
 755 1673 756 1669 756 1664 c 0
 756 1650 750 1633 739 1612 c 0
 698 1535 678 1487 678 1468 c 0
 678 1459 679 1451 680 1446 c 1
 657 1517 627 1607 586 1640 c 0
 577 1648 572 1665 571 1692 c 0
 571 1755 599 1819 662 1819 c 0
858 -139 m 0
 829 -139 793 -95 793 -63 c 0
 793 -34 837 2 868 2 c 0
 896 2 932 -44 932 -74 c 0
 932 -100 885 -139 858 -139 c 0
1430 -92 m 0
 1430 -160 1383 -217 1309 -217 c 0
 1268 -217 1231 -198 1196 -160 c 0
 1174 -134 1163 -101 1163 -61 c 0
 1163 16 1207 78 1284 78 c 0
 1370 78 1430 -7 1430 -92 c 0
1513 1595 m 0
 1456 1598 1409 1659 1409 1718 c 0
 1409 1786 1458 1816 1526 1817 c 0
 1589 1817 1632 1786 1632 1724 c 0
 1632 1660 1577 1595 1513 1595 c 0
1526 72 m 0
 1482 72 1419 129 1419 174 c 0
 1419 218 1458 231 1505 231 c 0
 1558 231 1588 198 1595 147 c 1
 1595 106 1566 72 1526 72 c 0
1757 569 m 0
 1813 569 1845 560 1845 504 c 0
 1845 456 1815 370 1769 370 c 0
 1764 370 1758 371 1753 373 c 0
 1722 385 1694 413 1669 457 c 0
 1639 509 1615 548 1597 575 c 1
 1612 567 1637 565 1663 565 c 0
 1680 565 1741 569 1757 569 c 0
EndSplineSet
EndChar

StartChar: plus
Encoding: 43 43 11
Width: 1048
Flags: HW
LayerCount: 2
Fore
SplineSet
664 842 m 1
 1180 842 l 1
 1184 608 l 1
 532 608 l 1
 473 518 402 417 315 367 c 1
 246 332 l 1
 207 322 l 1
 199 322 194 325 193 330 c 1
 195 348 l 1
 227 376 254 413 281 451 c 1
 379 608 l 1
 -180 608 l 1
 -178 842 l 1
 500 842 l 1
 578 1010 684 1286 684 1503 c 0
 684 1626 627 1726 532 1764 c 128
 506 1774 480 1780 451 1780 c 1
 392 1773 363 1730 362 1651 c 0
 362 1569 338 1528 291 1528 c 2
 287 1528 l 1
 213 1628 l 1
 194 1685 184 1726 184 1751 c 0
 184 1803 222 1864 297 1933 c 0
 354 1986 423 2013 502 2013 c 1
 539 2011 l 1
 773 1987 866 1856 866 1597 c 0
 866 1315 769 1054 664 842 c 1
EndSplineSet
EndChar

StartChar: comma
Encoding: 44 44 12
Width: 1024
Flags: HW
LayerCount: 2
Fore
SplineSet
467 2 m 0
 406 2 356 54 356 113 c 0
 356 167 438 227 494 227 c 0
 593 227 651 147 651 45 c 0
 651 36 650 23 647 6 c 0
 622 -103 598 -170 575 -193 c 0
 545 -224 499 -240 438 -240 c 1
 511 -206 541 -72 553 61 c 1
 510 16 l 2
 502 7 488 2 467 2 c 0
EndSplineSet
EndChar

StartChar: hyphen
Encoding: 45 45 13
Width: 1720
Flags: HW
LayerCount: 2
Fore
SplineSet
334 608 m 1
 334 842 l 1
 1413 842 l 1
 1413 608 l 1
 334 608 l 1
EndSplineSet
EndChar

StartChar: period
Encoding: 46 46 14
Width: 1945
Flags: HW
LayerCount: 2
Fore
SplineSet
348 215 m 0
 415 215 459 171 459 106 c 0
 459 72 447 47 422 31 c 1
 407 11 379 -2 344 -2 c 0
 311 -2 284 9 262 31 c 1
 246 57 238 81 238 105 c 0
 238 139 248 166 270 190 c 1
 293 207 319 215 348 215 c 0
EndSplineSet
EndChar

StartChar: slash
Encoding: 47 47 15
Width: 671
Flags: HW
LayerCount: 2
Fore
SplineSet
45 0 m 1
 444 1194 l 1
 639 1194 l 1
 240 0 l 1
 45 0 l 1
EndSplineSet
EndChar

StartChar: zero
Encoding: 48 48 16
Width: 1576
Flags: HW
LayerCount: 2
Fore
SplineSet
244 754 m 0
 244 831 268 912 315 999 c 0
 368 1096 455 1206 575 1331 c 0
 770 1534 906 1635 982 1635 c 0
 986 1635 989 1635 993 1634 c 0
 1091 1615 1172 1557 1235 1462 c 0
 1322 1329 1386 1116 1427 821 c 0
 1436 756 1438 751 1438 698 c 0
 1438 379 1246 187 995 102 c 0
 942 85 895 76 854 76 c 0
 852 76 850 76 848 76 c 0
 767 76 690 104 616 160 c 128
 542 216 462 307 375 434 c 0
 319 516 284 579 268 622 c 128
 252 665 244 709 244 754 c 0
487 1065 m 1
 487 1014 499 960 522 903 c 128
 545 846 595 765 670 662 c 0
 705 611 767 540 854 449 c 0
 968 330 1046 271 1089 271 c 0
 1092 271 1095 271 1098 272 c 0
 1181 295 1223 386 1223 543 c 0
 1223 603 1215 666 1200 733 c 0
 1197 745 1163 861 1098 1081 c 0
 1056 1224 1033 1298 1030 1303 c 0
 995 1366 924 1404 819 1419 c 1
 767 1419 700 1373 618 1280 c 128
 536 1187 492 1116 487 1065 c 1
EndSplineSet
EndChar

StartChar: one
Encoding: 49 49 17
Width: 712
Flags: HW
LayerCount: 2
Fore
SplineSet
590 1833 m 0
 624 1833 629 1777 629 1729 c 0
 629 1643 624 1529 614 1387 c 128
 603 1220 556 763 532 559 c 0
 523 466 518 399 518 356 c 0
 518 226 524 151 557 59 c 0
 565 33 580 11 602 -8 c 1
 504 -35 430 -49 379 -49 c 256
 328 -49 296 -35 281 -8 c 1
 276 70 l 1
 276 165 284 275 299 399 c 1
 299 486 324 666 334 743 c 0
 359 966 384 1189 410 1411 c 1
 410 1439 381 1487 336 1487 c 0
 321 1487 307 1481 295 1470 c 1
 368 1573 417 1643 444 1681 c 0
 517 1782 565 1833 590 1833 c 0
EndSplineSet
EndChar

StartChar: two
Encoding: 50 50 18
Width: 1617
Flags: HW
LayerCount: 2
Fore
SplineSet
793 6 m 1
 673 6 561 22 451 35 c 1
 401 35 383 27 339 14 c 128
 315 7 285 -14 250 -51 c 2
 223 -80 l 1
 215 -86 l 1
 434 226 666 525 897 825 c 0
 980 933 1022 1011 1022 1059 c 0
 1022 1209 959 1244 827 1278 c 0
 770 1290 721 1296 680 1296 c 0
 641 1296 593 1290 537 1278 c 0
 512 1273 465 1254 395 1223 c 0
 238 1152 154 1115 143 1112 c 1
 184 1188 l 1
 253 1266 327 1327 406 1372 c 0
 445 1395 526 1424 649 1458 c 0
 796 1499 915 1519 1004 1520 c 1
 1057 1520 l 2
 1131 1520 1184 1511 1217 1493 c 0
 1269 1464 1300 1408 1311 1323 c 1
 1289 1199 1260 1103 1225 1036 c 0
 1174 941 1084 836 954 723 c 0
 841 625 748 504 631 362 c 0
 583 303 559 263 559 240 c 1
 636 279 662 291 774 291 c 0
 853 291 978 283 1147 268 c 1
 1296 260 l 1
 1716 258 l 2
 1853 258 1879 266 1964 291 c 1
 1928 240 1859 143 1819 143 c 0
 1793 143 1716 132 1589 111 c 0
 1574 109 1084 34 983 20 c 1
 793 6 l 1
EndSplineSet
EndChar

StartChar: three
Encoding: 51 51 19
Width: 1341
Flags: HW
LayerCount: 2
Fore
SplineSet
162 -674 m 0
 162 -661 182 -654 223 -653 c 0
 260 -653 348 -607 489 -516 c 0
 716 -367 870 -247 952 -156 c 0
 1017 -81 1085 30 1085 160 c 0
 1085 267 1049 327 989 387 c 0
 946 435 857 469 766 469 c 0
 681 469 612 446 543 426 c 1
 544 426 588 486 674 606 c 0
 781 755 863 871 920 954 c 0
 1009 1083 1054 1156 1055 1174 c 0
 1055 1204 1033 1243 989 1292 c 0
 941 1347 888 1398 829 1446 c 0
 754 1507 697 1538 659 1538 c 0
 606 1538 567 1528 542 1510 c 128
 496 1476 389 1319 340 1239 c 0
 303 1182 280 1146 270 1130 c 128
 260 1114 250 1106 238 1106 c 0
 230 1106 227 1112 229 1124 c 0
 229 1138 293 1225 293 1225 c 1
 344 1330 472 1498 551 1565 c 0
 645 1643 730 1683 806 1683 c 0
 807 1683 808 1683 809 1683 c 0
 883 1683 963 1643 1050 1562 c 128
 1137 1481 1180 1401 1180 1323 c 0
 1180 1286 1174 1252 1163 1219 c 0
 1141 1152 1097 1075 1030 987 c 0
 975 914 810 715 707 592 c 1
 748 603 798 608 858 608 c 0
 941 608 1008 598 1057 578 c 1
 1192 513 1260 406 1260 256 c 0
 1260 147 1218 44 1133 -53 c 0
 992 -207 640 -449 436 -578 c 128
 309 -658 232 -700 205 -705 c 1
 180 -705 166 -695 162 -674 c 0
EndSplineSet
EndChar

StartChar: four
Encoding: 52 52 20
Width: 1447
Flags: HW
LayerCount: 2
Fore
SplineSet
348 160 m 1
 256 160 201 179 201 263 c 0
 201 337 235 438 307 580 c 0
 328 625 357 675 394 728 c 128
 431 781 488 854 565 948 c 0
 672 1075 749 1168 879 1251 c 0
 965 1306 1030 1333 1073 1333 c 1
 1111 1329 1124 1314 1139 1266 c 1
 1150 1213 1153 1156 1153 1083 c 2
 1153 786 l 1
 1157 584 l 1
 1161 416 l 1
 1232 425 1599 491 1630 508 c 1
 1669 522 l 1
 1718 532 l 1
 1718 500 l 1
 1679 452 1638 423 1597 414 c 2
 1163 313 l 1
 1188 -246 l 1
 1196 -283 1282 -294 1319 -317 c 1
 1319 -377 1237 -427 1176 -448 c 128
 1136 -462 1095 -469 1053 -469 c 0
 997 -469 969 -457 969 -432 c 2
 958 260 l 1
 817 229 l 2
 723 208 635 192 553 180 c 1
 348 160 l 1
315 348 m 0
 315 330 319 318 326 313 c 0
 347 301 387 295 446 295 c 0
 597 295 855 345 956 375 c 1
 965 578 l 1
 972 761 978 943 985 1126 c 1
 985 1153 975 1166 956 1166 c 0
 953 1166 950 1166 946 1165 c 0
 808 1123 693 1006 596 887 c 1
 485 741 l 1
 414 645 352 536 322 400 c 128
 318 380 315 363 315 348 c 0
EndSplineSet
EndChar

StartChar: five
Encoding: 53 53 21
Width: 1191
Flags: HW
LayerCount: 2
Fore
SplineSet
123 -778 m 1
 99 -778 72 -742 70 -717 c 0
 70 -696 88 -683 123 -676 c 0
 132 -676 183 -684 195 -684 c 0
 206 -684 213 -683 217 -680 c 2
 266 -649 l 1
 352 -589 428 -531 496 -476 c 128
 615 -379 661 -327 712 -208 c 128
 730 -165 739 -120 739 -74 c 0
 739 -29 728 16 707 59 c 1
 685 95 367 389 313 440 c 0
 288 463 274 478 270 483 c 0
 258 500 252 517 252 535 c 0
 252 552 259 575 274 604 c 0
 333 713 415 840 522 983 c 0
 585 1068 632 1126 664 1157 c 0
 717 1210 794 1264 893 1317 c 0
 902 1321 918 1324 940 1327 c 1
 981 1327 l 2
 996 1327 1009 1326 1020 1323 c 0
 1045 1323 1153 1266 1171 1257 c 1
 1216 1249 1247 1241 1262 1233 c 0
 1273 1229 1280 1219 1284 1204 c 1
 1284 1178 1253 1162 1223 1157 c 1
 1191 1157 1180 1163 1153 1182 c 0
 1109 1221 1041 1266 989 1266 c 0
 925 1266 851 1242 809 1217 c 0
 752 1182 686 1113 612 1011 c 128
 543 916 481 819 481 758 c 0
 481 722 596 613 827 432 c 0
 918 361 973 288 991 213 c 1
 991 98 953 -44 907 -117 c 0
 855 -207 778 -299 676 -393 c 0
 561 -500 417 -606 244 -711 c 0
 184 -748 144 -770 123 -778 c 1
EndSplineSet
EndChar

StartChar: six
Encoding: 54 54 22
Width: 1257
Flags: HW
LayerCount: 2
Fore
SplineSet
170 395 m 0
 170 686 233 923 328 1161 c 0
 481 1539 708 1804 1036 2030 c 0
 1125 2091 1218 2149 1317 2204 c 0
 1398 2249 1440 2271 1444 2271 c 0
 1467 2282 1470 2288 1487 2288 c 1
 1487 2270 1247 2108 1227 2095 c 0
 1088 2013 975 1900 862 1767 c 0
 781 1672 712 1573 655 1470 c 1
 566 1296 520 1113 469 868 c 1
 631 975 l 1
 683 1003 754 1030 817 1040 c 0
 824 1041 832 1041 839 1041 c 0
 899 1041 958 1016 1016 965 c 0
 1135 860 1180 689 1182 461 c 0
 1182 345 1069 205 844 41 c 0
 649 -101 511 -172 432 -172 c 0
 425 -172 417 -171 406 -168 c 0
 275 -145 216 1 188 155 c 128
 176 222 170 302 170 395 c 0
442 631 m 0
 442 494 489 205 535 123 c 0
 573 54 617 19 668 18 c 0
 731 18 789 70 842 173 c 128
 895 276 922 383 922 492 c 0
 922 566 908 624 879 666 c 0
 832 730 801 772 784 791 c 0
 729 855 678 887 631 887 c 0
 589 887 542 864 489 817 c 0
 455 787 443 712 442 631 c 0
EndSplineSet
EndChar

StartChar: seven
Encoding: 55 55 23
Width: 1650
Flags: HW
LayerCount: 2
Fore
SplineSet
440 1595 m 0
 424 1595 347 1571 330 1571 c 0
 308 1571 292 1579 283 1595 c 1
 277 1612 265 1809 262 1830 c 128
 259 1846 257 1865 254 1884 c 0
 254 1899 261 1908 276 1909 c 1
 336 1892 508 1861 594 1843 c 0
 621 1839 711 1827 743 1827 c 2
 1391 1827 l 2
 1450 1827 1485 1830 1497 1837 c 1
 1587 1845 1636 1857 1733 1874 c 1
 1772 1874 l 1
 1793 1871 1806 1861 1810 1843 c 1
 1810 1826 1792 1787 1755 1726 c 0
 1535 1351 1301 972 1049 637 c 0
 962 520 895 415 848 324 c 0
 831 293 805 232 770 143 c 0
 745 82 722 36 700 5 c 128
 678 -26 656 -41 633 -41 c 0
 607 -41 517 -53 467 -61 c 1
 427 -61 383 -53 383 -15 c 0
 383 -2 423 67 502 190 c 0
 612 362 706 481 848 664 c 0
 897 727 948 788 999 848 c 1
 1139 1004 l 1
 1227 1112 1422 1363 1487 1475 c 1
 1589 1638 l 1
 1309 1575 l 1
 1297 1571 1230 1571 1212 1571 c 0
 1042 1571 533 1597 467 1597 c 0
 455 1596 446 1595 440 1595 c 0
EndSplineSet
EndChar

StartChar: eight
Encoding: 56 56 24
Width: 1404
Flags: HW
LayerCount: 2
Fore
SplineSet
166 336 m 0
 166 453 249 575 416 700 c 1
 439 723 497 752 530 770 c 2
 692 860 l 1
 469 1223 l 1
 398 1344 363 1433 362 1489 c 0
 362 1498 363 1505 365 1509 c 0
 373 1560 434 1612 549 1665 c 0
 613 1695 701 1725 813 1755 c 0
 942 1789 1044 1806 1120 1806 c 0
 1169 1806 1211 1797 1245 1780 c 0
 1304 1753 1333 1645 1333 1456 c 0
 1333 1322 1302 1246 1234 1151 c 128
 1192 1092 1147 1045 1098 1008 c 1
 940 895 l 1
 969 839 1003 778 1044 711 c 0
 1092 633 1121 585 1130 567 c 0
 1233 384 1284 272 1284 229 c 0
 1284 195 1274 167 1255 145 c 0
 1226 112 1168 72 1079 23 c 0
 950 -43 864 -78 694 -78 c 0
 535 -78 454 -55 352 14 c 0
 228 95 166 202 166 336 c 0
455 543 m 0
 455 530 459 484 459 469 c 0
 459 269 499 165 604 72 c 0
 654 24 743 -35 831 -35 c 0
 914 -35 968 17 994 76 c 128
 1002 95 1006 116 1006 141 c 0
 1006 216 996 282 975 338 c 1
 949 391 931 429 922 451 c 0
 884 544 822 662 737 807 c 1
 639 762 525 679 477 606 c 128
 462 584 455 563 455 543 c 0
602 1456 m 1
 602 1399 642 1309 721 1188 c 1
 889 942 l 1
 982 990 1082 1079 1141 1164 c 128
 1193 1239 1225 1312 1227 1432 c 0
 1227 1485 1219 1549 1212 1585 c 0
 1195 1670 1140 1712 1047 1712 c 0
 925 1712 896 1697 794 1652 c 128
 701 1611 615 1560 602 1456 c 1
EndSplineSet
EndChar

StartChar: nine
Encoding: 57 57 25
Width: 1351
Flags: HW
LayerCount: 2
Fore
SplineSet
143 -987 m 1
 201 -907 l 1
 421 -616 631 -329 782 -10 c 0
 828 83 911 270 950 371 c 2
 1032 584 l 1
 995 557 931 518 840 469 c 1
 784 443 739 424 706 412 c 128
 673 400 644 393 618 393 c 0
 599 393 580 397 561 406 c 0
 437 474 359 532 326 580 c 0
 274 658 248 790 248 975 c 0
 248 1043 303 1132 412 1241 c 0
 509 1336 622 1423 750 1500 c 128
 866 1570 952 1605 1009 1605 c 0
 1015 1605 1021 1605 1026 1604 c 0
 1089 1592 1143 1522 1188 1393 c 0
 1221 1300 1247 1186 1268 1049 c 0
 1273 1014 1278 923 1282 778 c 128
 1286 633 1290 558 1294 551 c 1
 1283 518 1273 486 1264 453 c 0
 1251 415 1231 375 1206 334 c 0
 1119 189 1011 30 883 -143 c 0
 854 -181 768 -294 623 -481 c 0
 545 -585 447 -698 330 -819 c 0
 222 -931 160 -987 143 -987 c 1
489 997 m 1
 493 945 514 881 553 805 c 0
 602 705 662 634 731 592 c 0
 750 583 775 578 805 578 c 0
 877 578 922 603 969 641 c 0
 1010 674 1030 713 1030 760 c 0
 1030 849 1000 970 940 1122 c 128
 880 1274 821 1370 764 1411 c 0
 756 1416 742 1419 721 1419 c 0
 646 1419 603 1394 557 1350 c 0
 515 1311 500 1123 489 997 c 1
EndSplineSet
EndChar

StartChar: colon
Encoding: 58 58 26
Width: 569
Flags: HW
LayerCount: 2
Fore
SplineSet
276 1096 m 0
 342 1096 387 1052 387 987 c 0
 387 953 375 928 350 911 c 1
 335 891 307 879 272 879 c 0
 239 879 212 890 190 911 c 1
 174 937 166 961 166 985 c 0
 166 1019 176 1047 199 1071 c 1
 222 1088 248 1096 276 1096 c 0
297 215 m 0
 363 215 408 171 408 106 c 0
 408 72 396 47 371 31 c 1
 356 11 327 -2 293 -2 c 0
 260 -2 233 9 211 31 c 1
 194 58 186 84 186 109 c 0
 186 140 197 167 219 190 c 1
 242 207 268 215 297 215 c 0
EndSplineSet
EndChar

StartChar: semicolon
Encoding: 59 59 27
Width: 569
Flags: HW
LayerCount: 2
Fore
SplineSet
283 12 m 0
 222 12 172 64 172 123 c 0
 172 176 253 238 309 238 c 0
 407 238 467 157 467 55 c 0
 467 46 466 33 463 16 c 0
 438 -93 414 -159 391 -182 c 0
 361 -213 315 -229 254 -229 c 1
 328 -194 355 -60 369 72 c 1
 326 27 l 2
 318 18 304 13 283 12 c 0
287 1065 m 0
 353 1065 397 1022 397 956 c 0
 397 922 385 897 360 881 c 1
 345 861 317 848 283 848 c 0
 250 848 223 859 201 881 c 1
 184 908 176 934 176 958 c 0
 176 989 187 1017 209 1040 c 1
 232 1057 258 1065 287 1065 c 0
EndSplineSet
EndChar

StartChar: less
Encoding: 60 60 28
Width: 935
Flags: HW
LayerCount: 2
Fore
SplineSet
72 649 m 1
 72 817 l 1
 844 1450 l 1
 844 1176 l 1
 272 731 l 1
 844 293 l 1
 844 27 l 1
 72 649 l 1
EndSplineSet
EndChar

StartChar: equal
Encoding: 61 61 29
Width: 1474
Flags: HW
LayerCount: 2
Fore
SplineSet
184 326 m 1
 184 526 l 1
 1313 526 l 1
 1313 326 l 1
 184 326 l 1
184 932 m 1
 184 1135 l 1
 1313 1135 l 1
 1313 932 l 1
 184 932 l 1
EndSplineSet
EndChar

StartChar: greater
Encoding: 62 62 30
Width: 935
Flags: HW
LayerCount: 2
Fore
SplineSet
109 27 m 1
 109 293 l 1
 680 731 l 1
 109 1176 l 1
 109 1450 l 1
 881 817 l 1
 881 641 l 1
 109 27 l 1
EndSplineSet
EndChar

StartChar: question
Encoding: 63 63 31
Width: 1138
Flags: HW
LayerCount: 2
Fore
SplineSet
127 1182 m 2
 127 1208 l 130
 127 1244 158 1308 166 1327 c 0
 220 1449 291 1508 409 1555 c 128
 466 1578 527 1589 594 1589 c 0
 746 1589 842 1533 928 1456 c 0
 1014 1378 1057 1284 1057 1174 c 0
 1057 1110 1041 1050 1010 994 c 128
 979 938 921 874 836 799 c 0
 779 747 741 709 722 685 c 128
 681 633 675 602 670 502 c 128
 667 451 666 404 666 360 c 1
 492 360 l 1
 492 498 l 2
 492 567 502 628 522 680 c 1
 533 717 556 756 592 797 c 0
 614 823 656 863 719 918 c 128
 782 973 822 1018 842 1052 c 128
 862 1086 872 1122 872 1161 c 0
 872 1230 844 1292 790 1345 c 128
 736 1398 669 1425 588 1425 c 256
 445 1425 369 1346 322 1242 c 128
 302 1197 281 1152 260 1108 c 1
 235 1093 213 1085 193 1085 c 0
 149 1085 127 1117 127 1182 c 2
573 -31 m 0
 505 -31 451 27 451 92 c 0
 451 158 506 215 573 215 c 0
 641 215 696 157 696 92 c 0
 696 24 638 -31 573 -31 c 0
EndSplineSet
EndChar

StartChar: A
Encoding: 65 65 32
Width: 1155
Flags: HW
LayerCount: 2
Fore
SplineSet
111 360 m 0
 111 499 170 619 287 719 c 0
 381 798 459 838 520 838 c 2
 1567 842 l 1
 1569 608 l 1
 694 608 l 1
 764 420 892 312 1075 221 c 1
 1137 143 l 1
 1086 121 1049 95 995 59 c 0
 950 30 918 15 899 12 c 1
 864 12 808 37 731 86 c 1
 631 160 l 1
 489 86 l 1
 391 33 328 6 299 6 c 0
 258 6 215 57 170 160 c 0
 131 250 111 317 111 360 c 0
289 516 m 1
 289 449 311 387 354 330 c 0
 391 281 419 256 438 256 c 1
 471 254 l 1
 534 254 582 273 610 315 c 1
 602 370 572 437 520 518 c 1
 472 599 430 651 395 676 c 0
 392 677 389 678 386 678 c 0
 365 678 342 654 319 606 c 1
 289 516 l 1
EndSplineSet
EndChar

StartChar: B
Encoding: 66 66 33
Width: 1185
Flags: HW
LayerCount: 2
Fore
SplineSet
627 1683 m 0
 1016 1683 1222 1393 1223 995 c 0
 1221 739 1170 572 1055 393 c 0
 962 248 846 140 707 68 c 0
 594 9 493 -20 406 -20 c 0
 299 -20 215 19 152 98 c 0
 97 169 70 249 70 338 c 1
 72 387 l 1
 75 406 99 446 144 505 c 128
 189 564 239 614 295 653 c 1
 337 691 375 716 410 729 c 1
 559 762 l 1
 645 770 l 1
 684 770 708 768 711 739 c 1
 708 719 705 719 696 709 c 1
 645 692 581 654 504 594 c 1
 397 508 l 1
 376 476 377 476 356 432 c 1
 348 409 344 388 344 369 c 0
 344 287 429 250 514 250 c 0
 563 250 603 259 633 276 c 0
 758 344 858 460 932 623 c 0
 993 758 1024 898 1024 1042 c 0
 1024 1119 1014 1179 995 1223 c 0
 937 1359 823 1462 633 1462 c 0
 610 1462 592 1461 580 1458 c 2
 541 1450 l 1
 451 1419 387 1375 350 1319 c 1
 295 1143 l 1
 276 1137 l 1
 255 1137 232 1161 205 1210 c 0
 180 1259 168 1312 168 1368 c 0
 168 1495 230 1582 332 1622 c 1
 425 1663 523 1683 627 1683 c 0
EndSplineSet
EndChar

StartChar: C
Encoding: 67 67 34
Width: 1150
Flags: HW
LayerCount: 2
Fore
SplineSet
51 387 m 1
 53 412 l 1
 56 433 80 467 127 516 c 0
 179 568 211 595 274 649 c 1
 308 683 365 720 444 760 c 0
 539 808 597 839 618 854 c 1
 754 840 l 1
 909 836 l 1
 1034 836 l 1
 1110 842 l 1
 1786 842 l 1
 1765 830 1703 795 1686 782 c 0
 1618 737 1584 697 1583 662 c 0
 1583 643 1595 625 1620 608 c 1
 758 608 l 2
 678 608 394 559 383 498 c 0
 382 492 382 486 382 481 c 0
 382 427 416 379 484 337 c 0
 560 291 668 268 809 268 c 0
 878 268 945 273 1008 283 c 1
 979 206 902 141 776 88 c 0
 669 45 566 23 466 23 c 2
 461 23 l 1
 416 25 l 1
 348 33 274 70 193 135 c 0
 99 213 52 297 51 387 c 1
EndSplineSet
EndChar

StartChar: D
Encoding: 68 68 35
Width: 1146
Flags: HW
LayerCount: 2
Fore
SplineSet
111 231 m 0
 111 368 145 479 213 565 c 0
 268 634 365 707 504 782 c 1
 467 830 440 903 422 1001 c 1
 406 1135 l 1
 406 1238 442 1318 514 1376 c 0
 607 1453 756 1491 961 1491 c 0
 991 1491 1030 1470 1080 1428 c 128
 1130 1386 1155 1348 1155 1311 c 0
 1155 1228 1111 1146 1022 1067 c 1
 774 862 l 1
 837 773 885 693 918 621 c 0
 945 562 977 468 1014 338 c 0
 1031 274 1040 221 1040 177 c 2
 1040 170 l 2
 1040 57 991 -23 893 -68 c 1
 829 -93 740 -106 625 -106 c 2
 616 -106 l 2
 495 -106 385 -80 287 -27 c 0
 170 37 111 123 111 231 c 0
682 111 m 0
 748 111 770 160 770 225 c 0
 770 248 769 265 766 276 c 1
 758 322 l 1
 749 339 720 404 672 518 c 0
 635 608 600 666 565 692 c 1
 528 658 487 610 440 549 c 0
 384 475 348 410 332 354 c 1
 349 198 504 111 682 111 c 0
860 1321 m 0
 820 1321 664 1269 664 1229 c 0
 664 1115 714 966 768 907 c 1
 842 1004 l 1
 919 1099 958 1152 961 1163 c 1
 961 1256 943 1321 860 1321 c 0
EndSplineSet
EndChar

StartChar: E
Encoding: 69 69 36
Width: 950
Flags: HW
LayerCount: 2
Fore
SplineSet
92 391 m 1
 94 434 l 2
 95 449 118 481 162 528 c 1
 199 572 250 619 315 668 c 1
 357 706 395 731 430 743 c 1
 580 776 l 1
 666 784 l 5
 704 784 728 782 731 754 c 1
 728 735 726 733 717 723 c 1
 666 706 604 660 530 584 c 1
 430 471 l 1
 430 462 443 445 468 421 c 128
 564 330 662 301 827 270 c 1
 835 270 l 2
 875 270 961 294 1092 342 c 0
 1169 371 1224 387 1257 391 c 1
 1216 272 1107 178 930 109 c 0
 787 53 648 25 514 25 c 1
 463 27 l 1
 389 35 312 72 231 139 c 0
 138 217 92 301 92 391 c 1
EndSplineSet
EndChar

StartChar: F
Encoding: 70 70 37
Width: 1048
Flags: HW
LayerCount: 2
Fore
SplineSet
45 1159 m 1
 25 1119 10 1112 -45 1106 c 1
 -100 1108 l 1
 -133 1108 -172 1127 -219 1164 c 128
 -266 1201 -289 1234 -289 1264 c 0
 -289 1328 -260 1386 -201 1438 c 128
 -142 1490 -73 1516 6 1516 c 0
 67 1516 117 1505 156 1483 c 1
 289 1382 l 1
 291 1417 l 1
 291 1481 l 1
 287 1503 284 1520 283 1532 c 2
 272 1659 l 1
 172 2419 l 1
 274 2437 l 1
 328 2445 l 1
 468 2445 498 2416 498 2288 c 1
 496 2224 l 1
 485 2097 l 1
 485 2046 487 2022 508 1995 c 1
 596 1958 l 1
 639 1950 l 1
 686 1952 l 1
 741 1956 l 1
 838 1956 864 1997 864 2091 c 0
 864 2124 857 2172 854 2200 c 2
 844 2318 l 1
 844 2505 964 2558 1167 2558 c 0
 1274 2558 1389 2508 1389 2413 c 1
 1413 2374 l 1
 1431 2335 1440 2296 1440 2259 c 0
 1440 2183 1420 2127 1389 2068 c 0
 1344 1978 1308 1922 1282 1902 c 128
 1256 1882 1191 1861 1087 1839 c 1
 1087 1727 1120 1610 1120 1501 c 1
 1118 1456 l 2
 1118 1439 1115 1425 1110 1413 c 0
 1073 1297 1033 1219 989 1178 c 0
 952 1144 906 1127 850 1126 c 1
 801 1126 l 1
 790 1129 782 1130 776 1130 c 2
 629 1145 l 1
 596 1145 l 1
 561 1141 l 1
 549 842 l 1
 1372 842 l 1
 1364 608 l 1
 539 608 l 1
 528 430 l 1
 555 174 l 2
 563 100 567 42 567 0 c 0
 567 -82 557 -174 487 -174 c 0
 465 -174 420 -155 352 -118 c 128
 284 -81 249 -54 246 -37 c 1
 274 39 l 1
 286 75 299 109 303 143 c 1
 311 608 l 1
 -223 608 l 1
 -223 842 l 1
 315 842 l 1
 313 1036 l 2
 313 1066 309 1173 309 1204 c 1
 264 1219 224 1241 190 1270 c 0
 135 1313 98 1335 79 1335 c 2
 78 1335 l 1
 -31 1329 l 1
 -69 1322 -88 1303 -88 1270 c 0
 -88 1251 -68 1229 -27 1204 c 2
 45 1159 l 1
504 1821 m 1
 504 1730 506 1642 514 1561 c 2
 537 1319 l 1
 791 1290 l 1
 873 1319 916 1356 920 1401 c 2
 930 1522 l 1
 932 1556 l 1
 934 1581 l 1
 934 1630 927 1676 913 1718 c 1
 893 1769 l 1
 874 1769 851 1766 825 1761 c 1
 760 1753 l 1
 737 1753 l 2
 728 1753 719 1754 711 1757 c 2
 666 1780 l 1
 584 1788 l 1
 554 1793 535 1804 504 1821 c 1
1153 2339 m 0
 1030 2339 1020 2330 1020 2208 c 1
 1018 2128 l 2
 1017 2119 1015 2112 1014 2109 c 1
 1020 2023 l 1
 1133 2042 1241 2122 1241 2238 c 0
 1241 2295 1210 2339 1153 2339 c 0
EndSplineSet
EndChar

StartChar: G
Encoding: 71 71 38
Width: 1517
Flags: HW
LayerCount: 2
Fore
SplineSet
496 59 m 0
 282 59 172 179 172 399 c 0
 172 522 201 615 258 680 c 0
 297 724 371 764 479 799 c 0
 647 854 747 889 780 905 c 1
 754 965 741 1011 741 1044 c 0
 741 1326 848 1487 1116 1489 c 0
 1191 1489 1277 1466 1374 1419 c 0
 1452 1382 1491 1339 1491 1290 c 0
 1491 1185 1454 1106 1380 1053 c 1
 1180 961 l 1
 1217 848 1263 719 1319 575 c 1
 1430 279 l 1
 1459 186 1473 108 1473 43 c 0
 1473 -26 1443 -114 1384 -219 c 0
 1249 -467 994 -693 725 -805 c 1
 1024 -559 l 1
 1129 -454 1182 -334 1182 -199 c 0
 1182 -54 1172 64 1153 156 c 128
 1134 248 1106 295 1071 295 c 1
 939 171 745 59 496 59 c 0
432 356 m 1
 483 302 584 281 696 281 c 258
 797 281 l 1
 827 285 849 288 862 289 c 2
 1047 311 l 1
 1059 311 1065 315 1065 324 c 1
 1047 365 l 1
 1036 386 1033 401 1036 410 c 1
 961 555 l 1
 889 664 l 1
 829 664 l 1
 750 662 l 2
 720 662 689 658 657 651 c 0
 495 627 432 545 432 356 c 1
1143 1012 m 1
 1192 1054 1274 1152 1307 1208 c 1
 1282 1241 l 1
 1257 1262 1208 1278 1135 1290 c 0
 1133 1291 1131 1291 1129 1291 c 0
 1113 1291 1090 1276 1061 1245 c 0
 1034 1214 1019 1191 1016 1178 c 1
 1016 1155 1038 1122 1081 1079 c 1
 1143 1012 l 1
EndSplineSet
EndChar

StartChar: H
Encoding: 72 72 39
Width: 1286
Flags: HW
LayerCount: 2
Fore
SplineSet
461 532 m 1
 402 591 283 608 158 608 c 2
 -252 608 l 1
 -254 842 l 1
 1454 842 l 1
 1446 608 l 1
 782 608 l 1
 714 579 670 554 649 532 c 0
 638 521 625 489 610 434 c 1
 606 408 l 1
 606 360 633 312 686 266 c 128
 739 220 803 197 877 197 c 0
 959 197 1010 224 1061 258 c 1
 1069 252 1078 249 1090 246 c 1
 1147 242 l 1
 1202 242 l 2
 1214 242 1222 243 1227 246 c 1
 1227 133 1136 51 954 2 c 0
 861 -21 768 -33 674 -33 c 0
 557 -33 456 -7 371 45 c 128
 286 97 244 158 244 227 c 0
 244 252 268 294 315 354 c 1
 461 532 l 1
EndSplineSet
EndChar

StartChar: I
Encoding: 73 73 40
Width: 835
Flags: HW
LayerCount: 2
Fore
SplineSet
680 145 m 1
 644 79 568 -8 473 -8 c 0
 456 -8 441 -5 426 0 c 0
 352 23 296 66 258 127 c 1
 129 389 l 2
 51 546 -43 696 -152 838 c 1
 -8 844 l 1
 293 846 l 1
 678 844 l 1
 1004 842 l 1
 995 608 l 1
 291 608 l 1
 367 430 l 1
 409 359 459 302 518 258 c 1
 680 145 l 1
EndSplineSet
EndChar

StartChar: J
Encoding: 74 74 41
Width: 1101
Flags: HW
LayerCount: 2
Fore
SplineSet
381 1110 m 0
 381 1348 537 1444 791 1444 c 0
 925 1444 1014 1403 1057 1321 c 0
 1080 1275 1092 1201 1092 1100 c 0
 1092 989 988 902 903 834 c 1
 981 726 1081 494 1081 315 c 0
 1081 170 1022 68 918 24 c 128
 886 10 848 4 805 4 c 0
 659 4 519 61 385 176 c 0
 299 251 206 365 106 516 c 0
 13 658 -42 736 -61 750 c 1
 -57 761 -20 779 52 805 c 128
 124 831 174 844 201 844 c 1
 295 752 l 2
 327 720 366 692 399 659 c 1
 455 702 l 1
 501 736 563 775 616 807 c 1
 595 825 563 856 520 899 c 2
 446 973 l 1
 411 1011 381 1048 381 1110 c 0
807 211 m 0
 858 211 868 274 868 340 c 0
 868 465 807 637 739 688 c 1
 714 665 675 642 621 621 c 0
 540 587 493 566 479 557 c 1
 584 391 l 2
 609 353 648 314 702 274 c 1
 723 256 l 1
 746 238 776 211 807 211 c 0
606 1118 m 1
 627 1101 650 1078 676 1049 c 2
 784 930 l 1
 899 1010 l 1
 940 1043 960 1077 961 1114 c 1
 954 1147 l 1
 938 1204 862 1257 793 1257 c 2
 768 1257 l 2
 662 1257 620 1218 606 1118 c 1
EndSplineSet
EndChar

StartChar: K
Encoding: 75 75 42
Width: 1171
Flags: HW
LayerCount: 2
Fore
SplineSet
63 37 m 1
 97 163 127 355 127 524 c 1
 131 608 l 1
 -223 608 l 1
 -223 842 l 1
 121 842 l 1
 113 946 l 1
 109 1063 l 1
 111 1124 l 1
 113 1200 l 2
 113 1235 109 1343 109 1380 c 1
 98 1706 l 1
 98 2011 134 2253 338 2320 c 1
 306 2224 281 2154 281 2046 c 0
 281 1873 390 1800 573 1800 c 1
 633 1802 l 2
 655 1802 671 1803 682 1806 c 1
 743 2044 l 1
 792 2229 929 2322 1153 2322 c 2
 1155 2322 l 2
 1199 2322 1253 2278 1317 2189 c 0
 1389 2088 1425 1984 1425 1876 c 0
 1425 1695 1376 1606 1206 1606 c 1
 1116 1612 l 1
 963 1626 l 1
 918 1624 l 1
 911 842 l 1
 1372 842 l 1
 1364 608 l 1
 909 608 l 1
 907 289 l 1
 915 215 930 163 951 133 c 128
 972 103 1001 88 1036 88 c 0
 1069 88 1107 103 1151 133 c 1
 1208 182 l 1
 1208 23 1062 -68 897 -68 c 0
 685 -68 637 118 637 356 c 1
 639 469 l 1
 651 608 l 1
 397 608 l 1
 397 579 414 252 414 219 c 1
 422 29 l 1
 422 -48 303 -72 215 -72 c 0
 155 -72 63 -22 63 37 c 1
389 1645 m 1
 377 1603 371 1556 371 1497 c 2
 367 1255 l 1
 367 1122 l 1
 369 1022 l 1
 381 842 l 1
 674 842 l 1
 684 1020 l 1
 689 1151 696 1281 702 1411 c 2
 711 1634 l 1
 663 1634 619 1630 580 1622 c 1
 516 1612 l 1
 467 1618 l 1
 389 1645 l 1
883 1823 m 1
 993 1810 l 1
 1104 1806 l 1
 1169 1806 1232 1811 1235 1864 c 1
 1229 1908 1217 1941 1194 1999 c 2
 1167 2068 l 1
 1052 2068 928 2025 889 1962 c 1
 883 1942 l 1
 889 1915 l 1
 895 1880 l 1
 895 1862 891 1843 883 1823 c 1
EndSplineSet
EndChar

StartChar: L
Encoding: 76 76 43
Width: 892
Flags: HW
LayerCount: 2
Fore
SplineSet
119 -381 m 1
 119 -352 390 174 397 221 c 1
 371 246 l 1
 326 291 280 350 233 422 c 2
 147 557 l 1
 112 621 94 676 94 721 c 1
 100 760 l 1
 135 877 374 996 539 1020 c 1
 639 1026 l 1
 740 1026 894 1014 932 956 c 1
 893 909 836 816 763 678 c 128
 690 540 653 460 653 438 c 0
 653 426 685 386 748 319 c 1
 954 109 l 1
 954 90 928 58 876 14 c 128
 824 -30 789 -51 768 -51 c 0
 753 -51 717 -34 662 0 c 0
 597 41 545 84 506 131 c 1
 281 -266 l 1
 220 -377 141 -468 45 -539 c 1
 45 -526 57 -495 82 -446 c 1
 119 -381 l 1
377 770 m 1
 377 759 383 743 396 722 c 128
 409 701 429 673 455 639 c 0
 506 574 541 534 561 520 c 1
 649 698 l 1
 700 813 l 1
 643 846 l 2
 625 857 603 862 578 862 c 1
 528 858 l 1
 505 858 472 843 430 813 c 1
 377 770 l 1
EndSplineSet
EndChar

StartChar: M
Encoding: 77 77 44
Width: 1400
Flags: HW
LayerCount: 2
Fore
SplineSet
537 539 m 1
 583 381 649 193 756 104 c 1
 690 61 l 1
 653 42 610 33 560 33 c 2
 555 33 l 2
 511 33 471 70 434 143 c 1
 315 426 l 1
 250 565 171 690 78 799 c 1
 83 804 97 807 119 807 c 2
 170 807 l 1
 189 803 203 800 211 799 c 2
 307 788 l 1
 319 788 343 776 379 752 c 2
 434 717 l 1
 475 745 l 1
 536 790 590 837 637 885 c 1
 561 946 504 1037 504 1165 c 1
 506 1208 l 1
 514 1255 l 1
 557 1445 645 1487 883 1487 c 0
 983 1487 1068 1459 1137 1403 c 0
 1202 1351 1235 1293 1235 1229 c 0
 1235 1170 1206 1116 1149 1067 c 1
 944 946 l 1
 1034 803 l 2
 1104 693 1151 614 1210 500 c 0
 1275 371 1307 274 1307 209 c 0
 1307 92 1271 -22 1198 -133 c 0
 1098 -291 922 -438 739 -532 c 1
 802 -476 871 -413 918 -362 c 0
 1037 -228 1096 -112 1096 -14 c 0
 1096 75 1053 202 966 366 c 128
 879 530 800 642 727 702 c 1
 676 672 639 645 616 621 c 2
 537 539 l 1
920 1317 m 1
 822 1317 780 1262 780 1167 c 0
 780 1102 867 1012 913 979 c 1
 1028 1092 l 2
 1061 1124 1077 1149 1077 1167 c 0
 1077 1258 1036 1319 944 1319 c 1
 920 1317 l 1
EndSplineSet
EndChar

StartChar: N
Encoding: 78 78 45
Width: 1130
Flags: HW
LayerCount: 2
Fore
SplineSet
18 1298 m 0
 -60 1298 -102 1436 -102 1534 c 2
 -102 1540 l 2
 -102 1557 -101 1566 -98 1569 c 0
 -5 1680 50 1700 258 1700 c 0
 637 1700 906 1395 1051 1106 c 0
 1119 967 1153 853 1153 766 c 0
 1153 735 1113 657 1034 532 c 0
 943 389 855 271 772 180 c 0
 663 60 576 0 512 0 c 0
 495 0 481 4 469 12 c 0
 432 34 382 102 319 217 c 1
 152 516 l 1
 84 621 16 684 -51 705 c 1
 193 778 l 1
 217 784 l 1
 250 784 293 742 348 657 c 1
 496 420 l 1
 557 334 617 291 676 291 c 0
 720 291 757 354 788 481 c 0
 800 540 814 641 831 784 c 1
 834 825 l 1
 834 978 765 1126 627 1270 c 0
 480 1425 316 1503 135 1503 c 1
 113 1491 96 1454 84 1391 c 1
 76 1330 54 1299 18 1298 c 0
EndSplineSet
EndChar

StartChar: O
Encoding: 79 79 46
Width: 1015
Flags: HW
LayerCount: 2
Fore
SplineSet
61 283 m 0
 61 407 110 527 208 643 c 128
 306 759 420 826 551 844 c 1
 1659 842 l 1
 1659 608 l 1
 1030 608 l 1
 1030 441 956 298 807 178 c 0
 666 66 512 10 344 10 c 0
 319 10 269 39 193 98 c 0
 106 166 62 228 61 283 c 0
332 471 m 1
 461 319 l 1
 539 229 596 184 633 184 c 0
 646 184 672 218 710 286 c 128
 748 354 766 403 766 436 c 0
 766 455 733 498 668 563 c 0
 595 632 539 667 500 668 c 0
 473 668 435 632 387 559 c 1
 332 471 l 1
EndSplineSet
EndChar

StartChar: P
Encoding: 80 80 47
Width: 1056
Flags: HW
LayerCount: 2
Fore
SplineSet
-266 1262 m 0
 -266 1474 -152 1561 61 1561 c 0
 121 1561 186 1554 256 1540 c 0
 325 1527 365 1520 378 1520 c 2
 381 1520 l 1
 393 1804 l 1
 317 1802 l 1
 229 1800 l 1
 76 1800 -40 1810 -121 1829 c 0
 -250 1858 -315 1907 -315 1977 c 0
 -315 2009 -284 2051 -223 2103 c 1
 -20 2265 l 1
 11 2287 86 2332 203 2400 c 0
 352 2485 444 2527 481 2527 c 0
 596 2527 602 2385 602 2245 c 1
 600 2167 l 1
 600 2066 l 1
 598 1942 l 1
 948 1946 l 1
 930 1992 912 2038 895 2085 c 1
 864 2177 l 1
 831 2288 l 1
 831 2363 869 2427 944 2480 c 0
 1039 2544 1129 2576 1214 2576 c 0
 1427 2576 1556 2509 1556 2310 c 2
 1556 2259 l 1
 1553 2250 1552 2243 1552 2238 c 2
 1544 2175 l 1
 1544 2072 1498 1988 1407 1923 c 0
 1342 1878 1281 1855 1225 1855 c 2
 1206 1855 l 1
 1231 1737 l 1
 1241 1624 l 1
 1241 1398 1145 1311 934 1286 c 1
 871 1286 686 1278 608 1278 c 0
 591 1278 582 1230 582 1135 c 2
 582 1124 l 1
 578 850 l 1
 1372 842 l 1
 1364 608 l 1
 575 608 l 1
 578 412 l 1
 578 -6 l 1
 414 -23 l 1
 305 -12 l 1
 311 84 l 1
 324 174 l 1
 336 220 342 264 342 324 c 0
 342 425 345 514 348 608 c 1
 -223 608 l 1
 -223 842 l 1
 367 842 l 1
 367 956 l 1
 369 1087 l 1
 369 1208 l 1
 366 1230 365 1245 365 1253 c 0
 365 1295 359 1318 348 1321 c 2
 254 1350 l 1
 180 1369 119 1378 71 1378 c 2
 66 1378 l 2
 -6 1378 -88 1362 -88 1296 c 0
 -88 1223 -39 1176 59 1153 c 1
 199 1126 l 1
 219 1047 l 1
 196 1032 166 1020 129 1012 c 1
 23 1004 l 1
 -14 1004 l 2
 -88 1004 -150 1035 -201 1098 c 0
 -238 1144 -266 1189 -266 1262 c 0
-66 1978 m 1
 -22 1974 17 1965 51 1952 c 0
 80 1943 124 1938 184 1937 c 1
 242 1935 l 1
 297 1935 l 1
 406 1942 l 1
 397 2105 l 1
 397 2196 387 2258 367 2290 c 1
 171 2242 -11 2143 -66 1978 c 1
602 1559 m 1
 604 1538 l 1
 610 1499 l 1
 668 1487 l 1
 713 1479 758 1475 801 1475 c 0
 910 1475 969 1487 1028 1552 c 1
 1014 1624 l 1
 1006 1686 999 1738 999 1806 c 1
 897 1798 l 1
 829 1796 l 1
 754 1797 679 1799 604 1800 c 1
 604 1604 l 1
 602 1559 l 1
1239 2376 m 0
 1115 2376 1077 2326 1077 2195 c 0
 1077 2170 1086 2140 1104 2103 c 2
 1147 2015 l 1
 1264 2056 l 1
 1313 2077 1337 2115 1337 2171 c 0
 1337 2266 1321 2376 1239 2376 c 0
EndSplineSet
EndChar

StartChar: Q
Encoding: 81 81 48
Width: 1224
Flags: HW
LayerCount: 2
Fore
SplineSet
1733 842 m 1
 1659 797 1542 717 1542 647 c 0
 1542 632 1547 619 1556 608 c 1
 1122 608 l 1
 958 594 l 1
 958 500 963 406 973 311 c 1
 1010 12 l 1
 1053 -276 l 1
 1018 -367 l 1
 993 -424 975 -454 963 -457 c 1
 898 -457 850 -352 819 -141 c 0
 796 34 784 280 784 598 c 1
 695 598 603 593 506 584 c 1
 311 571 l 1
 188 578 l 1
 137 586 120 592 66 610 c 1
 88 705 l 1
 110 742 172 813 274 918 c 0
 386 1030 493 1124 596 1200 c 0
 725 1295 821 1343 885 1343 c 0
 926 1343 952 1297 965 1204 c 1
 973 1030 l 1
 973 981 l 1
 971 907 l 2
 971 877 971 847 971 817 c 1
 993 817 l 2
 1045 817 1085 819 1112 823 c 2
 1206 840 l 1
 1733 842 l 1
344 750 m 1
 520 786 l 1
 643 809 l 1
 703 817 729 819 778 819 c 1
 772 924 l 1
 766 989 l 1
 766 1024 l 130
 766 1036 767 1050 770 1065 c 1
 570 975 465 923 344 750 c 1
EndSplineSet
EndChar

StartChar: R
Encoding: 82 82 49
Width: 1204
Flags: HW
LayerCount: 2
Fore
SplineSet
41 731 m 0
 40 734 39 736 39 739 c 0
 39 748 49 758 68 768 c 0
 109 789 162 799 229 799 c 0
 293 799 340 788 371 766 c 1
 457 678 l 1
 662 678 817 765 924 938 c 0
 1004 1069 1044 1213 1044 1370 c 0
 1044 1479 1008 1579 934 1668 c 128
 860 1757 776 1802 682 1802 c 0
 671 1802 642 1790 594 1765 c 0
 538 1735 498 1700 475 1661 c 0
 459 1634 451 1609 451 1588 c 0
 451 1571 454 1554 459 1536 c 2
 469 1497 l 1
 461 1460 l 1
 457 1448 444 1429 422 1403 c 2
 395 1372 l 1
 346 1401 314 1427 298 1451 c 128
 282 1475 274 1505 274 1540 c 2
 274 1585 l 1
 276 1636 l 1
 276 1722 322 1807 412 1891 c 128
 502 1975 588 2017 670 2017 c 0
 856 2017 998 1957 1096 1837 c 0
 1178 1736 1219 1609 1219 1456 c 0
 1219 1316 1197 1210 1165 1081 c 0
 1131 935 1092 842 1049 801 c 0
 928 688 828 612 750 575 c 0
 717 560 655 547 563 537 c 1
 657 427 704 374 772 287 c 0
 824 224 850 182 850 160 c 1
 842 143 l 1
 750 61 l 2
 673 -8 623 -43 600 -43 c 0
 591 -43 583 -38 578 -29 c 0
 530 94 489 161 410 266 c 0
 375 317 308 398 209 510 c 0
 128 601 72 675 41 731 c 0
EndSplineSet
EndChar

StartChar: S
Encoding: 83 83 50
Width: 1064
Flags: HW
LayerCount: 2
Fore
SplineSet
451 606 m 0
 308 606 291 593 281 502 c 1
 281 435 323 379 406 334 c 0
 490 292 593 270 721 270 c 0
 808 270 896 281 983 303 c 1
 905 172 811 85 702 43 c 0
 643 21 571 10 485 10 c 0
 437 10 363 48 262 125 c 0
 151 210 90 285 78 352 c 1
 72 408 l 1
 72 442 79 477 92 512 c 0
 103 546 129 596 170 662 c 128
 211 728 260 777 317 807 c 0
 362 832 415 844 475 844 c 1
 762 860 l 1
 995 975 1116 1231 1116 1577 c 0
 1116 1761 1041 1876 866 1876 c 0
 765 1876 696 1851 659 1802 c 0
 638 1770 627 1719 627 1648 c 2
 627 1581 l 2
 627 1524 619 1468 565 1468 c 0
 527 1468 484 1502 438 1570 c 128
 392 1638 368 1683 365 1708 c 1
 365 1802 410 1887 500 1962 c 128
 590 2037 717 2075 881 2075 c 0
 1176 2075 1360 1830 1360 1524 c 0
 1360 1408 1329 1295 1268 1184 c 0
 1203 1065 1103 951 969 842 c 1
 1331 842 l 1
 1323 608 l 1
 1104 614 l 1
 823 616 l 2
 754 616 508 606 451 606 c 0
EndSplineSet
EndChar

StartChar: T
Encoding: 84 84 51
Width: 1499
Flags: HW
LayerCount: 2
Fore
SplineSet
-174 1477 m 2
 -292 1477 -297 1478 -297 1595 c 0
 -297 1734 -227 1896 -86 2079 c 0
 64 2274 209 2372 348 2372 c 0
 456 2372 520 2362 520 2265 c 2
 522 2011 l 2
 522 1974 526 1846 526 1810 c 0
 526 1727 531 1678 541 1665 c 0
 552 1654 592 1649 662 1649 c 0
 756 1649 820 1656 854 1671 c 1
 924 1718 l 1
 918 1776 l 1
 915 1841 l 1
 915 2206 1105 2449 1460 2449 c 0
 1528 2449 1598 2405 1671 2316 c 0
 1728 2246 1757 2163 1757 2068 c 0
 1757 1794 1606 1681 1369 1617 c 128
 1251 1585 1189 1567 1184 1563 c 1
 1184 1521 1180 1378 1180 1335 c 2
 1178 1200 l 1
 1180 1055 l 1
 1182 842 l 1
 1679 842 l 1
 1679 608 l 1
 1165 608 l 1
 1155 342 l 1
 1155 288 l 2
 1155 239 1158 200 1188 197 c 1
 1319 250 l 1
 1362 266 1407 274 1454 274 c 2
 1460 274 l 1
 1305 154 l 1
 1194 72 1127 31 1102 31 c 1
 1075 18 l 1
 1054 10 1034 6 1014 6 c 0
 946 6 925 39 905 102 c 1
 926 147 936 187 936 221 c 1
 918 406 l 1
 911 608 l 1
 487 608 l 1
 487 506 l 1
 489 399 l 1
 489 265 482 170 467 115 c 0
 446 28 407 -16 348 -16 c 0
 253 -16 199 -10 199 72 c 2
 199 92 l 1
 202 127 212 163 221 195 c 1
 258 305 l 1
 283 608 l 1
 -233 608 l 1
 -233 842 l 1
 299 842 l 1
 307 1028 l 1
 309 1241 l 1
 315 1448 l 1
 226 1461 151 1470 76 1470 c 1
 -119 1477 l 1
 -174 1477 l 2
-37 1765 m 1
 70 1737 l 1
 178 1716 l 1
 236 1712 l 1
 275 1712 295 1730 295 1765 c 1
 291 1819 l 1
 287 1896 l 1
 287 1969 275 2039 250 2107 c 1
 183 2082 134 2051 102 2013 c 0
 65 1972 19 1890 -37 1765 c 1
926 1098 m 2
 926 1137 930 1272 930 1311 c 2
 930 1436 l 1
 926 1481 l 1
 883 1460 l 1
 848 1456 l 1
 791 1458 l 1
 735 1462 l 1
 657 1460 l 2
 635 1460 604 1456 565 1448 c 0
 554 1448 541 1361 524 1186 c 1
 504 842 l 1
 924 842 l 1
 926 1098 l 2
1153 1878 m 1
 1155 1798 l 1
 1167 1733 l 1
 1331 1769 l 1
 1479 1858 l 1
 1520 1890 1540 1957 1540 2058 c 0
 1540 2111 1523 2154 1490 2187 c 128
 1457 2220 1423 2236 1389 2236 c 0
 1360 2236 1334 2228 1309 2212 c 1
 1241 2150 l 1
 1183 2092 1153 1992 1153 1878 c 1
EndSplineSet
EndChar

StartChar: U
Encoding: 85 85 52
Width: 1216
Flags: HW
LayerCount: 2
Fore
SplineSet
958 1391 m 0
 912 1391 876 1376 834 1376 c 0
 801 1377 776 1378 758 1378 c 0
 642 1378 585 1352 492 1300 c 1
 475 1282 462 1273 453 1274 c 0
 444 1274 439 1286 438 1311 c 0
 438 1349 454 1417 467 1464 c 1
 549 1571 710 1630 897 1630 c 0
 1051 1630 1187 1594 1305 1522 c 0
 1463 1425 1540 1299 1540 1087 c 0
 1540 761 1453 465 1311 287 c 0
 1216 170 1132 84 1059 31 c 0
 1002 -11 953 -32 913 -33 c 0
 874 -33 857 -12 840 18 c 1
 827 26 699 155 688 164 c 1
 434 29 l 2
 345 -19 289 -43 266 -43 c 0
 227 -43 182 8 133 111 c 0
 91 204 70 270 70 311 c 0
 70 450 142 577 287 692 c 0
 406 786 498 833 563 834 c 1
 715 846 l 1
 711 795 l 1
 711 743 729 664 766 557 c 128
 803 450 840 368 877 311 c 0
 896 282 912 261 924 248 c 128
 936 235 949 229 963 229 c 0
 982 229 1008 247 1038 282 c 128
 1068 317 1113 375 1174 457 c 1
 1245 589 1303 753 1303 918 c 0
 1303 1082 1265 1195 1176 1290 c 0
 1111 1357 1038 1390 958 1391 c 0
289 541 m 1
 289 473 311 401 354 326 c 0
 389 259 417 225 438 223 c 0
 520 223 579 256 610 307 c 1
 597 404 501 652 436 692 c 0
 433 693 429 694 426 694 c 0
 403 694 374 672 340 627 c 1
 289 541 l 1
EndSplineSet
EndChar

StartChar: V
Encoding: 86 86 53
Width: 1048
Flags: HW
LayerCount: 2
Fore
SplineSet
98 57 m 1
 78 61 80 68 76 98 c 1
 76 136 91 173 121 209 c 1
 340 449 l 1
 373 493 403 544 432 602 c 0
 467 676 504 713 543 713 c 0
 611 713 668 686 713 633 c 1
 850 432 l 1
 981 283 l 1
 1034 218 1061 168 1061 133 c 0
 1061 91 1047 72 1008 72 c 1
 971 74 l 1
 930 78 l 1
 893 78 842 117 776 195 c 1
 582 436 l 1
 401 195 l 2
 344 118 280 80 211 80 c 0
 193 80 170 76 141 68 c 2
 98 57 l 1
EndSplineSet
EndChar

StartChar: W
Encoding: 87 87 54
Width: 1316
VWidth: 2600
Flags: HW
LayerCount: 2
Fore
SplineSet
1126 1565 m 1
 1094 1565 995 1545 968 1542 c 1
 775 1542 l 2
 654 1542 619 1547 527 1584 c 0
 378 1644 276 1699 239 1845 c 0
 234 1873 231 1899 231 1923 c 0
 231 1997 250 2037 277 2096 c 0
 327 2197 328 2210 405 2284 c 128
 478 2354 644 2376 810 2376 c 0
 1016 2376 1105 2228 1203 2109 c 128
 1239 2065 1263 2010 1275 1943 c 0
 1283 1879 1292 1815 1300 1751 c 1
 1388 1782 1477 1814 1565 1845 c 1
 1524 1779 1467 1721 1396 1669 c 0
 1364 1646 1331 1623 1300 1601 c 1
 1300 1498 1276 1317 1255 1236 c 0
 1226 1112 1199 1045 1126 976 c 128
 1083 936 944 795 898 754 c 0
 862 722 830 700 805 687 c 0
 751 661 674 655 587 645 c 1
 696 512 783 414 902 292 c 0
 911 282 926 277 945 277 c 0
 972 277 1019 291 1086 318 c 128
 1153 345 1195 358 1213 358 c 1
 1005 104 l 1
 904 25 l 2
 851 -17 801 -47 723 -47 c 0
 711 -47 638 16 630 23 c 1
 598 113 518 252 447 347 c 128
 375 443 317 510 226 615 c 0
 138 714 77 794 43 856 c 0
 38 861 33 866 29 872 c 1
 29 903 199 913 239 913 c 0
 308 913 358 902 390 879 c 1
 486 782 l 1
 717 782 891 878 1007 1069 c 0
 1010 1076 1027 1120 1060 1201 c 0
 1104 1307 1126 1425 1126 1565 c 1
681 2193 m 0
 535 2193 499 2105 486 1958 c 1
 486 1844 519 1781 587 1727 c 0
 640 1687 686 1674 775 1674 c 0
 810 1674 885 1688 912 1692 c 128
 923 1694 950 1696 991 1700 c 128
 1032 1704 1077 1713 1126 1727 c 1
 1114 1822 1111 1916 1073 1988 c 0
 1021 2081 992 2130 984 2136 c 0
 937 2174 836 2193 681 2193 c 0
EndSplineSet
EndChar

StartChar: X
Encoding: 88 88 55
Width: 1167
Flags: HW
LayerCount: 2
Fore
SplineSet
635 360 m 1
 550 275 266 23 147 23 c 0
 130 23 118 28 111 37 c 1
 88 83 66 130 43 176 c 1
 52 194 105 235 201 299 c 0
 321 380 404 440 451 481 c 0
 538 556 582 617 582 662 c 1
 584 705 l 1
 594 786 l 1
 588 838 l 1
 451 819 l 1
 348 813 l 1
 254 813 179 831 162 907 c 1
 166 945 206 973 282 990 c 128
 358 1007 415 1023 451 1036 c 1
 498 1038 l 1
 705 1036 l 2
 784 1036 856 1033 920 1028 c 1
 956 1020 l 1
 1001 1018 l 1
 1048 1018 1078 1016 1094 1013 c 128
 1110 1010 1118 996 1118 971 c 1
 1100 907 l 1
 1079 842 l 1
 797 842 l 1
 797 792 790 771 775 724 c 128
 766 696 762 656 762 604 c 0
 762 555 834 473 977 358 c 1
 1192 195 l 1
 1192 180 1173 145 1135 90 c 0
 1116 61 1099 46 1085 43 c 1
 1006 43 922 85 834 168 c 1
 635 360 l 1
EndSplineSet
EndChar

StartChar: Y
Encoding: 89 89 56
Width: 1245
Flags: HW
LayerCount: 2
Fore
SplineSet
1112 608 m 1
 1158 555 1208 482 1208 389 c 1
 1214 297 l 1
 1221 236 l 1
 1221 172 1178 94 1145 30 c 128
 1124 -10 1097 -56 1063 -111 c 0
 940 -326 718 -563 514 -700 c 0
 380 -789 252 -843 131 -862 c 1
 214 -821 287 -775 350 -723 c 1
 460 -639 556 -538 639 -424 c 0
 747 -277 847 -94 938 125 c 1
 946 231 l 1
 889 158 825 101 754 59 c 0
 696 24 633 -4 549 -4 c 0
 493 -4 408 32 293 104 c 0
 169 183 107 254 106 315 c 0
 106 363 166 464 285 618 c 0
 412 781 509 862 578 862 c 0
 630 862 683 855 737 842 c 1
 1528 842 l 1
 1511 608 l 1
 1112 608 l 1
463 414 m 0
 463 383 507 337 595 278 c 128
 683 219 750 190 795 190 c 1
 840 199 l 1
 908 219 952 254 973 303 c 1
 965 341 953 391 938 424 c 0
 907 505 868 545 823 545 c 256
 778 545 706 526 609 486 c 128
 512 446 463 422 463 414 c 0
EndSplineSet
EndChar

StartChar: Z
Encoding: 90 90 57
Width: 1173
Flags: HW
LayerCount: 2
Fore
SplineSet
436 57 m 1
 390 22 258 8 174 8 c 0
 156 8 144 38 137 99 c 128
 130 160 124 220 119 279 c 1
 112 301 108 367 106 478 c 128
 104 589 87 706 53 827 c 1
 84 858 174 887 231 903 c 0
 233 904 235 904 237 904 c 0
 262 904 277 856 289 815 c 1
 343 808 451 797 520 797 c 0
 575 797 607 798 645 811 c 1
 645 926 667 1034 715 1098 c 128
 738 1129 780 1157 840 1181 c 128
 928 1216 950 1227 1028 1227 c 0
 1117 1227 1185 1179 1223 1124 c 0
 1254 1082 1260 1005 1260 930 c 0
 1260 857 1204 788 1159 750 c 1
 1101 714 951 699 864 688 c 1
 876 616 899 399 900 389 c 128
 903 366 912 331 926 285 c 0
 927 280 940 240 963 166 c 0
 967 153 981 131 1004 100 c 0
 1021 77 1030 53 1030 27 c 0
 1030 2 914 0 870 0 c 2
 862 -0 l 2
 825 0 748 1 748 23 c 0
 748 120 705 303 686 395 c 1
 680 462 670 666 657 666 c 2
 307 670 l 1
 307 555 324 356 348 270 c 128
 368 200 392 97 436 57 c 1
846 872 m 0
 846 855 848 838 852 819 c 1
 915 819 1047 851 1080 878 c 128
 1105 899 1120 918 1120 954 c 256
 1120 1002 1101 1034 1072 1056 c 0
 1057 1067 1044 1072 1031 1072 c 0
 1027 1072 1023 1072 1020 1071 c 0
 941 1054 906 1041 872 982 c 128
 854 952 846 915 846 872 c 0
EndSplineSet
EndChar

StartChar: bracketleft
Encoding: 91 91 58
Width: 737
Flags: HW
LayerCount: 2
Fore
SplineSet
193 -348 m 1
 193 1468 l 1
 662 1468 l 1
 662 1413 l 1
 489 1413 l 2
 440 1413 406 1404 389 1386 c 1
 371 1373 362 1341 362 1290 c 2
 362 -150 l 2
 362 -203 371 -241 389 -264 c 1
 411 -282 447 -291 498 -291 c 2
 662 -291 l 1
 662 -348 l 1
 193 -348 l 1
EndSplineSet
EndChar

StartChar: backslash
Encoding: 92 92 59
Width: 671
Flags: HW
LayerCount: 2
Fore
SplineSet
45 1194 m 1
 240 1194 l 1
 639 0 l 1
 444 0 l 1
 45 1194 l 1
EndSplineSet
EndChar

StartChar: bracketright
Encoding: 93 93 60
Width: 737
Flags: HW
LayerCount: 2
Fore
SplineSet
375 1274 m 0
 375 1372 368 1413 270 1413 c 2
 76 1413 l 1
 76 1468 l 1
 545 1468 l 1
 545 -348 l 1
 76 -348 l 1
 76 -291 l 1
 227 -291 l 2
 356 -291 375 -270 375 -139 c 0
 375 332 375 803 375 1274 c 0
EndSplineSet
EndChar

StartChar: asciicircum
Encoding: 94 94 61
Width: 1676
VWidth: 2600
Flags: HW
LayerCount: 2
Fore
SplineSet
1473 406 m 1
 1245 406 l 1
 800 1054 l 1
 292 406 l 1
 51 406 l 1
 800 1410 l 1
 1473 406 l 1
EndSplineSet
EndChar

StartChar: underscore
Encoding: 95 95 62
Width: 2213
VWidth: 2600
Flags: HW
LayerCount: 2
Fore
SplineSet
2214 9 m 1
 0 9 l 1
 0 133 l 1
 2214 133 l 1
 2214 9 l 1
EndSplineSet
EndChar

StartChar: a
Encoding: 97 97 63
Width: 1064
Flags: HW
LayerCount: 2
Fore
SplineSet
70 311 m 0
 70 450 142 577 287 692 c 0
 406 786 498 833 563 834 c 1
 715 846 l 1
 711 795 l 1
 711 698 746 595 815 485 c 0
 900 355 1019 253 1174 180 c 1
 1235 143 l 1
 1053 51 l 2
 979 14 933 -4 915 -4 c 0
 880 -4 824 21 748 70 c 1
 647 143 l 1
 434 29 l 2
 345 -19 289 -43 266 -43 c 0
 227 -43 182 8 133 111 c 0
 91 204 70 270 70 311 c 0
289 541 m 1
 289 473 311 401 354 326 c 0
 389 259 417 225 438 223 c 0
 520 223 579 256 610 307 c 1
 597 404 501 652 436 692 c 0
 433 693 429 694 426 694 c 0
 403 694 374 672 340 627 c 1
 289 541 l 1
EndSplineSet
EndChar

StartChar: b
Encoding: 98 98 64
Width: 1185
Flags: HW
LayerCount: 2
Fore
SplineSet
627 1683 m 0
 1016 1683 1222 1393 1223 995 c 0
 1221 739 1170 572 1055 393 c 0
 962 248 846 140 707 68 c 0
 594 9 493 -20 406 -20 c 0
 299 -20 215 19 152 98 c 0
 97 169 70 249 70 338 c 1
 72 387 l 1
 75 406 99 446 144 505 c 128
 189 564 239 614 295 653 c 1
 337 691 375 716 410 729 c 1
 559 762 l 1
 645 770 l 1
 684 770 708 768 711 739 c 1
 708 719 705 719 696 709 c 1
 645 692 581 654 504 594 c 1
 397 508 l 1
 376 476 377 476 356 432 c 1
 348 409 344 388 344 369 c 0
 344 287 429 250 514 250 c 0
 563 250 603 259 633 276 c 0
 758 344 858 460 932 623 c 0
 993 758 1024 898 1024 1042 c 0
 1024 1119 1014 1179 995 1223 c 0
 937 1359 823 1462 633 1462 c 0
 610 1462 592 1461 580 1458 c 2
 541 1450 l 1
 451 1419 387 1375 350 1319 c 1
 295 1143 l 1
 276 1137 l 1
 255 1137 232 1161 205 1210 c 0
 180 1259 168 1312 168 1368 c 0
 168 1495 230 1582 332 1622 c 1
 425 1663 523 1683 627 1683 c 0
EndSplineSet
EndChar

StartChar: c
Encoding: 99 99 65
Width: 1150
Flags: HW
LayerCount: 2
Fore
SplineSet
627 862 m 1
 694 850 722 844 793 844 c 1
 991 840 l 1
 1077 840 l 1
 1110 842 l 1
 1786 842 l 1
 1765 830 1703 795 1686 782 c 0
 1618 737 1584 697 1583 662 c 0
 1583 643 1595 625 1620 608 c 1
 758 608 l 2
 678 608 394 559 383 498 c 0
 382 492 382 486 382 481 c 0
 382 427 416 379 484 337 c 0
 560 291 668 268 809 268 c 0
 878 268 945 273 1008 283 c 1
 979 206 902 141 776 88 c 0
 669 45 566 23 466 23 c 2
 461 23 l 1
 416 25 l 1
 348 33 274 70 193 135 c 0
 99 213 52 297 51 387 c 1
 53 412 l 2
 54 433 82 466 135 512 c 1
 291 641 l 1
 379 729 499 828 627 862 c 1
EndSplineSet
EndChar

StartChar: d
Encoding: 100 100 66
Width: 1146
Flags: HW
LayerCount: 2
Fore
SplineSet
111 231 m 0
 111 368 145 479 213 565 c 0
 268 634 365 707 504 782 c 1
 467 830 440 903 422 1001 c 1
 406 1135 l 1
 406 1238 442 1318 514 1376 c 0
 607 1453 756 1491 961 1491 c 0
 991 1491 1030 1470 1080 1428 c 128
 1130 1386 1155 1348 1155 1311 c 0
 1155 1228 1111 1146 1022 1067 c 1
 774 862 l 1
 837 773 885 693 918 621 c 0
 945 562 977 468 1014 338 c 0
 1031 274 1040 221 1040 177 c 2
 1040 170 l 2
 1040 57 991 -23 893 -68 c 1
 829 -93 740 -106 625 -106 c 2
 616 -106 l 2
 495 -106 385 -80 287 -27 c 0
 170 37 111 123 111 231 c 0
682 111 m 0
 748 111 770 160 770 225 c 0
 770 248 769 265 766 276 c 1
 758 322 l 1
 749 339 720 404 672 518 c 0
 635 608 600 666 565 692 c 1
 528 658 487 610 440 549 c 0
 384 475 348 410 332 354 c 1
 349 198 504 111 682 111 c 0
860 1321 m 0
 820 1321 664 1269 664 1229 c 0
 664 1115 714 966 768 907 c 1
 842 1004 l 1
 919 1099 958 1152 961 1163 c 1
 961 1256 943 1321 860 1321 c 0
EndSplineSet
EndChar

StartChar: e
Encoding: 101 101 67
Width: 1105
Flags: HW
LayerCount: 2
Fore
SplineSet
125 379 m 1
 127 418 l 2
 127 430 155 463 211 518 c 0
 259 566 316 613 381 659 c 1
 423 697 461 722 496 735 c 1
 645 768 l 1
 731 776 l 1
 770 776 794 774 797 745 c 1
 794 725 791 725 782 715 c 1
 734 698 668 657 584 592 c 1
 471 496 l 1
 471 428 500 373 557 332 c 0
 624 285 729 262 872 262 c 0
 941 262 1012 267 1085 276 c 1
 1055 199 985 135 874 82 c 0
 779 38 681 16 580 16 c 1
 528 18 l 1
 451 26 369 63 281 129 c 0
 177 206 125 289 125 379 c 1
EndSplineSet
EndChar

StartChar: f
Encoding: 102 102 68
Width: 1048
Flags: HW
LayerCount: 2
Fore
SplineSet
4 1020 m 1
 -25 956 -42 903 -109 903 c 0
 -143 903 -185 926 -236 970 c 128
 -287 1014 -313 1052 -313 1083 c 0
 -313 1190 -221 1293 -118 1324 c 128
 -76 1337 -34 1343 8 1343 c 0
 68 1343 116 1334 152 1317 c 2
 256 1268 l 1
 261 1298 264 1342 264 1399 c 0
 264 1472 259 1553 248 1642 c 2
 147 2402 l 1
 250 2421 l 1
 291 2433 321 2447 358 2447 c 0
 404 2447 426 2423 451 2390 c 0
 464 2372 468 2311 472 2278 c 128
 474 2262 475 2247 475 2234 c 130
 475 2195 l 2
 475 2168 471 2071 471 2046 c 0
 471 2011 475 1988 483 1978 c 1
 492 1974 502 1967 512 1958 c 0
 530 1940 559 1931 600 1931 c 2
 627 1931 l 1
 642 1934 654 1935 662 1935 c 0
 770 1935 799 1935 832 2000 c 128
 838 2012 842 2029 842 2050 c 0
 842 2061 841 2069 840 2075 c 0
 827 2160 820 2228 819 2279 c 0
 819 2484 925 2542 1143 2542 c 0
 1276 2542 1336 2460 1389 2357 c 1
 1411 2305 1423 2279 1423 2214 c 0
 1423 2131 1407 2099 1370 2034 c 0
 1339 1975 1300 1932 1255 1903 c 0
 1220 1880 1156 1853 1063 1823 c 1
 1063 1714 1079 1532 1090 1413 c 1
 1090 1242 1049 1154 959 1068 c 128
 920 1031 873 1012 817 1012 c 0
 722 1012 650 1014 603 1019 c 128
 556 1024 531 1026 528 1026 c 1
 528 852 526 720 526 528 c 2
 526 410 l 130
 526 377 527 354 528 342 c 0
 545 167 553 57 553 12 c 0
 553 -83 547 -215 471 -215 c 0
 449 -215 404 -197 336 -160 c 128
 268 -123 232 -95 229 -78 c 1
 245 -37 283 59 287 102 c 1
 281 664 l 1
 276 1090 l 1
 201 1116 188 1121 141 1143 c 0
 55 1181 -10 1200 -55 1200 c 0
 -104 1200 -129 1174 -129 1122 c 0
 -129 1101 -108 1080 -66 1058 c 128
 -24 1036 0 1023 4 1020 c 1
672 1733 m 0
 598 1733 548 1738 471 1747 c 1
 471 1606 485 1434 512 1229 c 1
 569 1214 648 1198 700 1198 c 0
 787 1198 852 1220 868 1281 c 128
 886 1350 887 1429 887 1522 c 2
 887 1550 l 2
 887 1620 884 1688 877 1753 c 1
 803 1740 735 1733 672 1733 c 0
1235 2257 m 0
 1235 2321 1191 2359 1122 2359 c 0
 1039 2359 1021 2347 1015 2258 c 128
 1012 2215 1010 2165 1010 2109 c 2
 1010 2064 l 130
 1010 2053 1011 2045 1012 2040 c 1
 1125 2059 1235 2140 1235 2257 c 0
EndSplineSet
EndChar

StartChar: g
Encoding: 103 103 69
Width: 1517
Flags: HW
LayerCount: 2
Fore
SplineSet
496 59 m 0
 282 59 172 179 172 399 c 0
 172 522 201 615 258 680 c 0
 297 724 371 764 479 799 c 0
 647 854 747 889 780 905 c 1
 754 965 741 1011 741 1044 c 0
 741 1326 848 1487 1116 1489 c 0
 1191 1489 1277 1466 1374 1419 c 0
 1452 1382 1491 1339 1491 1290 c 0
 1491 1185 1454 1106 1380 1053 c 1
 1180 961 l 1
 1217 848 1263 719 1319 575 c 1
 1430 279 l 1
 1459 186 1473 108 1473 43 c 0
 1473 -26 1443 -114 1384 -219 c 0
 1249 -467 994 -693 725 -805 c 1
 1024 -559 l 1
 1129 -454 1182 -334 1182 -199 c 0
 1182 -54 1172 64 1153 156 c 128
 1134 248 1106 295 1071 295 c 1
 939 171 745 59 496 59 c 0
432 356 m 1
 483 302 584 281 696 281 c 258
 797 281 l 1
 827 285 849 288 862 289 c 2
 1047 311 l 1
 1059 311 1065 315 1065 324 c 1
 1047 365 l 1
 1036 386 1033 401 1036 410 c 1
 961 555 l 1
 889 664 l 1
 829 664 l 1
 750 662 l 2
 720 662 689 658 657 651 c 0
 495 627 432 545 432 356 c 1
1143 1012 m 1
 1192 1054 1274 1152 1307 1208 c 1
 1282 1241 l 1
 1257 1262 1208 1278 1135 1290 c 0
 1133 1291 1131 1291 1129 1291 c 0
 1113 1291 1090 1276 1061 1245 c 0
 1034 1214 1019 1191 1016 1178 c 1
 1016 1155 1038 1122 1081 1079 c 1
 1143 1012 l 1
EndSplineSet
EndChar

StartChar: h
Encoding: 104 104 70
Width: 1277
Flags: HW
LayerCount: 2
Fore
SplineSet
461 532 m 1
 402 591 283 608 158 608 c 2
 -227 608 l 1
 -229 842 l 1
 975 840 l 1
 975 768 l 1
 892 678 778 577 635 465 c 0
 597 435 570 403 553 369 c 1
 543 326 l 1
 543 238 666 205 764 205 c 0
 876 205 980 239 1061 283 c 1
 1065 272 1092 262 1143 252 c 1
 1178 246 l 1
 1178 42 904 -33 674 -33 c 0
 557 -33 456 -7 371 45 c 128
 286 97 244 158 244 227 c 0
 244 252 268 294 315 354 c 1
 461 532 l 1
EndSplineSet
EndChar

StartChar: i
Encoding: 105 105 71
Width: 589
Flags: HW
LayerCount: 2
Fore
SplineSet
680 145 m 1
 644 79 568 -8 473 -8 c 0
 456 -8 441 -5 426 0 c 0
 339 26 274 83 233 170 c 0
 147 354 41 530 -86 698 c 1
 -36 698 1 700 30 712 c 128
 51 721 63 721 96 721 c 0
 182 721 245 687 285 618 c 1
 367 430 l 1
 409 359 459 302 518 258 c 1
 680 145 l 1
EndSplineSet
EndChar

StartChar: j
Encoding: 106 106 72
Width: 1101
Flags: HW
LayerCount: 2
Fore
SplineSet
381 1110 m 0
 381 1348 537 1444 791 1444 c 0
 925 1444 1014 1403 1057 1321 c 0
 1080 1275 1092 1201 1092 1100 c 0
 1092 989 988 902 903 834 c 1
 981 726 1081 494 1081 315 c 0
 1081 170 1022 68 918 24 c 128
 886 10 848 4 805 4 c 0
 659 4 519 61 385 176 c 0
 299 251 206 365 106 516 c 0
 13 658 -42 736 -61 750 c 1
 -57 761 -20 779 52 805 c 128
 124 831 174 844 201 844 c 1
 295 752 l 2
 327 720 366 692 399 659 c 1
 455 702 l 1
 501 736 563 775 616 807 c 1
 595 825 563 856 520 899 c 2
 446 973 l 1
 411 1011 381 1048 381 1110 c 0
807 211 m 0
 858 211 868 274 868 340 c 0
 868 465 807 637 739 688 c 1
 714 665 675 642 621 621 c 0
 540 587 493 566 479 557 c 1
 584 391 l 2
 609 353 648 314 702 274 c 1
 723 256 l 1
 746 238 776 211 807 211 c 0
606 1118 m 1
 627 1101 650 1078 676 1049 c 2
 784 930 l 1
 899 1010 l 1
 940 1043 960 1077 961 1114 c 1
 954 1147 l 1
 938 1204 862 1257 793 1257 c 2
 768 1257 l 2
 662 1257 620 1218 606 1118 c 1
EndSplineSet
EndChar

StartChar: k
Encoding: 107 107 73
Width: 1171
Flags: HW
LayerCount: 2
Fore
SplineSet
422 29 m 1
 422 -48 303 -72 215 -72 c 0
 155 -72 63 -22 63 37 c 1
 97 163 127 355 127 524 c 0
 127 636 124 718 121 819 c 1
 109 1063 l 1
 113 1130 l 1
 113 1192 l 1
 104 1446 l 1
 96 1716 l 1
 96 2009 134 2236 330 2304 c 1
 298 2208 272 2138 272 2030 c 0
 272 1857 382 1784 565 1784 c 1
 625 1786 l 2
 647 1786 663 1787 674 1790 c 1
 735 2028 l 1
 784 2213 921 2306 1145 2306 c 2
 1147 2306 l 2
 1191 2306 1245 2262 1309 2173 c 0
 1381 2072 1417 1968 1417 1860 c 0
 1417 1679 1368 1589 1198 1589 c 1
 1108 1595 l 1
 954 1610 l 1
 909 1608 l 1
 907 289 l 1
 915 215 930 163 951 133 c 128
 972 103 1001 88 1036 88 c 0
 1069 88 1107 103 1151 133 c 1
 1208 182 l 1
 1208 23 1062 -68 897 -68 c 0
 685 -68 637 124 637 362 c 0
 637 439 642 526 651 623 c 2
 684 1020 l 1
 684 1088 l 130
 684 1110 685 1131 688 1153 c 1
 702 1618 l 1
 654 1618 610 1614 571 1606 c 1
 508 1595 l 1
 459 1602 l 1
 381 1628 l 1
 373 1605 367 1545 367 1513 c 2
 362 1341 l 1
 365 1155 l 1
 365 1090 l 130
 365 1070 366 1047 369 1022 c 1
 369 956 381 742 381 674 c 1
 408 303 l 1
 422 29 l 1
874 1806 m 1
 985 1794 l 1
 1096 1790 l 1
 1161 1790 1224 1795 1227 1847 c 1
 1222 1892 1209 1925 1186 1982 c 2
 1159 2052 l 1
 1044 2052 920 2009 881 1946 c 1
 874 1925 l 1
 881 1898 l 1
 887 1864 l 1
 887 1846 883 1827 874 1806 c 1
EndSplineSet
EndChar

StartChar: l
Encoding: 108 108 74
Width: 892
Flags: HW
LayerCount: 2
Fore
SplineSet
119 -381 m 1
 119 -352 390 174 397 221 c 1
 371 246 l 1
 326 291 280 350 233 422 c 2
 147 557 l 1
 112 621 94 676 94 721 c 1
 100 760 l 1
 135 877 374 996 539 1020 c 1
 639 1026 l 1
 740 1026 894 1014 932 956 c 1
 893 909 836 816 763 678 c 128
 690 540 653 460 653 438 c 0
 653 426 685 386 748 319 c 1
 954 109 l 1
 954 90 928 58 876 14 c 128
 824 -30 789 -51 768 -51 c 0
 753 -51 717 -34 662 0 c 0
 597 41 545 84 506 131 c 1
 281 -266 l 1
 220 -377 141 -468 45 -539 c 1
 45 -526 57 -495 82 -446 c 1
 119 -381 l 1
377 770 m 1
 377 759 383 743 396 722 c 128
 409 701 429 673 455 639 c 0
 506 574 541 534 561 520 c 1
 649 698 l 1
 700 813 l 1
 643 846 l 2
 625 857 603 862 578 862 c 1
 528 858 l 1
 505 858 472 843 430 813 c 1
 377 770 l 1
EndSplineSet
EndChar

StartChar: m
Encoding: 109 109 75
Width: 1400
Flags: HW
LayerCount: 2
Fore
SplineSet
537 539 m 1
 583 381 649 193 756 104 c 1
 690 61 l 1
 653 42 610 33 560 33 c 2
 555 33 l 2
 511 33 471 70 434 143 c 1
 315 426 l 1
 250 565 171 690 78 799 c 1
 83 804 97 807 119 807 c 2
 170 807 l 1
 189 803 203 800 211 799 c 2
 307 788 l 1
 319 788 343 776 379 752 c 2
 434 717 l 1
 475 745 l 1
 536 790 590 837 637 885 c 1
 561 946 504 1037 504 1165 c 1
 506 1208 l 1
 514 1255 l 1
 557 1445 645 1487 883 1487 c 0
 983 1487 1068 1459 1137 1403 c 0
 1202 1351 1235 1293 1235 1229 c 0
 1235 1170 1206 1116 1149 1067 c 1
 944 946 l 1
 1034 803 l 2
 1104 693 1151 614 1210 500 c 0
 1275 371 1307 274 1307 209 c 0
 1307 92 1271 -22 1198 -133 c 0
 1098 -291 922 -438 739 -532 c 1
 802 -476 871 -413 918 -362 c 0
 1037 -228 1096 -112 1096 -14 c 0
 1096 75 1053 202 966 366 c 128
 879 530 800 642 727 702 c 1
 676 672 639 645 616 621 c 2
 537 539 l 1
920 1317 m 1
 822 1317 780 1262 780 1167 c 0
 780 1102 867 1012 913 979 c 1
 1028 1092 l 2
 1061 1124 1077 1149 1077 1167 c 0
 1077 1258 1036 1319 944 1319 c 1
 920 1317 l 1
EndSplineSet
EndChar

StartChar: n
Encoding: 110 110 76
Width: 1130
Flags: HW
LayerCount: 2
Fore
SplineSet
18 1298 m 0
 -60 1298 -102 1436 -102 1534 c 2
 -102 1540 l 2
 -102 1557 -101 1566 -98 1569 c 0
 -5 1680 50 1700 258 1700 c 0
 637 1700 906 1395 1051 1106 c 0
 1119 967 1153 853 1153 766 c 0
 1153 735 1113 657 1034 532 c 0
 943 389 855 271 772 180 c 0
 663 60 576 0 512 0 c 0
 495 0 481 4 469 12 c 0
 432 34 382 102 319 217 c 1
 152 516 l 1
 84 621 16 684 -51 705 c 1
 193 778 l 1
 217 784 l 1
 250 784 293 742 348 657 c 1
 496 420 l 1
 557 334 617 291 676 291 c 0
 720 291 757 354 788 481 c 0
 800 540 814 641 831 784 c 1
 834 825 l 1
 834 978 765 1126 627 1270 c 0
 480 1425 316 1503 135 1503 c 1
 113 1491 96 1454 84 1391 c 1
 76 1330 54 1299 18 1298 c 0
EndSplineSet
EndChar

StartChar: o
Encoding: 111 111 77
Width: 1040
Flags: HW
LayerCount: 2
Fore
SplineSet
53 250 m 0
 53 387 108 520 217 649 c 0
 332 787 460 856 602 856 c 0
 679 856 763 828 854 772 c 0
 959 708 1012 638 1012 561 c 0
 1012 402 929 269 764 162 c 0
 626 72 489 27 352 27 c 0
 322 27 269 48 193 90 c 0
 100 142 54 195 53 250 c 0
340 487 m 1
 469 336 l 2
 547 246 604 201 641 201 c 0
 654 201 680 234 718 302 c 128
 756 370 774 420 774 453 c 0
 774 474 741 519 676 588 c 0
 604 663 548 700 509 700 c 2
 508 700 l 2
 486 700 456 672 418 616 c 1
 340 487 l 1
EndSplineSet
EndChar

StartChar: p
Encoding: 112 112 78
Width: 1064
Flags: HW
LayerCount: 2
Fore
SplineSet
-14 1333 m 0
 -78 1333 -145 1321 -145 1264 c 0
 -145 1191 -96 1143 2 1120 c 1
 141 1094 l 1
 178 973 l 1
 155 958 117 946 66 938 c 1
 -94 930 l 1
 -145 930 l 2
 -214 930 -268 970 -307 1049 c 0
 -334 1108 -348 1170 -348 1237 c 0
 -348 1415 -259 1501 -80 1501 c 0
 -12 1501 75 1486 182 1456 c 0
 221 1446 283 1436 332 1421 c 1
 352 1434 l 1
 356 1475 l 1
 356 1642 l 2
 356 1660 358 1672 362 1678 c 128
 366 1684 367 1689 367 1694 c 2
 369 1780 l 1
 309 1780 l 2
 74 1780 -332 1802 -332 1978 c 0
 -332 2009 -301 2051 -240 2103 c 1
 -37 2265 l 1
 -6 2287 69 2332 186 2400 c 0
 335 2485 428 2527 465 2527 c 0
 580 2527 585 2384 586 2245 c 1
 584 2167 l 1
 584 2066 l 1
 578 2019 l 1
 565 1964 l 1
 565 1952 573 1945 590 1942 c 1
 725 1950 l 1
 932 1954 l 1
 901 2001 l 1
 880 2028 870 2045 870 2052 c 1
 851 2130 833 2209 815 2288 c 1
 815 2363 853 2427 928 2480 c 0
 1023 2544 1113 2576 1198 2576 c 0
 1411 2576 1540 2509 1540 2310 c 2
 1540 2259 l 1
 1537 2250 1536 2243 1536 2238 c 2
 1528 2175 l 1
 1528 2077 1497 1997 1434 1935 c 0
 1383 1886 1329 1862 1274 1862 c 2
 1272 1862 l 2
 1251 1862 1237 1866 1229 1874 c 1
 1221 1776 l 1
 1217 1567 l 1
 1217 1403 1157 1297 1038 1249 c 0
 973 1224 824 1212 592 1212 c 0
 570 1212 559 1144 559 1008 c 1
 553 639 l 1
 553 402 553 165 553 -72 c 1
 389 -88 l 1
 281 -78 l 1
 287 18 l 1
 299 109 l 1
 310 226 317 303 317 428 c 1
 321 606 324 783 328 961 c 1
 338 1159 l 1
 338 1216 333 1246 324 1247 c 1
 207 1290 l 1
 118 1319 45 1333 -14 1333 c 0
369 2103 m 2
 369 2116 373 2164 373 2177 c 2
 373 2206 l 2
 373 2240 367 2265 350 2290 c 1
 154 2242 -27 2142 -82 1978 c 1
 -38 1974 1 1965 35 1952 c 0
 64 1943 108 1938 168 1937 c 1
 219 1937 l 2
 238 1937 260 1939 285 1942 c 2
 373 1950 l 1
 367 2030 l 1
 369 2103 l 2
604 1800 m 1
 606 1524 l 1
 618 1450 l 1
 664 1440 l 1
 715 1432 718 1430 774 1430 c 0
 873 1430 943 1457 995 1511 c 1
 1004 1569 l 1
 1006 1624 l 1
 1006 1694 1001 1732 983 1798 c 1
 907 1788 l 1
 838 1786 l 1
 709 1792 l 1
 604 1800 l 1
1321 2171 m 0
 1321 2266 1305 2376 1223 2376 c 0
 1099 2376 1061 2326 1061 2195 c 1
 1087 2111 l 1
 1114 2007 l 1
 1236 2028 1321 2048 1321 2171 c 0
EndSplineSet
EndChar

StartChar: q
Encoding: 113 113 79
Width: 1224
Flags: HW
LayerCount: 2
Fore
SplineSet
1733 842 m 1
 1659 797 1542 717 1542 647 c 0
 1542 632 1547 619 1556 608 c 1
 1122 608 l 1
 958 594 l 1
 958 500 963 406 973 311 c 1
 1010 12 l 1
 1053 -276 l 1
 1018 -367 l 1
 993 -424 975 -454 963 -457 c 1
 898 -457 850 -352 819 -141 c 0
 796 34 784 280 784 598 c 1
 695 598 603 593 506 584 c 1
 311 571 l 1
 188 578 l 1
 137 586 120 592 66 610 c 1
 88 705 l 1
 110 742 172 813 274 918 c 0
 386 1030 493 1124 596 1200 c 0
 725 1295 821 1343 885 1343 c 0
 926 1343 952 1297 965 1204 c 1
 973 1030 l 1
 973 981 l 1
 971 907 l 2
 971 877 971 847 971 817 c 1
 993 817 l 2
 1045 817 1085 819 1112 823 c 2
 1206 840 l 1
 1733 842 l 1
344 750 m 1
 520 786 l 1
 643 809 l 1
 703 817 729 819 778 819 c 1
 772 924 l 1
 766 989 l 1
 766 1024 l 130
 766 1036 767 1050 770 1065 c 1
 570 975 465 923 344 750 c 1
EndSplineSet
EndChar

StartChar: r
Encoding: 114 114 80
Width: 1204
Flags: HW
LayerCount: 2
Fore
SplineSet
41 731 m 0
 40 734 39 736 39 739 c 0
 39 748 49 758 68 768 c 0
 109 789 162 799 229 799 c 0
 293 799 340 788 371 766 c 1
 457 678 l 1
 662 678 817 765 924 938 c 0
 1004 1069 1044 1213 1044 1370 c 0
 1044 1479 1008 1579 934 1668 c 128
 860 1757 776 1802 682 1802 c 0
 671 1802 642 1790 594 1765 c 0
 538 1735 498 1700 475 1661 c 0
 459 1634 451 1609 451 1588 c 0
 451 1571 454 1554 459 1536 c 2
 469 1497 l 1
 461 1460 l 1
 457 1448 444 1429 422 1403 c 2
 395 1372 l 1
 346 1401 314 1427 298 1451 c 128
 282 1475 274 1505 274 1540 c 2
 274 1585 l 1
 276 1636 l 1
 276 1722 322 1807 412 1891 c 128
 502 1975 588 2017 670 2017 c 0
 856 2017 998 1957 1096 1837 c 0
 1178 1736 1219 1609 1219 1456 c 0
 1219 1316 1197 1210 1165 1081 c 0
 1131 935 1092 842 1049 801 c 0
 928 688 828 612 750 575 c 0
 717 560 655 547 563 537 c 1
 657 427 704 374 772 287 c 0
 824 224 850 182 850 160 c 1
 842 143 l 1
 750 61 l 2
 673 -8 623 -43 600 -43 c 0
 591 -43 583 -38 578 -29 c 0
 530 94 489 161 410 266 c 0
 375 317 308 398 209 510 c 0
 128 601 72 675 41 731 c 0
EndSplineSet
EndChar

StartChar: s
Encoding: 115 115 81
Width: 1064
Flags: HW
LayerCount: 2
Fore
SplineSet
838 1593 m 0
 838 1778 735 1868 547 1868 c 0
 393 1868 280 1802 209 1672 c 128
 138 1542 84 1477 47 1477 c 0
 8 1477 -31 1501 -70 1548 c 0
 -103 1589 -119 1620 -119 1642 c 0
 -119 1727 -49 1822 90 1929 c 0
 205 2015 345 2058 512 2058 c 256
 826 2058 1098 1932 1098 1638 c 2
 1098 1614 l 2
 1098 1553 1094 1508 1087 1479 c 0
 1070 1384 1034 1289 977 1196 c 0
 900 1072 790 955 647 846 c 2
 418 670 l 1
 355 615 323 577 322 555 c 0
 322 518 366 467 453 401 c 0
 560 321 680 281 812 281 c 2
 815 281 l 2
 885 281 913 285 983 303 c 1
 905 172 811 85 702 43 c 0
 643 21 571 10 485 10 c 0
 436 10 348 67 223 182 c 0
 88 307 20 416 20 508 c 0
 20 658 90 772 231 850 c 1
 625 1057 l 1
 767 1172 838 1350 838 1593 c 0
EndSplineSet
EndChar

StartChar: t
Encoding: 116 116 82
Width: 1564
Flags: HW
LayerCount: 2
Fore
SplineSet
-237 1536 m 0
 -237 1559 -231 1590 -231 1612 c 0
 -231 1751 -161 1912 -20 2095 c 0
 130 2290 275 2388 414 2388 c 0
 522 2388 586 2378 586 2281 c 0
 586 2108 589 1985 592 1827 c 0
 592 1798 580 1720 580 1692 c 0
 580 1677 581 1665 582 1657 c 1
 640 1663 705 1665 772 1665 c 0
 810 1665 962 1687 989 1694 c 1
 987 1907 l 1
 987 2087 1016 2173 1102 2284 c 0
 1196 2405 1337 2466 1526 2466 c 0
 1593 2466 1663 2423 1737 2337 c 0
 1794 2268 1823 2187 1823 2093 c 0
 1823 1951 1780 1839 1694 1757 c 0
 1638 1705 1550 1664 1430 1633 c 128
 1310 1602 1242 1582 1229 1571 c 1
 1229 1504 1229 1437 1229 1370 c 0
 1229 1321 1227 1277 1227 1229 c 2
 1227 1208 l 2
 1227 1203 1224 1134 1220 1002 c 128
 1216 870 1214 746 1214 633 c 0
 1214 472 1214 372 1216 335 c 128
 1218 286 1219 209 1260 209 c 0
 1271 209 1284 213 1300 221 c 0
 1327 236 1355 251 1384 266 c 1
 1429 283 1477 291 1526 291 c 1
 1370 170 l 1
 1319 133 1274 103 1235 80 c 1
 1183 55 1150 40 1134 33 c 128
 1118 26 1100 23 1079 23 c 0
 1026 23 994 40 993 102 c 0
 993 190 997 312 999 403 c 0
 999 626 1001 852 1006 1102 c 1
 1004 1513 l 1
 937 1494 850 1483 741 1482 c 128
 632 1481 574 1479 565 1475 c 1
 551 1256 539 834 539 580 c 0
 539 551 567 246 567 215 c 0
 567 84 534 -8 411 -8 c 2
 408 -8 l 2
 317 -8 262 4 262 86 c 256
 262 121 270 163 287 211 c 0
 327 344 344 536 358 709 c 1
 373 1044 l 1
 373 1073 381 1437 381 1464 c 1
 292 1477 218 1487 141 1487 c 0
 110 1487 79 1485 37 1485 c 0
 -61 1485 -179 1485 -233 1522 c 0
 -236 1523 -237 1528 -237 1536 c 0
373 1663 m 1
 373 1704 385 1923 385 1974 c 0
 385 2049 384 2123 365 2173 c 1
 306 2150 204 2072 166 2028 c 128
 112 1966 24 1812 -12 1729 c 1
 9 1699 73 1679 182 1669 c 0
 230 1665 276 1663 319 1663 c 2
 373 1663 l 1
1225 2036 m 0
 1225 2027 1219 1883 1219 1874 c 2
 1219 1840 l 2
 1219 1799 1220 1776 1233 1741 c 1
 1397 1786 l 1
 1497 1845 1553 1883 1565 1901 c 0
 1592 1942 1606 2000 1606 2075 c 0
 1606 2165 1539 2253 1454 2253 c 0
 1405 2253 1354 2230 1302 2186 c 128
 1250 2142 1225 2092 1225 2036 c 0
EndSplineSet
EndChar

StartChar: u
Encoding: 117 117 83
Width: 1216
Flags: HW
LayerCount: 2
Fore
SplineSet
958 1391 m 0
 912 1391 876 1376 834 1376 c 0
 801 1377 776 1378 758 1378 c 0
 642 1378 585 1352 492 1300 c 1
 475 1282 462 1273 453 1274 c 0
 444 1274 439 1286 438 1311 c 0
 438 1349 454 1417 467 1464 c 1
 549 1571 710 1630 897 1630 c 0
 1051 1630 1187 1594 1305 1522 c 0
 1463 1425 1540 1299 1540 1087 c 0
 1540 761 1453 465 1311 287 c 0
 1216 170 1132 84 1059 31 c 0
 1002 -11 953 -32 913 -33 c 0
 874 -33 857 -12 840 18 c 1
 827 26 699 155 688 164 c 1
 434 29 l 2
 345 -19 289 -43 266 -43 c 0
 227 -43 182 8 133 111 c 0
 91 204 70 270 70 311 c 0
 70 450 142 577 287 692 c 0
 406 786 498 833 563 834 c 1
 715 846 l 1
 711 795 l 1
 711 743 729 664 766 557 c 128
 803 450 840 368 877 311 c 0
 896 282 912 261 924 248 c 128
 936 235 949 229 963 229 c 0
 982 229 1008 247 1038 282 c 128
 1068 317 1113 375 1174 457 c 1
 1245 589 1303 753 1303 918 c 0
 1303 1082 1265 1195 1176 1290 c 0
 1111 1357 1038 1390 958 1391 c 0
289 541 m 1
 289 473 311 401 354 326 c 0
 389 259 417 225 438 223 c 0
 520 223 579 256 610 307 c 1
 597 404 501 652 436 692 c 0
 433 693 429 694 426 694 c 0
 403 694 374 672 340 627 c 1
 289 541 l 1
EndSplineSet
EndChar

StartChar: v
Encoding: 118 118 84
Width: 1048
Flags: HW
LayerCount: 2
Fore
SplineSet
78 98 m 1
 58 102 59 109 55 139 c 1
 55 177 70 214 100 250 c 1
 319 489 l 1
 352 533 383 584 412 643 c 0
 447 717 484 754 522 754 c 0
 590 754 647 727 692 674 c 1
 829 473 l 1
 961 324 l 1
 1014 259 1040 209 1040 174 c 0
 1040 131 1027 113 987 113 c 1
 950 115 l 1
 909 119 l 1
 872 119 821 158 756 236 c 1
 561 477 l 1
 381 236 l 2
 324 159 260 121 190 121 c 0
 172 121 149 117 121 109 c 2
 78 98 l 1
EndSplineSet
EndChar

StartChar: w
Encoding: 119 119 85
Width: 1333
VWidth: 2600
Flags: HW
LayerCount: 2
Fore
SplineSet
1067 549 m 0
 1150 549 1193 595 1206 673 c 0
 1206 675 1206 677 1206 679 c 0
 1206 715 1176 815 1160 866 c 1
 1120 880 1089 886 1068 886 c 0
 1045 886 1006 872 950 842 c 0
 891 808 856 698 841 607 c 1
 1011 559 l 2
 1036 552 1054 549 1067 549 c 0
1430 756 m 0
 1445 716 1453 679 1453 646 c 0
 1453 533 1375 474 1271 453 c 1
 1006 438 l 1
 1017 263 l 1
 1023 202 1025 131 1025 61 c 1
 1021 -105 l 1
 1021 -221 984 -326 956 -420 c 0
 914 -576 886 -606 781 -720 c 0
 737 -767 679 -804 606 -829 c 0
 482 -873 420 -895 419 -895 c 0
 393 -909 329 -926 227 -947 c 0
 129 -967 -155 -1017 -266 -1032 c 1
 -239 -1023 -199 -1007 -147 -984 c 0
 -67 -949 121 -867 184 -830 c 0
 217 -811 331 -765 367 -745 c 0
 571 -626 669 -592 718 -351 c 0
 733 -279 740 -195 740 -100 c 0
 740 25 736 232 720 391 c 1
 338 453 l 1
 338 658 l 1
 685 596 l 1
 706 701 722 775 734 820 c 0
 760 918 785 977 809 996 c 0
 859 1036 906 1057 987 1057 c 0
 1017 1057 1054 1049 1097 1033 c 0
 1140 1017 1189 992 1245 961 c 0
 1336 910 1397 842 1430 756 c 0
52 497 m 1
 52 579 43 761 43 851 c 1
 300 871 l 1
 300 230 l 2
 300 189 296 174 296 161 c 0
 296 132 330 102 401 70 c 0
 447 49 478 30 495 14 c 1
 237 -55 l 1
 185 -49 147 -32 105 -10 c 1
 65 16 60 75 60 147 c 1
 52 497 l 1
EndSplineSet
EndChar

StartChar: x
Encoding: 120 120 86
Width: 1167
Flags: HW
LayerCount: 2
Fore
SplineSet
635 360 m 1
 550 275 266 23 147 23 c 0
 130 23 118 28 111 37 c 1
 88 83 66 130 43 176 c 1
 52 194 105 235 201 299 c 0
 321 380 404 440 451 481 c 0
 538 556 582 617 582 662 c 1
 584 705 l 1
 594 786 l 1
 588 838 l 1
 485 827 l 1
 391 823 l 1
 273 823 196 843 172 928 c 1
 172 965 205 988 272 996 c 128
 339 1004 399 1017 451 1036 c 1
 498 1038 l 1
 705 1036 l 2
 784 1036 856 1033 920 1028 c 1
 956 1020 l 1
 1001 1018 l 1
 1048 1018 1078 1016 1094 1013 c 128
 1110 1010 1118 996 1118 971 c 1
 1094 893 l 1
 1069 821 l 1
 1019 821 964 824 915 831 c 1
 797 842 l 1
 797 792 790 771 775 724 c 128
 766 696 762 656 762 604 c 0
 762 555 834 473 977 358 c 1
 1192 195 l 1
 1192 180 1173 145 1135 90 c 0
 1116 61 1099 46 1085 43 c 1
 1006 43 922 85 834 168 c 1
 635 360 l 1
EndSplineSet
EndChar

StartChar: y
Encoding: 121 121 87
Width: 1179
Flags: HW
LayerCount: 2
Fore
SplineSet
49 340 m 0
 49 391 110 489 231 635 c 0
 360 792 459 870 527 870 c 2
 528 870 l 2
 662 870 798 822 936 727 c 0
 1085 623 1159 513 1159 397 c 1
 1165 305 l 1
 1171 244 l 1
 1171 179 1129 102 1096 39 c 128
 1075 0 1048 -47 1014 -102 c 0
 891 -317 668 -554 465 -692 c 0
 331 -781 203 -835 82 -854 c 1
 165 -813 238 -767 301 -715 c 1
 411 -631 507 -530 590 -416 c 0
 698 -269 798 -86 889 133 c 1
 897 240 l 1
 840 167 776 110 705 68 c 0
 647 33 584 4 500 4 c 0
 445 4 359 43 240 121 c 0
 113 206 50 279 49 340 c 0
915 295 m 1
 886 409 833 585 750 586 c 0
 708 586 635 563 532 518 c 128
 429 473 376 447 373 438 c 1
 373 383 428 328 537 272 c 0
 630 223 707 199 768 199 c 2
 770 199 l 2
 845 199 891 239 915 295 c 1
EndSplineSet
EndChar

StartChar: z
Encoding: 122 122 88
Width: 1173
Flags: HW
LayerCount: 2
Fore
SplineSet
436 57 m 1
 390 22 258 8 174 8 c 0
 156 8 144 38 137 99 c 128
 130 160 124 220 119 279 c 1
 112 301 108 367 106 478 c 128
 104 589 87 706 53 827 c 1
 84 858 174 887 231 903 c 0
 233 904 235 904 237 904 c 0
 262 904 277 856 289 815 c 1
 343 808 451 797 520 797 c 0
 575 797 607 798 645 811 c 1
 645 926 667 1034 715 1098 c 128
 738 1129 780 1157 840 1181 c 128
 928 1216 950 1227 1028 1227 c 0
 1117 1227 1185 1179 1223 1124 c 0
 1254 1082 1260 1005 1260 930 c 0
 1260 857 1204 788 1159 750 c 1
 1101 714 951 699 864 688 c 1
 876 616 899 399 900 389 c 128
 903 366 912 331 926 285 c 0
 927 280 940 240 963 166 c 0
 967 153 981 131 1004 100 c 0
 1021 77 1030 53 1030 27 c 0
 1030 2 914 0 870 0 c 2
 862 -0 l 2
 825 0 748 1 748 23 c 0
 748 120 705 303 686 395 c 1
 680 462 670 666 657 666 c 2
 307 670 l 1
 307 555 324 356 348 270 c 128
 368 200 392 97 436 57 c 1
846 872 m 0
 846 855 848 838 852 819 c 1
 915 819 1047 851 1080 878 c 128
 1105 899 1120 918 1120 954 c 256
 1120 1002 1101 1034 1072 1056 c 0
 1057 1067 1044 1072 1031 1072 c 0
 1027 1072 1023 1072 1020 1071 c 0
 941 1054 906 1041 872 982 c 128
 854 952 846 915 846 872 c 0
EndSplineSet
EndChar

StartChar: braceleft
Encoding: 123 123 89
Width: 1062
Flags: HW
LayerCount: 2
Fore
SplineSet
569 -94 m 2
 569 -256 623 -335 758 -367 c 1
 624 -367 533 -345 485 -301 c 0
 438 -261 414 -175 414 -45 c 0
 414 75 414 195 414 315 c 0
 414 393 404 449 384 482 c 128
 364 515 317 544 242 569 c 1
 369 601 414 674 414 821 c 2
 414 1208 l 2
 414 1328 433 1407 502 1456 c 0
 554 1493 639 1511 758 1511 c 1
 685 1494 636 1464 610 1421 c 1
 583 1382 569 1320 569 1237 c 2
 569 852 l 2
 569 663 544 617 395 569 c 1
 496 544 545 493 561 387 c 1
 569 268 l 1
 569 -94 l 2
EndSplineSet
EndChar

StartChar: bar
Encoding: 124 124 90
Width: 442
Flags: HW
LayerCount: 2
Fore
SplineSet
150 0 m 1
 150 1511 l 1
 293 1511 l 1
 293 0 l 1
 150 0 l 1
EndSplineSet
EndChar

StartChar: braceright
Encoding: 125 125 91
Width: 1062
Flags: HW
LayerCount: 2
Fore
SplineSet
492 1237 m 2
 492 1402 447 1474 307 1511 c 1
 428 1511 513 1494 561 1460 c 1
 621 1411 651 1327 651 1208 c 2
 651 821 l 2
 651 709 670 643 735 604 c 0
 749 597 803 574 821 569 c 1
 757 553 717 530 682 487 c 1
 661 454 651 397 651 315 c 2
 651 -37 l 2
 651 -171 627 -260 580 -303 c 0
 523 -350 420 -367 307 -367 c 1
 438 -344 492 -248 492 -94 c 2
 492 268 l 2
 492 358 501 423 520 463 c 0
 545 510 595 545 672 569 c 1
 537 603 492 675 492 846 c 2
 492 1237 l 2
EndSplineSet
EndChar

StartChar: asciitilde
Encoding: 126 126 92
Width: 2213
VWidth: 2600
Flags: HW
LayerCount: 2
Fore
SplineSet
2214 9 m 1
 0 9 l 1
 0 133 l 1
 2214 133 l 1
 2214 9 l 1
EndSplineSet
EndChar

StartChar: uni007F
Encoding: 127 127 93
Width: 1034
Flags: HW
LayerCount: 2
Fore
SplineSet
0 0 m 1
 0 1034 l 1
 1034 1034 l 1
 1034 0 l 1
 0 0 l 1
EndSplineSet
EndChar

StartChar: uni0082
Encoding: 130 130 94
Width: 2129
Flags: HW
LayerCount: 2
Fore
SplineSet
1421 -238 m 0
 1421 -207 1425 -172 1430 -143 c 1
 1430 -50 1486 -7 1530 43 c 1
 1436 12 1159 -78 1059 -88 c 0
 834 -112 304 -172 139 -172 c 1
 88 -170 l 1
 -4 -160 -169 -72 -210 31 c 128
 -222 62 -229 100 -229 143 c 0
 -229 273 -219 315 -114 384 c 128
 -48 427 29 468 119 506 c 1
 166 512 264 518 319 518 c 0
 402 518 444 511 444 496 c 0
 444 489 439 483 428 477 c 1
 381 432 342 398 265 389 c 128
 230 385 185 365 129 330 c 0
 61 288 20 245 6 201 c 1
 6 173 107 84 140 64 c 128
 162 50 198 43 246 43 c 0
 313 43 399 54 463 61 c 1
 473 118 475 183 478 232 c 128
 481 280 483 332 483 391 c 1
 487 569 490 746 494 924 c 1
 504 1122 l 1
 504 1179 499 1209 489 1210 c 1
 373 1253 l 1
 284 1282 211 1296 152 1296 c 0
 87 1296 20 1285 20 1227 c 0
 20 1154 69 1106 168 1083 c 1
 307 1057 l 1
 344 936 l 1
 321 921 283 909 231 901 c 1
 72 893 l 1
 20 893 l 2
 -49 893 -103 933 -141 1012 c 0
 -168 1071 -182 1133 -182 1200 c 0
 -182 1378 -93 1464 86 1464 c 0
 154 1464 241 1449 348 1419 c 0
 387 1409 449 1399 498 1384 c 1
 518 1397 l 1
 522 1438 l 1
 522 1494 522 1550 522 1606 c 0
 522 1624 524 1636 527 1641 c 128
 530 1646 532 1652 532 1657 c 2
 535 1743 l 1
 475 1743 l 2
 240 1743 -166 1766 -166 1942 c 0
 -166 1973 -135 2015 -74 2066 c 1
 129 2228 l 1
 160 2250 235 2295 352 2363 c 0
 501 2448 594 2490 631 2490 c 0
 746 2490 751 2347 752 2208 c 1
 750 2130 l 1
 750 2030 l 1
 743 1982 l 1
 731 1927 l 1
 731 1915 739 1908 756 1905 c 1
 891 1913 l 1
 1098 1917 l 1
 1067 1964 l 1
 1046 1991 1036 2008 1036 2015 c 1
 1017 2093 999 2172 981 2251 c 1
 981 2326 1019 2390 1094 2443 c 0
 1189 2507 1279 2539 1364 2540 c 0
 1576 2540 1706 2472 1706 2273 c 2
 1706 2222 l 1
 1703 2213 1702 2206 1702 2202 c 2
 1694 2138 l 1
 1694 2040 1662 1960 1599 1898 c 0
 1548 1850 1495 1825 1441 1825 c 0
 1440 1825 1439 1825 1438 1825 c 0
 1417 1825 1403 1829 1395 1837 c 1
 1386 1739 l 1
 1382 1530 l 1
 1382 1366 1323 1260 1204 1212 c 0
 1142 1188 1001 1176 784 1176 c 2
 758 1176 l 2
 736 1176 725 1108 725 971 c 1
 719 602 l 1
 719 66 l 1
 873 66 1114 93 1221 133 c 0
 1304 164 1561 221 1671 238 c 1
 1706 255 1745 265 1786 270 c 0
 1877 281 1930 287 1944 290 c 128
 1958 293 1968 295 1972 295 c 0
 1987 295 2003 288 2019 274 c 0
 2050 249 2076 231 2095 219 c 0
 2164 177 2191 143 2191 41 c 2
 2191 8 l 2
 2191 -86 2185 -150 2173 -184 c 0
 2135 -288 1977 -395 1843 -418 c 0
 1804 -425 1741 -428 1655 -428 c 0
 1619 -428 1525 -376 1487 -354 c 128
 1443 -329 1421 -298 1421 -238 c 0
535 2066 m 2
 535 2079 539 2127 539 2140 c 2
 539 2169 l 2
 539 2202 532 2228 516 2253 c 1
 319 2205 138 2107 84 1942 c 1
 128 1938 167 1929 201 1915 c 0
 230 1906 274 1901 334 1901 c 2
 385 1901 l 2
 404 1901 426 1902 451 1905 c 2
 539 1913 l 1
 532 1993 l 1
 535 2066 l 2
770 1763 m 1
 772 1487 l 1
 784 1413 l 1
 829 1403 l 1
 880 1395 884 1393 940 1393 c 0
 1039 1393 1109 1421 1161 1475 c 1
 1169 1532 l 1
 1171 1587 l 1
 1171 1657 1167 1695 1149 1761 c 1
 1073 1751 l 1
 1004 1749 l 1
 874 1755 l 1
 770 1763 l 1
1487 2134 m 0
 1487 2229 1471 2339 1389 2339 c 0
 1265 2339 1227 2289 1227 2159 c 1
 1253 2075 l 1
 1280 1970 l 1
 1402 1991 1487 2011 1487 2134 c 0
1618 -115 m 1
 1656 -166 1695 -216 1735 -266 c 0
 1751 -284 1773 -303 1802 -303 c 0
 1819 -303 1839 -294 1862 -278 c 128
 1885 -262 1900 -254 1907 -254 c 0
 1930 -254 1943 -253 1946 -252 c 0
 1992 -223 2040 -80 2040 -51 c 0
 2040 -30 2007 15 1942 84 c 0
 1923 105 1896 131 1868 131 c 1
 1851 126 1836 123 1823 123 c 2
 1798 123 l 2
 1747 123 1718 106 1698 76 c 128
 1683 54 1633 -92 1618 -115 c 1
EndSplineSet
EndChar

StartChar: uni0083
Encoding: 131 131 95
Width: 1031
VWidth: 2600
Flags: HW
LayerCount: 2
Fore
SplineSet
978 471 m 1
 444 471 l 1
 481 369 552 173 562 124 c 128
 566 105 568 68 568 13 c 0
 568 -116 555 -224 525 -329 c 0
 462 -552 247 -780 69 -940 c 0
 -12 -1013 -56 -1049 -62 -1049 c 1
 -59 -1049 -31 -1013 22 -940 c 0
 135 -785 277 -556 320 -373 c 0
 344 -268 361 -185 361 -69 c 0
 361 101 318 277 255 428 c 0
 225 497 195 562 164 622 c 128
 133 682 118 711 116 711 c 2
 978 711 l 1
 978 471 l 1
EndSplineSet
EndChar

StartChar: uni0084
Encoding: 132 132 96
Width: 655
Flags: HW
LayerCount: 2
Fore
SplineSet
319 1604 m 1
 187 1604 56 1603 -78 1599 c 0
 -157 1599 -210 1603 -236 1612 c 128
 -262 1621 -276 1642 -276 1675 c 0
 -276 1694 -272 1720 -264 1751 c 0
 -230 1894 -161 2023 -57 2138 c 0
 62 2269 190 2335 328 2335 c 0
 432 2335 498 2287 498 2189 c 0
 498 2103 504 1958 504 1888 c 2
 504 1821 l 2
 504 1792 506 1782 537 1782 c 0
 556 1782 611 1786 635 1786 c 1
 630 1765 627 1743 627 1720 c 2
 627 1688 l 130
 627 1677 628 1666 629 1655 c 0
 629 1647 628 1633 625 1614 c 1
 585 1614 550 1612 512 1612 c 1
 505 1373 500 1112 500 842 c 1
 903 842 l 1
 895 608 l 1
 492 608 l 1
 489 580 l 1
 489 523 518 274 518 215 c 0
 518 82 481 -8 360 -8 c 2
 358 -8 l 2
 267 -8 213 4 213 86 c 0
 214 95 215 103 215 109 c 0
 224 184 250 254 274 322 c 1
 297 608 l 1
 -125 608 l 1
 -125 842 l 1
 313 842 l 1
 324 1044 l 1
 324 1195 322 1446 319 1604 c 1
303 1991 m 0
 303 2020 313 2076 313 2099 c 0
 313 2117 308 2140 299 2167 c 1
 235 2141 176 2102 122 2049 c 128
 68 1996 12 1921 -45 1823 c 1
 -5 1809 141 1800 201 1800 c 0
 229 1800 253 1798 279 1798 c 0
 304 1798 316 1806 315 1821 c 0
 315 1826 303 1985 303 1991 c 0
803 1699 m 0
 803 1657 771 1626 731 1626 c 0
 690 1626 665 1664 665 1700 c 0
 665 1732 688 1768 733 1768 c 0
 771 1768 803 1737 803 1699 c 0
971 1699 m 0
 971 1657 939 1626 899 1626 c 0
 858 1626 833 1664 833 1700 c 0
 833 1732 856 1768 901 1768 c 0
 939 1768 971 1737 971 1699 c 0
1160 1698 m 0
 1160 1656 1128 1626 1087 1626 c 0
 1046 1626 1021 1664 1021 1700 c 0
 1021 1732 1044 1768 1089 1768 c 0
 1127 1768 1160 1736 1160 1698 c 0
EndSplineSet
EndChar

StartChar: uni0085
Encoding: 133 133 97
Width: 802
Flags: HW
LayerCount: 2
Fore
SplineSet
-339 1702 m 0
 -339 1660 -371 1630 -412 1630 c 0
 -453 1630 -478 1668 -478 1704 c 0
 -478 1736 -455 1772 -410 1772 c 0
 -372 1772 -339 1740 -339 1702 c 0
-171 1703 m 0
 -171 1661 -204 1630 -244 1630 c 0
 -285 1630 -310 1668 -310 1704 c 0
 -310 1736 -287 1772 -242 1772 c 0
 -204 1772 -171 1741 -171 1703 c 0
-297 635 m 0
 -303 635 -305 714 -305 719 c 0
 -305 729 -306 749 -306 768 c 0
 -306 792 -305 815 -299 821 c 1
 -260 832 -191 838 -94 840 c 128
 3 842 74 842 119 842 c 2
 190 842 l 1
 195 888 199 970 199 1020 c 0
 204 1218 217 1572 217 1618 c 1
 154 1618 l 130
 138 1618 129 1617 125 1614 c 1
 125 1609 114 1608 91 1608 c 2
 47 1608 l 1
 50 1634 51 1664 51 1697 c 130
 51 1790 l 1
 217 1790 l 1
 217 1949 231 2054 258 2107 c 0
 317 2220 448 2277 653 2277 c 0
 702 2277 757 2245 817 2181 c 0
 891 2103 928 2011 928 1905 c 0
 928 1675 834 1600 602 1599 c 0
 576 1599 483 1604 457 1604 c 2
 416 1604 l 1
 404 1601 396 1600 391 1599 c 1
 391 1398 406 1066 406 846 c 1
 1047 842 l 1
 1078 823 1098 763 1098 713 c 0
 1098 666 1090 640 1065 618 c 1
 426 616 l 1
 422 289 l 1
 430 214 445 161 467 132 c 128
 489 103 517 88 551 88 c 256
 585 88 623 103 666 133 c 0
 685 150 704 166 723 182 c 1
 723 23 576 -68 412 -68 c 0
 203 -68 154 115 154 350 c 0
 154 429 164 546 170 614 c 1
 47 614 l 2
 -67 614 -222 615 -297 635 c 0
17 1702 m 0
 17 1660 -15 1630 -56 1630 c 0
 -97 1630 -122 1668 -122 1704 c 0
 -122 1736 -99 1772 -54 1772 c 0
 -16 1772 17 1740 17 1702 c 0
762 1919 m 0
 762 2015 693 2105 586 2105 c 2
 582 2105 l 2
 506 2105 433 2060 403 2011 c 0
 382 1974 381 1934 381 1876 c 0
 381 1853 381 1829 381 1806 c 1
 450 1799 521 1793 592 1788 c 1
 698 1788 762 1815 762 1919 c 0
EndSplineSet
EndChar

StartChar: uni0086
Encoding: 134 134 98
Width: 1048
Flags: HW
LayerCount: 2
Fore
SplineSet
270 10 m 1
 270 -39 l 2
 270 -119 266 -188 217 -188 c 0
 187 -188 133 -157 55 -96 c 0
 47 -89 42 -45 39 38 c 0
 36 121 35 225 35 352 c 0
 35 447 35 532 36 608 c 1
 -180 608 l 1
 -178 842 l 1
 39 842 l 1
 39 952 35 1363 35 1460 c 1
 227 1442 l 1
 292 1442 l 2
 315 1442 342 1443 375 1444 c 1
 401 1444 l 1
 401 1477 375 2066 375 2099 c 1
 364 2163 348 2261 348 2310 c 2
 348 2318 l 2
 348 2358 349 2390 377 2396 c 0
 433 2407 480 2412 518 2413 c 0
 555 2413 579 2406 590 2392 c 1
 595 2373 601 2354 608 2337 c 1
 661 2313 707 2315 782 2308 c 0
 844 2302 891 2296 944 2296 c 0
 986 2296 1020 2296 1036 2318 c 0
 1043 2328 1052 2338 1061 2349 c 0
 1072 2368 1085 2411 1100 2476 c 0
 1115 2541 1172 2601 1233 2646 c 1
 1403 2691 l 1
 1473 2663 1563 2630 1606 2609 c 0
 1646 2589 1652 2482 1655 2392 c 0
 1655 2317 1651 2272 1612 2210 c 0
 1593 2177 1555 2151 1498 2132 c 0
 1441 2113 1409 2099 1400 2092 c 0
 1391 2085 1368 2081 1333 2081 c 0
 1277 2081 1275 2082 1221 2095 c 1
 1221 2029 1219 1962 1219 1896 c 0
 1219 1828 1220 1720 1228 1660 c 0
 1236 1604 1243 1556 1243 1501 c 0
 1243 1420 1240 1354 1233 1302 c 0
 1223 1221 1197 1176 1124 1160 c 0
 1096 1154 1063 1151 1028 1151 c 0
 912 1151 806 1176 702 1176 c 0
 683 1176 666 1174 653 1171 c 1
 651 852 l 1
 651 842 l 1
 1208 842 l 1
 1201 608 l 1
 662 608 l 1
 675 475 692 252 692 172 c 0
 692 161 693 149 693 137 c 0
 693 113 690 92 674 92 c 0
 660 92 644 88 616 74 c 0
 555 41 515 25 498 25 c 0
 476 25 457 34 440 51 c 1
 440 608 l 1
 269 608 l 1
 270 10 l 1
1409 2503 m 0
 1327 2503 1231 2396 1231 2314 c 0
 1231 2297 1235 2282 1243 2267 c 1
 1268 2267 l 2
 1341 2267 1413 2273 1444 2314 c 0
 1477 2355 1493 2393 1493 2429 c 0
 1493 2478 1465 2503 1409 2503 c 0
637 2107 m 1
 637 2088 633 1797 633 1778 c 2
 633 1716 l 2
 633 1702 634 1677 637 1642 c 0
 637 1546 638 1510 649 1421 c 1
 913 1423 l 1
 943 1419 967 1417 985 1417 c 0
 1040 1417 1055 1441 1055 1503 c 0
 1055 1537 1051 1542 1051 1581 c 2
 1051 1676 l 2
 1051 1691 1052 1704 1053 1716 c 1
 1053 1823 l 2
 1053 1886 1047 1974 1036 2087 c 1
 1003 2087 972 2085 936 2085 c 0
 865 2085 832 2099 755 2099 c 0
 708 2099 668 2102 637 2107 c 1
269 842 m 1
 440 842 l 1
 440 1186 l 1
 268 1198 l 1
 269 842 l 1
EndSplineSet
EndChar

StartChar: uni0087
Encoding: 135 135 99
Width: 1369
Flags: HW
LayerCount: 2
Fore
SplineSet
1316 1675 m 0
 1316 1605 1308 1516 1295 1457 c 128
 1288 1424 1268 1384 1237 1338 c 128
 1175 1247 1099 1162 989 1107 c 0
 855 1041 783 1003 772 994 c 1
 887 929 924 894 991 779 c 128
 1051 676 1072 593 1072 434 c 2
 1072 406 l 2
 1072 381 1069 362 1064 347 c 0
 1048 299 978 200 946 166 c 128
 925 144 884 111 824 64 c 0
 769 22 695 -18 612 -18 c 0
 479 -18 361 7 323 100 c 128
 307 139 292 178 277 217 c 1
 328 187 372 164 408 150 c 128
 444 136 478 130 508 130 c 256
 593 130 680 188 716 232 c 0
 759 285 805 415 805 526 c 0
 805 691 686 902 525 949 c 1
 442 964 359 979 277 994 c 1
 399 1059 459 1082 611 1142 c 0
 727 1189 754 1202 850 1279 c 0
 917 1332 992 1398 1033 1477 c 0
 1059 1528 1072 1572 1072 1610 c 0
 1072 1693 1040 1740 991 1787 c 0
 916 1856 739 1905 591 1905 c 0
 563 1908 536 1909 511 1909 c 0
 339 1909 123 1849 38 1775 c 0
 -9 1734 -32 1686 -32 1629 c 0
 -32 1595 -34 1567 -39 1544 c 128
 -44 1521 -61 1475 -88 1406 c 1
 -125 1441 -149 1477 -159 1514 c 0
 -160 1518 -178 1651 -178 1697 c 0
 -178 1796 -156 1842 -118 1919 c 0
 -44 2075 145 2158 359 2193 c 0
 432 2205 500 2211 563 2211 c 0
 690 2211 841 2179 951 2144 c 0
 1062 2109 1170 2011 1237 1919 c 0
 1288 1849 1316 1788 1316 1675 c 0
EndSplineSet
EndChar

StartChar: uni0088
Encoding: 136 136 100
Width: 706
Flags: HW
LayerCount: 2
Fore
SplineSet
551 754 m 1
 558 782 571 810 571 836 c 0
 571 856 549 918 549 922 c 1
 504 852 485 839 414 795 c 0
 373 774 302 752 246 752 c 0
 184 752 128 781 99 804 c 128
 74 824 52 852 35 889 c 0
 -7 982 -28 1049 -29 1090 c 0
 -29 1159 -14 1220 18 1272 c 128
 64 1348 195 1466 298 1512 c 128
 338 1530 371 1538 397 1538 c 256
 423 1538 444 1532 461 1520 c 0
 562 1446 589 1395 655 1264 c 0
 698 1177 720 1073 735 944 c 1
 723 880 697 827 657 786 c 0
 624 752 595 735 569 735 c 0
 557 735 551 741 551 754 c 1
170 1262 m 1
 170 1130 218 956 338 956 c 0
 392 956 458 1008 481 1040 c 0
 502 1069 512 1102 512 1139 c 0
 512 1248 413 1403 375 1430 c 0
 367 1433 359 1434 352 1434 c 0
 327 1434 302 1424 276 1403 c 0
 241 1374 205 1327 170 1262 c 1
EndSplineSet
EndChar

StartChar: uni0089
Encoding: 137 137 101
Width: 1171
Flags: HW
LayerCount: 2
Fore
SplineSet
874 1806 m 1
 985 1794 l 1
 1096 1790 l 1
 1161 1790 1224 1795 1227 1847 c 1
 1222 1892 1209 1925 1186 1982 c 2
 1159 2052 l 1
 1044 2052 920 2009 881 1946 c 1
 874 1925 l 1
 881 1898 l 1
 887 1864 l 1
 887 1846 883 1827 874 1806 c 1
422 29 m 1
 422 -48 303 -72 215 -72 c 0
 155 -72 63 -22 63 37 c 1
 97 163 127 355 127 524 c 0
 127 636 124 718 121 819 c 1
 109 1063 l 1
 111 1103 l 1
 -190 1104 l 1
 -188 1338 l 1
 108 1337 l 1
 104 1446 l 1
 96 1716 l 1
 96 2009 134 2236 330 2304 c 1
 298 2208 272 2138 272 2030 c 0
 272 1857 382 1784 565 1784 c 1
 625 1786 l 2
 647 1786 663 1787 674 1790 c 1
 735 2028 l 1
 784 2213 921 2306 1145 2306 c 2
 1147 2306 l 2
 1191 2306 1245 2262 1309 2173 c 0
 1381 2072 1417 1968 1417 1860 c 0
 1417 1679 1368 1589 1198 1589 c 1
 1108 1595 l 1
 954 1610 l 1
 909 1608 l 1
 907 289 l 1
 915 215 930 163 951 133 c 0
 972 103 1001 88 1036 88 c 0
 1069 88 1107 103 1151 133 c 1
 1208 182 l 1
 1208 23 1062 -68 897 -68 c 0
 685 -68 637 124 637 362 c 0
 637 439 642 526 651 623 c 0
 651 628 651 633 651 638 c 0
 651 877 536 1059 365 1090 c 1
 365 1070 366 1047 369 1022 c 0
 369 956 381 742 381 674 c 1
 408 303 l 1
 422 29 l 1
381 1628 m 1
 373 1605 367 1545 367 1513 c 2
 362 1341 l 1
 362 1337 l 1
 694 1336 l 1
 702 1618 l 1
 654 1618 610 1614 571 1606 c 1
 508 1595 l 1
 459 1602 l 1
 381 1628 l 1
EndSplineSet
EndChar

StartChar: uni008A
Encoding: 138 138 102
Width: 1450
Flags: HW
LayerCount: 2
Fore
SplineSet
490 -380 m 1
 458 -410 392 -427 329 -427 c 0
 214 -427 115 -384 67 -319 c 0
 37 -281 23 -245 23 -211 c 0
 23 -156 73 -100 175 -43 c 128
 277 14 380 71 483 127 c 1
 607 205 687 291 726 385 c 0
 740 420 748 451 748 481 c 0
 748 555 681 621 546 679 c 0
 326 774 201 832 171 852 c 0
 36 943 -30 1069 -30 1226 c 0
 -30 1401 47 1541 203 1646 c 0
 341 1739 502 1786 685 1786 c 0
 855 1786 981 1771 1062 1741 c 0
 1225 1681 1354 1515 1354 1281 c 0
 1354 1167 1317 1068 1266 1001 c 1
 1236 1026 1222 1095 1222 1207 c 128
 1222 1319 1202 1401 1162 1452 c 0
 1098 1533 972 1574 782 1574 c 0
 474 1574 310 1517 193 1332 c 0
 171 1298 160 1265 160 1232 c 0
 160 1158 234 1088 382 1019 c 1
 519 961 657 901 795 843 c 1
 943 769 1017 689 1017 603 c 0
 1017 493 962 378 852 258 c 0
 790 190 682 96 527 -24 c 0
 398 -124 324 -193 305 -231 c 0
 302 -236 301 -241 301 -245 c 0
 301 -264 329 -291 386 -323 c 0
 431 -348 465 -366 490 -380 c 1
EndSplineSet
EndChar

StartChar: uni008B
Encoding: 139 139 103
Width: 888
Flags: HW
LayerCount: 2
Fore
SplineSet
358 143 m 0
 358 199 354 552 354 608 c 1
 -76 608 l 1
 -76 842 l 1
 362 842 l 1
 362 1015 356 1092 350 1257 c 0
 350 1295 353 1316 358 1321 c 0
 392 1349 438 1376 494 1376 c 0
 536 1376 573 1358 604 1321 c 0
 611 1314 615 1266 618 1174 c 128
 621 1082 623 971 623 842 c 1
 1004 842 l 1
 995 608 l 1
 621 608 l 1
 621 405 618 290 614 123 c 1
 614 -180 641 -432 666 -717 c 1
 666 -798 655 -860 608 -888 c 128
 588 -900 570 -907 555 -907 c 0
 494 -907 447 -829 414 -672 c 0
 377 -496 359 -224 358 143 c 0
EndSplineSet
EndChar

StartChar: uni008C
Encoding: 140 140 104
Width: 706
Flags: HW
LayerCount: 2
Fore
SplineSet
-147 1483 m 0
 -147 1535 -110 1596 -35 1665 c 0
 22 1718 91 1745 170 1745 c 0
 360 1745 608 1682 700 1585 c 0
 807 1478 883 1381 883 1202 c 0
 883 1143 874 1090 856 1044 c 128
 838 998 799 937 740 862 c 128
 640 736 473 653 254 653 c 0
 164 653 123 658 55 678 c 0
 -10 693 -61 788 -61 866 c 0
 -61 901 -50 919 -27 920 c 0
 -20 920 -13 918 -4 913 c 0
 43 892 164 881 236 881 c 0
 326 881 472 923 518 963 c 0
 566 1004 598 1041 616 1076 c 128
 634 1111 643 1151 643 1196 c 0
 643 1328 609 1387 499 1461 c 128
 416 1516 329 1544 238 1544 c 0
 194 1544 157 1538 127 1526 c 0
 110 1521 97 1496 87 1454 c 128
 71 1387 18 1352 -51 1352 c 0
 -115 1352 -147 1396 -147 1483 c 0
EndSplineSet
EndChar

StartChar: uni008D
Encoding: 141 141 105
Width: 1064
Flags: HW
LayerCount: 2
Fore
SplineSet
575 2125 m 0
 575 2133 574 2143 574 2152 c 0
 574 2194 616 2236 664 2236 c 0
 714 2236 776 2193 781 2150 c 128
 785 2110 788 2093 788 2050 c 2
 788 2019 l 1
 828 2007 883 1982 922 1960 c 0
 1039 1886 1098 1779 1098 1638 c 2
 1098 1614 l 2
 1098 1553 1094 1508 1087 1479 c 0
 1048 1256 921 1090 768 946 c 1
 768 860 l 2
 768 587 763 421 760 162 c 1
 800 162 821 156 850 139 c 1
 847 93 845 43 815 43 c 0
 807 43 767 53 758 53 c 1
 758 -21 741 -56 678 -66 c 1
 644 -66 636 -13 631 25 c 1
 583 16 534 11 485 10 c 0
 436 10 348 67 223 182 c 0
 88 307 20 416 20 508 c 0
 20 658 90 772 231 850 c 1
 594 1040 l 1
 594 1191 573 1704 573 1866 c 1
 547 1868 l 1
 393 1868 280 1802 209 1672 c 128
 138 1542 84 1477 47 1477 c 0
 8 1477 -31 1501 -70 1548 c 0
 -103 1589 -119 1620 -119 1642 c 0
 -119 1727 -49 1822 90 1929 c 0
 205 2015 345 2058 512 2058 c 1
 567 2056 l 1
 567 2082 575 2096 575 2125 c 0
322 555 m 0
 322 458 375 363 429 320 c 128
 486 274 535 234 604 201 c 1
 604 313 596 674 596 807 c 1
 418 670 l 1
 355 615 323 577 322 555 c 0
768 1243 m 1
 815 1343 838 1460 838 1593 c 0
 838 1674 818 1738 778 1786 c 1
 768 1243 l 1
EndSplineSet
EndChar

StartChar: uni008E
Encoding: 142 142 106
Width: 802
Flags: HW
LayerCount: 2
Fore
SplineSet
-395 1618 m 1
 -245 1696 38 1837 113 1864 c 0
 150 1875 189 1894 231 1921 c 0
 265 1943 288 1954 299 1954 c 0
 311 1954 322 1947 332 1932 c 128
 342 1917 354 1886 371 1841 c 2
 520 1442 l 1
 597 1163 690 887 727 633 c 0
 731 604 733 574 733 541 c 0
 733 416 711 296 668 182 c 0
 617 52 552 -29 471 -61 c 0
 453 -68 440 -71 432 -72 c 0
 419 -72 412 -64 412 -49 c 0
 412 -8 473 101 496 147 c 0
 545 247 569 374 569 518 c 0
 569 681 538 847 489 989 c 0
 428 1179 370 1337 317 1462 c 0
 273 1563 235 1636 203 1679 c 1
 72 1652 -19 1626 -70 1602 c 0
 -164 1557 -211 1496 -211 1419 c 2
 -211 1401 l 1
 -239 1427 -336 1546 -395 1618 c 1
EndSplineSet
EndChar

StartChar: uni008F
Encoding: 143 143 107
Width: 1204
Flags: HW
LayerCount: 2
Fore
SplineSet
799 113 m 0
 860 113 926 137 971 137 c 0
 994 137 1005 126 1006 104 c 0
 1006 63 973 19 948 -4 c 128
 912 -38 845 -49 772 -49 c 0
 722 -49 652 -39 621 -23 c 0
 532 24 437 186 408 298 c 128
 380 408 305 517 217 559 c 0
 204 566 189 569 172 569 c 0
 116 569 57 518 18 492 c 1
 13 492 8 495 4 502 c 0
 -12 534 -20 565 -20 596 c 0
 -20 598 -20 600 -20 602 c 0
 -20 631 -12 657 4 680 c 1
 46 725 65 763 119 782 c 128
 150 793 186 799 225 799 c 0
 251 799 294 788 354 766 c 0
 403 748 451 734 498 723 c 1
 606 723 690 737 751 766 c 128
 812 795 868 852 920 938 c 0
 1000 1069 1040 1212 1040 1368 c 0
 1040 1370 1040 1372 1040 1374 c 0
 1040 1481 1004 1579 930 1668 c 128
 856 1757 772 1802 678 1802 c 0
 667 1802 638 1790 590 1765 c 0
 534 1735 494 1700 471 1661 c 0
 454 1632 446 1607 446 1585 c 0
 446 1570 449 1553 455 1536 c 1
 465 1497 l 1
 457 1460 l 1
 453 1448 440 1429 418 1403 c 2
 391 1372 l 1
 342 1401 310 1427 294 1451 c 128
 278 1475 270 1505 270 1540 c 2
 270 1585 l 1
 272 1636 l 1
 272 1722 318 1807 408 1891 c 128
 498 1975 584 2017 666 2017 c 0
 852 2017 994 1957 1092 1837 c 0
 1173 1736 1214 1609 1214 1456 c 0
 1214 1316 1193 1210 1161 1081 c 0
 1127 935 1088 842 1044 801 c 0
 923 688 823 612 745 575 c 0
 737 571 715 567 678 563 c 0
 566 551 505 544 494 541 c 1
 518 498 598 314 604 303 c 0
 635 243 663 199 686 170 c 0
 716 133 744 115 770 115 c 0
 783 114 793 113 799 113 c 0
EndSplineSet
EndChar

StartChar: uni0090
Encoding: 144 144 108
Width: 1204
Flags: HW
LayerCount: 2
Fore
SplineSet
973 1415 m 0
 973 1643 851 1761 621 1761 c 0
 450 1761 304 1713 178 1644 c 128
 88 1594 33 1542 12 1488 c 128
 -9 1434 -28 1396 -42 1375 c 128
 -56 1354 -69 1343 -80 1343 c 0
 -101 1343 -116 1394 -123 1411 c 1
 -131 1423 -135 1446 -135 1479 c 0
 -135 1595 -106 1670 -61 1769 c 1
 39 1854 132 1890 287 1942 c 0
 381 1973 620 2007 741 2007 c 0
 826 2007 902 1984 971 1937 c 0
 1038 1892 1183 1754 1206 1646 c 128
 1214 1606 1219 1543 1219 1456 c 0
 1219 1275 1151 1032 1062 948 c 128
 1020 908 980 871 942 834 c 1
 885 800 789 742 655 659 c 1
 730 626 784 601 817 582 c 0
 861 557 894 531 915 502 c 0
 940 470 946 410 946 348 c 0
 946 300 941 253 938 207 c 1
 920 158 l 1
 965 158 992 161 999 166 c 1
 996 188 995 208 995 225 c 0
 995 352 1027 507 1056 624 c 128
 1093 775 1147 827 1274 899 c 0
 1313 922 1359 934 1411 934 c 0
 1575 934 1647 811 1647 641 c 0
 1647 530 1622 426 1571 328 c 1
 1546 300 1477 212 1425 152 c 1
 1323 95 1183 27 1085 14 c 1
 1010 -3 927 -12 842 -12 c 1
 800 -101 773 -156 762 -178 c 0
 735 -231 712 -270 694 -293 c 0
 559 -470 424 -616 258 -776 c 0
 201 -832 167 -863 156 -868 c 1
 171 -831 186 -795 201 -760 c 1
 284 -644 368 -529 451 -414 c 0
 570 -246 656 -110 711 -6 c 1
 639 2 l 2
 597 7 518 30 401 70 c 0
 260 118 144 168 53 219 c 0
 -66 286 -125 348 -125 406 c 0
 -125 433 -113 459 -89 482 c 128
 -65 505 -24 528 33 551 c 0
 44 555 49 552 49 541 c 0
 48 524 47 510 47 498 c 0
 47 401 121 355 199 326 c 0
 310 282 522 202 635 178 c 0
 701 163 711 160 780 160 c 1
 788 189 792 215 793 240 c 0
 793 249 792 256 791 260 c 0
 783 305 745 356 678 412 c 0
 597 480 515 514 430 514 c 0
 360 514 326 500 276 471 c 1
 251 496 230 520 212 544 c 128
 194 568 186 587 186 600 c 0
 186 612 194 620 209 625 c 0
 269 637 335 673 408 733 c 0
 457 774 501 806 539 831 c 1
 676 943 753 1005 858 1059 c 1
 913 1161 972 1302 973 1415 c 0
1491 588 m 0
 1491 722 1458 776 1364 776 c 0
 1341 776 1319 764 1298 739 c 0
 1273 709 1243 654 1206 575 c 0
 1181 521 1171 339 1171 254 c 0
 1171 219 1172 199 1174 195 c 1
 1230 200 1279 221 1322 257 c 128
 1365 293 1409 351 1454 432 c 0
 1453 435 1455 449 1462 475 c 0
 1481 543 1491 581 1491 588 c 0
EndSplineSet
EndChar

StartChar: uni0091
Encoding: 145 145 109
Width: 770
Flags: HW
LayerCount: 2
Fore
SplineSet
-29 639 m 0
 -29 677 -25 710 -16 737 c 1
 -16 825 l 2
 -16 1001 16 1138 119 1194 c 0
 161 1216 223 1227 305 1227 c 0
 459 1227 826 1158 826 1020 c 0
 826 1016 826 1011 825 1006 c 0
 818 968 771 913 682 840 c 0
 596 770 384 630 258 549 c 1
 258 377 315 203 436 168 c 0
 451 164 464 162 475 162 c 0
 501 162 531 176 565 205 c 128
 594 230 620 241 644 241 c 0
 648 241 653 241 657 240 c 1
 653 205 642 174 626 149 c 128
 607 119 510 26 434 7 c 128
 405 0 375 -4 344 -4 c 0
 233 -4 126 43 82 100 c 0
 59 131 39 185 24 260 c 128
 -2 389 -27 519 -29 639 c 0
233 721 m 0
 234 686 237 664 242 655 c 1
 359 772 360 772 430 842 c 128
 477 889 509 917 526 924 c 1
 519 937 513 952 508 967 c 1
 451 1020 394 1047 338 1047 c 1
 299 1018 277 1002 272 997 c 0
 248 970 233 799 233 721 c 0
EndSplineSet
EndChar

StartChar: uni0092
Encoding: 146 146 110
Width: 1048
Flags: HW
LayerCount: 2
Fore
SplineSet
270 10 m 1
 270 -39 l 2
 270 -119 266 -188 217 -188 c 0
 187 -188 133 -157 55 -96 c 0
 47 -89 42 -45 39 38 c 128
 36 121 35 225 35 352 c 0
 35 518 36 670 39 817 c 0
 39 902 35 1370 35 1460 c 1
 227 1442 l 1
 292 1442 l 130
 315 1442 342 1443 375 1444 c 1
 401 1444 l 1
 401 1477 375 2066 375 2099 c 1
 364 2163 348 2261 348 2310 c 2
 348 2318 l 2
 348 2358 349 2390 377 2396 c 0
 433 2407 480 2412 518 2413 c 0
 555 2413 579 2406 590 2392 c 1
 595 2373 601 2354 608 2337 c 1
 661 2313 707 2315 782 2308 c 128
 844 2302 891 2296 944 2296 c 0
 986 2296 1020 2296 1036 2318 c 128
 1043 2328 1052 2338 1061 2349 c 1
 1072 2368 1085 2411 1100 2476 c 0
 1115 2541 1172 2601 1233 2646 c 1
 1403 2691 l 1
 1473 2663 1563 2630 1606 2609 c 128
 1646 2589 1652 2482 1655 2392 c 0
 1655 2317 1651 2272 1612 2210 c 0
 1593 2177 1555 2151 1498 2132 c 128
 1441 2113 1409 2099 1400 2092 c 128
 1391 2085 1368 2081 1333 2081 c 0
 1277 2081 1275 2082 1221 2095 c 1
 1221 2029 1219 1962 1219 1896 c 0
 1219 1828 1220 1720 1228 1660 c 128
 1236 1604 1243 1556 1243 1501 c 0
 1243 1420 1240 1354 1233 1302 c 128
 1223 1221 1197 1176 1124 1160 c 128
 1096 1154 1063 1151 1028 1151 c 0
 912 1151 806 1176 702 1176 c 0
 683 1176 666 1174 653 1171 c 1
 651 852 l 1
 662 608 l 1
 675 475 692 252 692 172 c 0
 692 161 693 149 693 137 c 0
 693 113 690 92 674 92 c 0
 660 92 644 88 616 74 c 0
 555 41 515 25 498 25 c 0
 476 25 457 34 440 51 c 1
 440 1186 l 1
 268 1198 l 1
 270 10 l 1
637 2107 m 1
 637 2088 633 1797 633 1778 c 2
 633 1716 l 130
 633 1702 634 1677 637 1642 c 1
 637 1546 638 1510 649 1421 c 1
 913 1423 l 1
 943 1419 967 1417 985 1417 c 0
 1040 1417 1055 1441 1055 1503 c 0
 1055 1537 1051 1542 1051 1581 c 130
 1051 1676 l 130
 1051 1691 1052 1704 1053 1716 c 1
 1053 1823 l 2
 1053 1886 1047 1974 1036 2087 c 1
 1003 2087 972 2085 936 2085 c 0
 865 2085 832 2099 755 2099 c 128
 708 2099 668 2102 637 2107 c 1
1409 2503 m 0
 1327 2503 1231 2396 1231 2314 c 0
 1231 2297 1235 2282 1243 2267 c 1
 1268 2267 l 2
 1341 2267 1413 2273 1444 2314 c 0
 1477 2355 1493 2393 1493 2429 c 0
 1493 2478 1465 2503 1409 2503 c 0
EndSplineSet
EndChar

StartChar: uni0093
Encoding: 147 147 111
Width: 802
Flags: HW
LayerCount: 2
Fore
SplineSet
-246 1589 m 1
 -246 1661 -224 1722 -207 1784 c 1
 -188 1800 -94 1819 -57 1819 c 0
 -39 1819 -10 1818 -16 1798 c 0
 -39 1738 -68 1655 -68 1597 c 0
 -68 1566 -61 1520 -48 1502 c 128
 -41 1492 -21 1487 12 1487 c 0
 142 1487 227 1495 311 1532 c 0
 334 1541 392 1593 486 1686 c 128
 582 1781 630 1830 649 1830 c 0
 673 1830 714 1788 770 1704 c 128
 831 1613 870 1537 885 1477 c 1
 848 1273 753 737 741 674 c 0
 707 480 690 382 690 381 c 0
 690 333 696 269 707 188 c 0
 714 151 721 115 729 78 c 1
 721 67 713 56 705 45 c 1
 620 7 551 -12 498 -12 c 0
 487 -12 480 -10 477 -6 c 0
 443 75 426 172 426 285 c 0
 426 428 454 597 510 791 c 1
 564 942 624 1157 625 1300 c 1
 615 1384 622 1418 561 1464 c 1
 482 1396 379 1351 254 1329 c 0
 181 1317 68 1311 -86 1311 c 0
 -116 1311 -149 1340 -184 1398 c 128
 -219 1456 -239 1520 -246 1589 c 1
EndSplineSet
EndChar

StartChar: uni0094
Encoding: 148 148 112
Width: 1056
Flags: HW
LayerCount: 2
Fore
SplineSet
229 1800 m 1
 4 1800 -315 1818 -315 1977 c 0
 -315 2010 -285 2050 -223 2103 c 1
 -20 2265 l 1
 11 2287 86 2332 203 2400 c 0
 352 2485 444 2527 481 2527 c 0
 596 2527 602 2385 602 2245 c 1
 600 2167 l 1
 600 2066 l 1
 598 1942 l 1
 948 1946 l 1
 930 1992 912 2038 895 2085 c 1
 864 2177 l 1
 831 2288 l 1
 831 2363 869 2427 944 2480 c 0
 1039 2544 1129 2576 1214 2576 c 0
 1427 2576 1556 2509 1556 2310 c 2
 1556 2259 l 1
 1553 2250 1552 2243 1552 2238 c 2
 1544 2175 l 1
 1544 2072 1498 1988 1407 1923 c 0
 1342 1878 1281 1855 1225 1855 c 2
 1206 1855 l 1
 1231 1737 l 1
 1241 1624 l 1
 1241 1398 1145 1311 934 1286 c 1
 871 1286 686 1278 608 1278 c 0
 591 1278 582 1232 582 1139 c 0
 582 1134 582 1129 582 1124 c 2
 578 850 l 1
 1372 842 l 1
 1364 608 l 1
 -223 608 l 1
 -223 842 l 1
 367 842 l 1
 367 956 l 1
 369 1087 l 1
 369 1208 l 1
 366 1230 365 1245 365 1253 c 0
 365 1295 359 1318 348 1321 c 2
 254 1350 l 1
 181 1368 121 1378 73 1378 c 2
 66 1378 l 2
 -6 1378 -88 1362 -88 1296 c 0
 -88 1223 -39 1176 59 1153 c 1
 199 1126 l 1
 219 1047 l 1
 196 1032 166 1020 129 1012 c 1
 23 1004 l 1
 -14 1004 l 2
 -88 1004 -150 1035 -201 1098 c 0
 -238 1144 -266 1189 -266 1262 c 0
 -266 1468 -157 1560 49 1561 c 0
 112 1561 181 1554 256 1540 c 128
 326 1527 368 1520 379 1520 c 2
 381 1520 l 1
 393 1804 l 1
 317 1802 l 1
 229 1800 l 1
-66 1978 m 1
 -22 1974 17 1965 51 1952 c 0
 80 1943 124 1938 184 1937 c 1
 242 1935 l 1
 297 1935 l 1
 406 1942 l 1
 397 2105 l 1
 397 2196 387 2258 367 2290 c 1
 171 2242 -11 2143 -66 1978 c 1
602 1559 m 1
 604 1538 l 1
 610 1499 l 1
 668 1487 l 1
 713 1479 758 1475 801 1475 c 0
 910 1475 969 1487 1028 1552 c 1
 1014 1624 l 1
 1006 1686 999 1738 999 1806 c 1
 897 1798 l 1
 829 1796 l 1
 754 1797 679 1799 604 1800 c 1
 604 1604 l 1
 602 1559 l 1
1239 2376 m 0
 1115 2376 1077 2326 1077 2195 c 0
 1077 2170 1086 2140 1104 2103 c 2
 1147 2015 l 1
 1264 2056 l 1
 1313 2077 1337 2115 1337 2171 c 0
 1337 2266 1321 2376 1239 2376 c 0
EndSplineSet
EndChar

StartChar: uni0095
Encoding: 149 149 113
Width: 1695
Flags: HW
LayerCount: 2
Fore
SplineSet
1217 272 m 0
 1251 272 1330 252 1348 252 c 0
 1412 252 1448 282 1481 326 c 0
 1492 339 1499 353 1499 375 c 0
 1499 390 1494 410 1483 434 c 0
 1448 513 1427 565 1420 588 c 128
 1405 639 1375 639 1305 639 c 0
 1237 639 1169 637 1104 637 c 0
 994 637 838 611 717 584 c 1
 688 581 660 579 631 578 c 1
 604 573 590 555 590 526 c 0
 590 517 591 509 592 504 c 0
 603 440 608 383 608 332 c 0
 608 289 606 260 596 231 c 0
 560 130 500 -2 399 -2 c 0
 388 -2 380 -1 375 0 c 0
 307 8 233 45 152 111 c 0
 37 206 12 283 12 428 c 0
 12 591 60 683 162 748 c 1
 205 791 252 821 324 821 c 0
 340 821 389 817 406 817 c 0
 425 817 443 820 459 825 c 1
 466 824 473 823 482 823 c 130
 512 823 l 2
 629 823 888 848 1059 868 c 0
 1076 868 1106 872 1151 879 c 0
 1270 897 1335 915 1346 932 c 0
 1379 982 1452 997 1550 997 c 1
 1597 933 1613 866 1649 754 c 0
 1676 668 1695 608 1704 573 c 0
 1722 513 1731 467 1731 434 c 0
 1731 378 1712 328 1674 282 c 128
 1636 236 1587 169 1524 81 c 128
 1461 -7 1430 -55 1430 -63 c 0
 1430 -81 1307 -90 1280 -90 c 0
 1228 -90 1191 -85 1169 -57 c 0
 1141 -22 1124 27 1124 84 c 0
 1124 134 1142 197 1163 246 c 1
 1175 264 1193 273 1217 272 c 0
EndSplineSet
EndChar

StartChar: uni0096
Encoding: 150 150 114
Width: 1802
Flags: HW
LayerCount: 2
Fore
SplineSet
627 862 m 1
 694 850 722 844 793 844 c 2
 1827 842 l 1
 1812 834 1797 789 1784 707 c 128
 1771 625 1759 541 1747 455 c 1
 1729 414 1703 387 1651 387 c 0
 1608 387 1611 390 1574 402 c 128
 1533 416 1501 507 1501 565 c 0
 1501 578 1503 593 1507 608 c 1
 758 608 l 2
 678 608 394 559 383 498 c 0
 382 492 382 486 382 480 c 0
 382 426 415 379 484 337 c 128
 560 291 668 268 809 268 c 0
 878 268 945 273 1008 283 c 1
 979 206 902 141 776 88 c 0
 664 43 557 20 455 20 c 2
 434 20 l 1
 425 23 419 24 416 25 c 0
 348 33 274 70 193 135 c 0
 99 213 52 297 51 387 c 1
 53 412 l 1
 53 430 70 460 104 502 c 0
 148 557 202 607 266 653 c 1
 362 749 480 824 627 862 c 1
EndSplineSet
EndChar

StartChar: uni0097
Encoding: 151 151 115
Width: 1048
Flags: HW
LayerCount: 2
Fore
SplineSet
-492 1577 m 0
 -492 1789 -370 1944 -215 2013 c 1
 -244 2096 -272 2152 -301 2181 c 0
 -316 2194 -337 2201 -362 2202 c 0
 -419 2202 -463 2178 -498 2150 c 128
 -518 2134 -534 2099 -547 2046 c 1
 -556 1986 -562 1948 -564 1934 c 128
 -566 1920 -571 1913 -578 1913 c 0
 -596 1913 -606 1953 -606 2032 c 2
 -606 2073 l 1
 -603 2090 -601 2109 -599 2130 c 128
 -597 2151 -574 2180 -530 2218 c 128
 -486 2256 -438 2281 -387 2292 c 0
 -383 2293 -376 2294 -367 2294 c 0
 -332 2294 -292 2280 -247 2251 c 128
 -167 2200 -177 2179 -137 2101 c 0
 -125 2076 -116 2059 -111 2048 c 1
 -25 2068 69 2075 178 2075 c 0
 243 2074 318 2071 403 2064 c 1
 385 2400 l 1
 505 2400 727 2413 829 2413 c 0
 833 2413 865 2409 924 2402 c 128
 983 2395 1028 2392 1059 2392 c 0
 1108 2392 1134 2399 1135 2413 c 0
 1142 2465 1149 2517 1157 2568 c 1
 1180 2673 1261 2730 1386 2730 c 0
 1469 2730 1545 2694 1606 2652 c 1
 1644 2592 1679 2516 1679 2441 c 0
 1679 2358 1653 2312 1606 2265 c 0
 1537 2198 1482 2187 1348 2187 c 1
 1348 2151 1372 1973 1372 1935 c 0
 1372 1835 1345 1815 1241 1815 c 0
 1183 1815 1069 1826 1016 1833 c 1
 1016 1771 1018 1710 1026 1656 c 128
 1033 1610 1040 1556 1040 1507 c 0
 1040 1426 1037 1360 1030 1308 c 128
 1023 1256 1008 1220 984 1197 c 128
 960 1174 936 1163 913 1163 c 0
 881 1163 847 1173 817 1180 c 0
 739 1189 713 1192 647 1192 c 0
 634 1192 617 1189 598 1184 c 1
 596 864 l 1
 600 602 l 1
 606 470 608 320 608 172 c 0
 608 87 607 22 604 -23 c 1
 599 -50 593 -77 588 -104 c 1
 586 -104 584 -104 582 -104 c 0
 557 -104 489 -113 475 -113 c 0
 423 -113 402 -98 373 -66 c 1
 360 1186 l 1
 201 1198 l 1
 201 1091 200 971 200 846 c 0
 200 552 204 234 227 16 c 0
 228 11 229 4 229 -4 c 130
 229 -29 l 2
 229 -97 217 -162 152 -162 c 0
 135 -162 116 -158 95 -148 c 128
 74 -138 48 -121 18 -96 c 0
 10 -89 5 -45 2 38 c 128
 -1 121 -2 225 -2 352 c 0
 -2 518 -1 670 2 817 c 1
 4 1460 l 1
 227 1442 l 1
 244 1442 404 1438 420 1438 c 1
 414 1545 403 1787 403 1892 c 1
 323 1892 124 1902 113 1903 c 1
 20 1903 l 1
 -9 1899 -30 1896 -43 1894 c 1
 -15 1825 2 1764 2 1675 c 0
 2 1535 -82 1402 -150 1362 c 0
 -189 1339 -252 1327 -338 1327 c 0
 -443 1327 -492 1463 -492 1577 c 0
-352 1606 m 0
 -352 1597 -351 1590 -350 1585 c 0
 -329 1526 -305 1497 -276 1497 c 0
 -257 1497 -236 1510 -215 1536 c 0
 -204 1549 -186 1576 -160 1616 c 0
 -151 1631 -146 1657 -145 1692 c 0
 -145 1735 -153 1793 -170 1866 c 1
 -209 1844 -249 1804 -290 1747 c 128
 -331 1690 -352 1643 -352 1606 c 0
823 2028 m 1
 823 2074 826 2110 829 2152 c 0
 829 2171 828 2187 827 2198 c 1
 618 2193 l 1
 618 2040 l 1
 666 2035 770 2028 823 2028 c 1
846 1503 m 0
 846 1537 842 1542 842 1581 c 130
 842 1676 l 130
 842 1691 843 1704 844 1716 c 1
 840 1860 l 2
 840 1864 793 1869 698 1876 c 0
 683 1876 661 1877 631 1880 c 1
 631 1825 l 2
 631 1760 632 1695 637 1642 c 1
 637 1546 638 1510 649 1421 c 1
 705 1423 l 1
 735 1419 759 1417 776 1417 c 0
 831 1417 846 1441 846 1503 c 0
1139 1968 m 0
 1176 1968 1196 1982 1196 2017 c 256
 1196 2040 1164 2138 1161 2163 c 1
 1147 2166 1005 2178 993 2181 c 1
 997 2149 998 2123 998 2091 c 0
 998 2064 997 2033 997 1991 c 1
 998 1991 999 1991 1000 1991 c 0
 1028 1991 1119 1968 1139 1968 c 0
1403 2558 m 0
 1335 2558 1288 2498 1288 2431 c 0
 1288 2402 1296 2376 1311 2353 c 0
 1315 2350 1318 2349 1321 2349 c 0
 1339 2342 1356 2339 1372 2339 c 0
 1444 2339 1487 2435 1487 2484 c 0
 1487 2533 1459 2558 1403 2558 c 0
EndSplineSet
EndChar

StartChar: uni0098
Encoding: 152 152 116
Width: 1517
Flags: HW
LayerCount: 2
Fore
SplineSet
850 848 m 1
 850 906 841 995 836 1049 c 1
 836 1229 878 1303 983 1380 c 0
 1023 1407 1095 1421 1165 1421 c 0
 1209 1421 1249 1416 1285 1406 c 128
 1321 1396 1366 1361 1421 1300 c 128
 1476 1239 1503 1188 1503 1147 c 2
 1503 1087 l 2
 1503 925 1472 832 1376 770 c 1
 1350 759 1306 747 1245 733 c 0
 1136 712 1073 701 1057 698 c 1
 1057 587 1094 192 1122 117 c 0
 1130 95 1168 58 1176 33 c 1
 1176 28 l 2
 1176 -3 1129 -51 1100 -51 c 0
 1095 -51 1088 -49 1081 -45 c 0
 1016 -21 946 -11 937 53 c 129
 937 53 885 584 885 676 c 1
 713 676 596 672 532 662 c 128
 468 652 431 646 422 643 c 0
 352 623 293 580 270 500 c 128
 259 462 254 425 254 387 c 0
 254 350 259 317 270 287 c 1
 350 209 495 160 656 160 c 2
 666 160 l 2
 700 160 728 161 750 164 c 0
 763 165 770 163 770 156 c 0
 770 145 755 126 724 96 c 128
 693 66 674 49 666 45 c 0
 578 -1 519 -2 386 -2 c 2
 369 -2 l 2
 238 -2 172 41 109 117 c 0
 61 175 8 254 8 342 c 0
 8 468 62 534 135 614 c 0
 201 688 303 775 394 804 c 128
 503 838 706 841 850 848 c 1
1008 1044 m 0
 1008 994 1022 901 1028 860 c 1
 1143 860 1232 887 1298 940 c 128
 1334 969 1352 1013 1352 1073 c 0
 1352 1121 1340 1163 1315 1200 c 1
 1277 1232 1217 1264 1163 1274 c 0
 1151 1277 1132 1268 1106 1249 c 0
 1048 1205 1008 1148 1008 1044 c 0
EndSplineSet
EndChar

StartChar: uni0099
Encoding: 153 153 117
Width: 1617
Flags: HW
LayerCount: 2
Fore
SplineSet
-6 1063 m 1
 50 1172 102 1251 150 1300 c 0
 206 1357 267 1386 334 1386 c 0
 414 1386 473 1356 530 1305 c 0
 647 1199 693 1046 723 838 c 128
 736 746 749 637 760 510 c 1
 760 459 778 257 786 219 c 1
 929 254 1073 290 1217 326 c 0
 1302 351 1480 366 1624 377 c 1
 1606 333 1533 287 1405 240 c 0
 1127 137 994 86 688 -53 c 0
 649 -71 610 -89 571 -106 c 1
 571 290 l 130
 571 314 572 340 573 369 c 0
 573 658 542 867 453 1059 c 0
 431 1104 409 1136 387 1154 c 128
 365 1172 342 1180 317 1180 c 0
 298 1180 274 1176 248 1166 c 128
 222 1156 207 1151 203 1151 c 0
 134 1121 64 1092 -6 1063 c 1
EndSplineSet
EndChar

StartChar: uni009A
Encoding: 154 154 118
Width: 1150
Flags: HW
LayerCount: 2
Fore
SplineSet
1079 525 m 1
 1031 565 899 682 871 695 c 1
 738 657 595 597 465 530 c 0
 410 501 370 480 344 467 c 1
 373 425 383 398 414 354 c 0
 453 299 502 232 553 195 c 0
 589 170 629 151 668 125 c 1
 660 110 650 96 640 85 c 0
 628 72 565 13 528 -0 c 0
 513 -5 495 -8 473 -8 c 0
 456 -8 441 -5 426 0 c 0
 352 23 296 66 258 127 c 1
 129 389 l 2
 56 540 -12 695 -109 819 c 1
 -64 827 41 844 92 844 c 0
 126 844 155 825 178 788 c 1
 208 728 237 676 264 633 c 1
 335 674 413 711 500 745 c 0
 522 754 596 781 720 828 c 1
 657 899 613 976 603 1043 c 0
 602 1050 601 1058 601 1066 c 0
 601 1100 612 1142 632 1190 c 0
 669 1277 678 1300 733 1355 c 0
 783 1405 844 1424 900 1424 c 0
 992 1424 1040 1376 1107 1309 c 0
 1151 1265 1164 1195 1164 1139 c 0
 1164 1129 1164 1119 1163 1110 c 0
 1147 1044 1052 927 998 858 c 1
 1057 816 1227 678 1235 672 c 1
 1079 525 l 1
1017 1164 m 0
 1017 1223 953 1266 903 1266 c 0
 876 1266 843 1258 837 1239 c 1
 805 1190 789 1159 789 1121 c 0
 789 1037 840 981 897 942 c 1
 949 994 1017 1105 1017 1164 c 0
EndSplineSet
EndChar

StartChar: uni009B
Encoding: 155 155 119
Width: 1048
Flags: HW
LayerCount: 2
Fore
SplineSet
879 2040 m 1
 840 2040 692 2036 655 2036 c 1
 655 1924 l 130
 655 1887 656 1845 657 1800 c 1
 785 1763 846 1696 901 1581 c 0
 935 1512 952 1448 952 1391 c 0
 952 1284 906 1150 864 1084 c 128
 807 996 737 903 664 842 c 1
 1180 842 l 1
 1184 608 l 1
 -180 608 l 1
 -178 842 l 1
 428 842 l 1
 443 1018 454 1157 461 1258 c 128
 468 1359 471 1433 471 1481 c 2
 473 1612 l 1
 382 1612 337 1583 295 1528 c 0
 276 1507 272 1470 272 1430 c 2
 272 1392 l 130
 272 1380 273 1369 274 1358 c 0
 274 1328 267 1313 254 1313 c 0
 252 1313 250 1313 248 1313 c 0
 232 1313 214 1324 193 1346 c 0
 149 1390 129 1464 129 1540 c 0
 129 1575 138 1607 154 1636 c 128
 170 1665 199 1698 242 1737 c 0
 291 1779 389 1819 469 1827 c 1
 469 1954 l 130
 469 1988 470 2018 471 2044 c 1
 385 2044 291 2041 205 2038 c 1
 182 2038 l 2
 104 2038 8 2040 8 2095 c 0
 8 2172 26 2246 63 2318 c 0
 119 2427 212 2513 342 2576 c 0
 367 2589 417 2599 455 2599 c 0
 541 2599 615 2568 624 2490 c 128
 633 2409 649 2276 649 2181 c 1
 879 2187 l 1
 879 2130 l 130
 879 2113 880 2098 881 2085 c 0
 881 2067 880 2052 879 2040 c 1
156 2185 m 1
 168 2180 192 2176 228 2175 c 128
 264 2174 307 2173 358 2173 c 2
 423 2173 l 130
 442 2173 458 2174 471 2175 c 1
 471 2198 l 2
 471 2305 463 2371 436 2466 c 1
 391 2451 348 2422 307 2382 c 128
 266 2342 216 2276 156 2185 c 1
639 1057 m 1
 658 1087 682 1124 694 1159 c 0
 716 1220 776 1305 776 1374 c 0
 776 1457 738 1529 696 1571 c 0
 684 1583 670 1592 655 1597 c 1
 655 1503 639 1151 639 1057 c 1
1049 2113 m 0
 1049 2071 1017 2040 976 2040 c 0
 935 2040 910 2078 910 2114 c 0
 910 2146 933 2182 978 2182 c 0
 1016 2182 1049 2151 1049 2113 c 0
1217 2112 m 0
 1217 2070 1185 2040 1144 2040 c 0
 1103 2040 1078 2078 1078 2114 c 0
 1078 2146 1101 2182 1146 2182 c 0
 1184 2182 1217 2150 1217 2112 c 0
1326 2042 m 0
 1285 2042 1255 2076 1255 2114 c 0
 1256 2150 1287 2182 1325 2182 c 0
 1365 2182 1397 2150 1397 2113 c 0
 1397 2074 1363 2042 1326 2042 c 0
EndSplineSet
EndChar

StartChar: uni009C
Encoding: 156 156 120
Width: 880
Flags: HW
LayerCount: 2
Fore
SplineSet
424 -96 m 0
 381 -96 327 -12 327 10 c 0
 327 13 327 16 328 18 c 0
 328 302 333 647 336 944 c 0
 336 1158 343 1467 350 1692 c 1
 195 1692 -25 1759 -47 1880 c 0
 -48 1886 -48 1892 -48 1898 c 0
 -48 1953 -13 2026 59 2118 c 0
 156 2241 268 2302 397 2302 c 0
 521 2302 613 2291 638 2200 c 128
 658 2127 669 2006 678 1925 c 1
 698 1772 l 1
 729 1765 768 1762 815 1761 c 0
 876 1761 937 1774 1001 1774 c 0
 1040 1774 1077 1772 1116 1772 c 1
 1219 1784 l 1
 1203 1848 1186 1950 1186 2021 c 0
 1186 2109 1211 2177 1286 2177 c 0
 1331 2177 1380 2152 1417 2128 c 1
 1472 2082 1511 1992 1511 1896 c 0
 1511 1824 1490 1739 1442 1718 c 128
 1405 1702 1393 1700 1359 1700 c 2
 1323 1700 l 1
 1338 1650 1353 1600 1368 1550 c 1
 1404 1550 1462 1559 1487 1559 c 1
 1565 1546 l 1
 1604 1628 1609 1656 1630 1763 c 0
 1631 1768 1632 1778 1632 1792 c 0
 1632 1829 1618 1891 1589 1980 c 0
 1568 2043 1556 2085 1552 2107 c 1
 1491 2136 1427 2177 1362 2230 c 1
 1311 2287 1251 2339 1194 2380 c 1
 1179 2361 1157 2323 1153 2298 c 0
 1142 2259 1134 2226 1126 2201 c 128
 1118 2176 1111 2161 1106 2157 c 0
 1083 2134 1003 2109 954 2109 c 0
 851 2109 800 2176 782 2267 c 0
 782 2269 781 2272 781 2274 c 0
 781 2293 792 2323 811 2365 c 0
 838 2424 870 2466 907 2492 c 0
 933 2510 962 2519 993 2519 c 0
 1062 2519 1119 2490 1169 2460 c 1
 1192 2476 l 1
 1223 2494 1257 2503 1292 2503 c 0
 1319 2503 1352 2498 1391 2488 c 0
 1481 2466 1537 2454 1560 2454 c 0
 1561 2454 1562 2454 1563 2454 c 0
 1604 2454 1640 2465 1673 2488 c 1
 1398 2515 1260 2573 1260 2661 c 0
 1260 2692 1274 2727 1303 2767 c 0
 1318 2788 1356 2812 1415 2839 c 0
 1488 2872 1554 2888 1614 2888 c 0
 1754 2888 1829 2785 1829 2646 c 256
 1829 2601 1820 2560 1802 2523 c 1
 1903 2517 l 1
 2028 2505 2108 2483 2220 2441 c 1
 2228 2483 2228 2497 2251 2521 c 1
 2307 2598 2398 2666 2515 2666 c 0
 2628 2666 2732 2591 2732 2480 c 0
 2732 2348 2669 2249 2546 2249 c 0
 2456 2249 2390 2283 2316 2322 c 1
 2269 2349 l 1
 2268 2341 2267 2328 2267 2310 c 2
 2267 2251 l 2
 2267 2236 2266 2225 2265 2218 c 1
 2285 2211 2295 2204 2312 2191 c 0
 2385 2140 2414 2078 2415 1956 c 0
 2415 1937 2406 1772 2406 1755 c 0
 2406 1636 2379 1532 2324 1442 c 0
 2247 1317 2132 1254 1978 1253 c 1
 1851 1266 l 1
 1853 1096 l 1
 1853 989 1838 911 1809 861 c 128
 1780 811 1743 786 1698 786 c 0
 1595 786 1520 910 1520 1020 c 0
 1520 1123 1532 1194 1556 1235 c 0
 1581 1276 1681 1354 1780 1356 c 1
 1778 1450 l 1
 1738 1450 1699 1448 1659 1448 c 2
 1626 1448 l 1
 1613 1451 1603 1452 1597 1452 c 1
 1575 1401 1481 1241 1481 1241 c 1
 1473 1249 l 1
 1476 1300 1483 1340 1495 1370 c 1
 1526 1460 l 1
 1475 1470 l 1
 1447 1473 1422 1481 1386 1481 c 1
 1397 1434 1402 1388 1403 1343 c 0
 1403 1164 1293 1090 1108 1090 c 2
 1104 1090 l 2
 1024 1090 973 1122 973 1196 c 0
 973 1294 1054 1417 1110 1475 c 0
 1149 1517 1223 1536 1296 1546 c 1
 1285 1564 1279 1577 1276 1585 c 1
 1269 1585 1204 1580 1081 1571 c 0
 856 1554 729 1546 700 1546 c 1
 700 1099 705 422 709 -23 c 0
 709 -49 682 -59 655 -59 c 0
 629 -59 600 -49 582 -45 c 128
 576 -44 571 17 567 136 c 128
 563 255 561 396 561 559 c 0
 561 885 564 1287 569 1599 c 1
 569 1667 l 1
 568 1678 567 1685 567 1688 c 1
 530 1688 512 1689 473 1698 c 1
 473 1248 455 424 455 -33 c 0
 455 -75 445 -96 424 -96 c 0
350 1933 m 0
 350 1955 354 2043 354 2066 c 0
 354 2135 354 2145 336 2195 c 1
 253 2148 201 2117 182 2101 c 0
 133 2059 97 1998 74 1919 c 1
 116 1839 146 1824 250 1796 c 0
 281 1788 315 1784 352 1784 c 1
 355 1795 356 1808 356 1823 c 0
 356 1843 350 1913 350 1933 c 0
492 2200 m 1
 474 2142 471 2084 471 2005 c 2
 471 1898 l 130
 471 1860 472 1821 473 1780 c 1
 512 1773 536 1770 543 1769 c 1
 569 1769 l 1
 569 1858 567 1922 555 1987 c 0
 536 2081 523 2139 516 2161 c 1
 508 2173 500 2186 492 2200 c 1
702 1662 m 130
 702 1647 704 1637 707 1630 c 1
 746 1630 810 1633 899 1640 c 0
 1112 1657 1231 1665 1257 1665 c 1
 1247 1706 l 1
 1083 1704 l 1
 934 1696 l 1
 826 1696 762 1697 742 1700 c 128
 722 1703 709 1703 702 1702 c 1
 702 1662 l 130
870 2288 m 0
 881 2232 906 2189 963 2189 c 0
 995 2189 1024 2201 1040 2215 c 128
 1049 2223 1080 2312 1084 2326 c 128
 1092 2357 1100 2372 1120 2406 c 1
 1085 2425 1051 2435 1018 2435 c 0
 956 2435 905 2389 884 2344 c 128
 872 2317 867 2299 870 2288 c 0
977 2290 m 0
 953 2290 938 2304 938 2329 c 0
 938 2353 952 2367 977 2367 c 0
 1001 2367 1015 2352 1016 2329 c 0
 1016 2305 1002 2290 977 2290 c 0
1333 1323 m 0
 1333 1380 1325 1410 1311 1462 c 1
 1241 1462 1210 1460 1176 1425 c 0
 1142 1390 1065 1292 1065 1231 c 0
 1065 1192 1094 1172 1151 1171 c 0
 1270 1171 1333 1214 1333 1323 c 0
1200 1260 m 0
 1181 1260 1165 1274 1165 1290 c 0
 1166 1310 1178 1327 1198 1327 c 0
 1220 1327 1235 1311 1235 1292 c 0
 1235 1273 1218 1260 1200 1260 c 0
1583 2380 m 0
 1565 2380 1368 2417 1307 2419 c 0
 1282 2419 1260 2416 1239 2410 c 1
 1304 2362 1350 2326 1395 2275 c 1
 1435 2240 1492 2216 1542 2193 c 1
 1542 2277 1555 2301 1612 2335 c 0
 1650 2357 1703 2380 1761 2380 c 0
 1822 2380 1853 2352 1853 2288 c 0
 1853 2161 1838 2062 1731 2062 c 0
 1701 2062 1668 2069 1632 2083 c 1
 1653 2004 1665 1956 1669 1939 c 0
 1682 1882 1689 1838 1690 1808 c 0
 1690 1793 1689 1782 1688 1776 c 0
 1669 1669 1649 1589 1630 1534 c 1
 1658 1534 1745 1546 1776 1546 c 1
 1772 1735 l 2
 1771 1744 1771 1752 1771 1761 c 0
 1771 1797 1779 1834 1796 1870 c 0
 1823 1927 1862 1956 1913 1956 c 0
 1993 1956 2049 1910 2079 1860 c 0
 2102 1821 2114 1772 2114 1714 c 0
 2114 1614 2078 1488 1998 1474 c 128
 1933 1463 1912 1456 1847 1456 c 1
 1849 1352 l 1
 1887 1348 1937 1338 1978 1325 c 1
 2107 1325 2203 1380 2267 1489 c 0
 2314 1568 2337 1658 2337 1759 c 0
 2337 1788 2351 1934 2351 1960 c 0
 2351 2051 2329 2094 2271 2134 c 1
 2247 2152 l 1
 2230 2052 2163 2015 2054 2001 c 128
 2033 1998 2020 1997 2013 1997 c 0
 1917 1997 1876 2042 1876 2132 c 0
 1876 2226 1956 2267 2052 2267 c 0
 2097 2267 2147 2258 2200 2241 c 1
 2200 2279 2189 2374 2189 2376 c 1
 2085 2416 2017 2436 1894 2447 c 1
 1763 2462 l 1
 1721 2415 1663 2380 1583 2380 c 0
1268 2017 m 0
 1268 1971 1281 1896 1307 1792 c 1
 1319 1788 1331 1786 1343 1786 c 0
 1365 1786 1388 1794 1413 1812 c 128
 1438 1830 1450 1857 1450 1892 c 0
 1450 1934 1434 1981 1401 2032 c 1
 1377 2056 1336 2093 1307 2093 c 0
 1281 2093 1268 2068 1268 2017 c 0
1348 1888 m 0
 1326 1888 1307 1905 1307 1929 c 0
 1307 1954 1325 1970 1348 1970 c 0
 1372 1970 1391 1953 1391 1925 c 0
 1391 1904 1372 1888 1348 1888 c 0
1573 2796 m 0
 1482 2796 1382 2734 1382 2654 c 0
 1382 2559 1566 2558 1704 2558 c 1
 1727 2596 1739 2630 1739 2660 c 0
 1739 2728 1657 2796 1573 2796 c 0
1610 2660 m 256
 1586 2660 1567 2679 1567 2703 c 0
 1567 2728 1585 2746 1610 2746 c 0
 1634 2746 1653 2728 1653 2703 c 0
 1653 2679 1634 2660 1610 2660 c 256
1606 1020 m 0
 1606 961 1638 895 1692 895 c 0
 1718 895 1740 911 1758 943 c 128
 1776 975 1784 1025 1784 1092 c 2
 1782 1262 l 1
 1752 1260 1726 1261 1706 1251 c 0
 1658 1228 1629 1206 1620 1184 c 128
 1611 1162 1606 1107 1606 1020 c 0
1718 2136 m 0
 1775 2136 1778 2192 1778 2265 c 0
 1777 2294 1763 2308 1737 2308 c 0
 1694 2308 1639 2273 1620 2246 c 128
 1613 2236 1610 2225 1610 2210 c 0
 1610 2203 1611 2189 1614 2167 c 1
 1620 2165 1697 2136 1718 2136 c 0
1723 1065 m 0
 1723 1046 1707 1027 1684 1027 c 0
 1663 1027 1650 1049 1650 1069 c 0
 1650 1086 1660 1102 1684 1102 c 0
 1709 1102 1723 1086 1723 1065 c 0
1702 2183 m 256
 1682 2183 1669 2198 1669 2218 c 0
 1669 2241 1679 2251 1702 2251 c 0
 1722 2251 1737 2238 1737 2218 c 256
 1737 2200 1720 2183 1702 2183 c 256
1907 1849 m 0
 1855 1849 1853 1803 1853 1749 c 0
 1853 1715 1858 1580 1858 1544 c 1
 1893 1547 1936 1566 1968 1571 c 128
 2009 1578 2044 1661 2044 1714 c 0
 2044 1787 1997 1827 1933 1845 c 0
 1920 1848 1911 1849 1907 1849 c 0
1929 1642 m 0
 1908 1642 1888 1658 1888 1683 c 0
 1888 1704 1904 1724 1929 1724 c 0
 1951 1724 1970 1708 1970 1683 c 0
 1970 1659 1952 1645 1929 1642 c 0
2167 2169 m 1
 2134 2184 2071 2210 2030 2210 c 0
 1986 2210 1964 2184 1964 2132 c 0
 1964 2090 1978 2060 2015 2060 c 0
 2033 2060 2083 2080 2095 2083 c 0
 2149 2101 2156 2111 2167 2169 c 1
2064 2105 m 0
 2049 2105 2036 2120 2036 2136 c 0
 2036 2157 2052 2175 2075 2175 c 0
 2091 2175 2105 2161 2105 2144 c 0
 2105 2126 2085 2105 2064 2105 c 0
2638 2454 m 0
 2638 2522 2577 2578 2507 2578 c 0
 2438 2578 2392 2535 2357 2486 c 0
 2343 2466 2326 2438 2322 2419 c 1
 2392 2373 2502 2324 2554 2324 c 0
 2621 2324 2637 2378 2638 2454 c 0
2509 2460 m 0
 2486 2460 2470 2474 2470 2497 c 0
 2470 2518 2486 2535 2509 2535 c 0
 2530 2535 2548 2518 2548 2497 c 0
 2548 2474 2534 2460 2509 2460 c 0
EndSplineSet
EndChar

StartChar: uni009D
Encoding: 157 157 121
Width: 655
Flags: HW
LayerCount: 2
Fore
SplineSet
-137 1858 m 1
 -160 1858 l 2
 -221 1858 -276 1860 -276 1903 c 0
 -276 1918 -265 1946 -244 1987 c 0
 -173 2120 -83 2238 27 2341 c 0
 144 2453 245 2509 328 2509 c 0
 432 2509 498 2461 498 2363 c 256
 498 2255 504 2287 504 2165 c 2
 504 2085 l 2
 504 2073 503 2063 503 2055 c 0
 503 2039 506 2030 522 2030 c 1
 546 2035 569 2038 594 2042 c 1
 597 2061 610 2097 633 2150 c 1
 678 2195 712 2229 735 2251 c 0
 803 2314 837 2330 924 2346 c 128
 950 2351 977 2353 1004 2353 c 0
 1150 2353 1246 2276 1320 2185 c 128
 1360 2136 1380 2084 1380 2030 c 0
 1380 1938 1326 1860 1274 1811 c 128
 1243 1782 1218 1764 1200 1757 c 128
 1182 1750 1137 1724 1063 1677 c 1
 1146 1639 1176 1634 1219 1583 c 0
 1226 1575 1229 1562 1229 1544 c 0
 1229 1441 1157 1324 1012 1192 c 0
 952 1139 904 1098 868 1071 c 0
 816 1032 780 1012 760 1012 c 0
 748 1012 742 1020 741 1036 c 0
 741 1079 766 1124 786 1161 c 1
 867 1234 933 1295 986 1346 c 128
 1039 1397 1065 1436 1065 1462 c 0
 1065 1467 1063 1474 1059 1481 c 0
 1035 1536 1007 1595 944 1595 c 0
 922 1595 893 1585 856 1565 c 1
 833 1588 784 1675 784 1720 c 0
 784 1731 788 1737 795 1739 c 0
 890 1761 991 1805 1096 1870 c 0
 1130 1892 1174 1923 1227 1964 c 1
 1227 1974 1231 1998 1231 2011 c 0
 1231 2150 1145 2216 1006 2216 c 0
 933 2216 845 2210 815 2159 c 0
 797 2126 783 2106 774 2099 c 1
 789 2091 797 2077 797 2058 c 0
 797 2029 781 1995 748 1954 c 128
 715 1913 688 1889 668 1882 c 1
 508 1882 l 2
 493 1882 492 1715 492 1636 c 2
 492 1612 l 2
 492 1422 497 1025 500 842 c 1
 903 842 l 1
 895 608 l 1
 492 608 l 1
 483 504 l 1
 448 497 398 487 360 487 c 0
 351 487 345 489 342 492 c 0
 333 495 324 498 315 502 c 1
 308 520 305 555 305 608 c 1
 -125 608 l 1
 -125 842 l 1
 313 842 l 1
 319 1866 l 1
 161 1866 23 1861 -137 1858 c 1
324 2034 m 0
 324 2051 319 2134 319 2152 c 2
 319 2225 l 130
 319 2248 320 2269 322 2288 c 0
 322 2306 317 2330 315 2349 c 1
 149 2281 59 2173 -37 2013 c 1
 6 1999 134 1999 197 1999 c 0
 227 1999 256 1997 285 1997 c 0
 318 1997 324 2002 324 2034 c 0
EndSplineSet
EndChar

StartChar: uni009E
Encoding: 158 158 122
Width: 1150
Flags: HW
LayerCount: 2
Fore
SplineSet
631 961 m 0
 631 935 627 905 625 881 c 0
 625 856 633 844 649 844 c 2
 1786 842 l 1
 1765 830 1703 795 1686 782 c 0
 1618 737 1584 697 1583 662 c 0
 1583 643 1595 625 1620 608 c 1
 760 608 l 2
 759 608 714 576 626 512 c 128
 538 448 479 414 448 408 c 128
 417 402 389 399 365 399 c 0
 264 399 185 441 150 510 c 0
 136 539 113 622 113 668 c 0
 113 715 115 721 130 754 c 128
 137 770 161 798 201 838 c 0
 313 950 402 997 612 997 c 0
 624 996 630 984 631 961 c 0
EndSplineSet
EndChar

StartChar: uni009F
Encoding: 159 159 123
Width: 1064
Flags: HW
LayerCount: 2
Fore
SplineSet
-92 1328 m 2
 -99 1328 l 2
 -251 1328 -389 1327 -389 1202 c 0
 -389 1141 -334 1100 -266 1100 c 0
 -260 1100 -163 1108 -158 1108 c 0
 -146 1108 -136 1107 -129 1106 c 1
 -37 1059 l 1
 -11 1051 2 1040 2 1026 c 0
 2 1008 -18 993 -56 980 c 128
 -94 967 -144 961 -207 961 c 0
 -278 961 -356 972 -442 993 c 0
 -520 1014 -544 1109 -545 1219 c 0
 -545 1399 -387 1495 -203 1495 c 0
 -79 1495 11 1482 115 1450 c 0
 151 1438 222 1434 272 1434 c 0
 308 1434 329 1433 346 1433 c 0
 365 1433 378 1434 399 1440 c 1
 397 1480 393 1630 393 1671 c 0
 393 1736 395 1795 399 1847 c 1
 261 1847 52 1848 -57 1870 c 0
 -142 1885 -196 1902 -221 1920 c 128
 -246 1938 -258 1967 -258 2009 c 0
 -258 2050 -223 2103 -154 2169 c 1
 -115 2200 -76 2232 -37 2265 c 1
 24 2308 378 2527 446 2527 c 0
 503 2527 511 2512 528 2464 c 1
 536 2361 542 2285 545 2234 c 0
 555 2092 559 2012 559 1993 c 0
 559 1991 559 1990 559 1989 c 1
 568 1989 615 1991 699 1996 c 128
 783 2001 863 2003 938 2003 c 1
 938 2016 893 2147 893 2161 c 0
 893 2383 979 2515 1192 2515 c 0
 1413 2515 1477 2435 1511 2238 c 0
 1515 2219 1517 2197 1518 2173 c 0
 1518 2011 1448 1915 1324 1870 c 128
 1277 1853 1235 1845 1200 1845 c 0
 1181 1845 1168 1848 1161 1855 c 1
 1161 1634 1150 1502 1128 1460 c 0
 1116 1438 1054 1402 942 1352 c 0
 919 1343 870 1338 796 1336 c 128
 722 1334 649 1329 575 1321 c 0
 570 1320 566 1272 565 1178 c 128
 564 1084 563 959 563 805 c 2
 563 572 l 130
 563 509 564 452 565 403 c 2
 578 -35 l 1
 391 -96 l 1
 391 422 l 2
 391 669 394 909 397 1147 c 1
 397 1206 l 2
 397 1270 395 1302 391 1303 c 0
 361 1303 291 1292 268 1292 c 0
 251 1292 238 1293 227 1296 c 1
 227 -6 l 1
 218 -6 184 -18 125 -43 c 0
 92 -56 70 -63 57 -63 c 0
 40 -63 30 -56 25 -43 c 1
 25 289 63 937 63 1270 c 2
 63 1304 l 130
 63 1314 62 1322 59 1327 c 1
 21 1327 -35 1328 -92 1328 c 2
174 1974 m 0
 238 1974 334 1986 385 1993 c 1
 385 2062 l 130
 385 2085 386 2109 387 2134 c 0
 387 2218 386 2239 369 2308 c 1
 283 2289 182 2241 109 2195 c 0
 9 2136 -36 2115 -70 2015 c 1
 -62 2014 -36 2007 9 1994 c 128
 54 1981 109 1974 174 1974 c 0
856 1851 m 0
 745 1851 665 1855 567 1866 c 1
 578 1460 l 1
 780 1485 l 1
 863 1494 917 1504 940 1513 c 0
 991 1534 1016 1573 1016 1630 c 2
 1016 1720 l 2
 1016 1781 1014 1791 995 1860 c 1
 957 1853 904 1851 856 1851 c 0
1190 2363 m 0
 1110 2363 1055 2322 1055 2238 c 0
 1055 2161 1101 2076 1114 2007 c 1
 1205 2024 1269 2044 1304 2068 c 128
 1339 2092 1356 2124 1356 2167 c 0
 1356 2230 1340 2257 1315 2314 c 0
 1302 2346 1239 2363 1190 2363 c 0
EndSplineSet
EndChar

StartChar: exclamdown
Encoding: 161 161 125
Width: 1048
Flags: HW
LayerCount: 2
Fore
SplineSet
-387 1186 m 0
 -492 1186 -559 1289 -559 1397 c 0
 -559 1465 -538 1527 -496 1583 c 0
 -389 1723 -188 1778 41 1814 c 128
 162 1833 287 1843 416 1843 c 1
 416 1931 413 1996 410 2077 c 0
 410 2100 411 2116 412 2124 c 0
 410 2153 408 2199 408 2226 c 2
 408 2236 l 2
 408 2310 409 2396 451 2396 c 0
 453 2396 1157 2384 1157 2384 c 1
 1151 2419 1149 2437 1149 2480 c 0
 1149 2641 1225 2730 1386 2730 c 0
 1469 2730 1545 2694 1606 2652 c 1
 1644 2592 1679 2516 1679 2441 c 0
 1679 2358 1653 2312 1606 2265 c 0
 1537 2198 1482 2187 1348 2187 c 1
 1348 2166 1350 2139 1354 2105 c 0
 1365 2014 1370 1955 1370 1929 c 0
 1370 1865 1361 1819 1333 1782 c 1
 1268 1740 1163 1719 1020 1718 c 1
 1024 1673 l 1
 1033 1600 1047 1503 1047 1430 c 0
 1047 1311 1024 1267 942 1236 c 128
 830 1194 607 1178 432 1178 c 1
 453 596 l 1
 459 464 461 314 461 166 c 0
 461 81 460 16 457 -29 c 1
 452 -56 446 -84 440 -111 c 1
 434 -111 l 2
 408 -111 342 -119 328 -119 c 0
 276 -119 255 -103 225 -72 c 1
 219 1303 l 1
 47 1364 l 1
 47 1085 49 820 53 568 c 128
 57 316 66 130 80 10 c 0
 81 5 82 -2 82 -10 c 130
 82 -35 l 2
 82 -103 69 -168 4 -168 c 0
 -13 -168 -31 -164 -52 -154 c 128
 -73 -144 -99 -127 -129 -102 c 0
 -137 -95 -143 -51 -146 32 c 128
 -149 115 -150 219 -150 346 c 0
 -150 512 -148 664 -145 811 c 0
 -145 893 -150 1392 -150 1479 c 1
 92 1491 l 1
 188 1504 376 1529 420 1530 c 1
 414 1698 l 1
 319 1690 l 1
 2 1657 -38 1655 -295 1610 c 0
 -389 1594 -467 1481 -467 1370 c 0
 -467 1323 -455 1284 -432 1253 c 1
 -405 1231 -378 1209 -352 1188 c 1
 -364 1187 -376 1186 -387 1186 c 0
627 1714 m 1
 627 1610 628 1582 637 1511 c 0
 637 1496 635 1468 631 1427 c 1
 135 1395 l 1
 319 1333 l 1
 698 1362 l 1
 796 1362 845 1410 846 1503 c 0
 846 1539 840 1578 840 1616 c 2
 840 1666 l 130
 840 1682 841 1698 842 1714 c 1
 794 1714 753 1717 711 1720 c 0
 684 1720 656 1718 627 1714 c 1
711 2185 m 0
 674 2185 660 2187 618 2193 c 1
 621 1849 l 1
 737 1849 l 2
 763 1849 794 1851 829 1855 c 1
 829 1890 834 2029 834 2066 c 0
 834 2114 832 2158 827 2198 c 1
 791 2191 760 2185 711 2185 c 0
1202 1989 m 0
 1202 2021 1186 2141 1186 2175 c 1
 1177 2176 1164 2177 1148 2177 c 130
 1042 2177 l 2
 1017 2177 1001 2178 993 2181 c 1
 1010 1851 l 1
 1095 1862 1147 1880 1167 1905 c 1
 1190 1918 1202 1946 1202 1989 c 0
1305 2466 m 0
 1305 2440 1309 2411 1317 2378 c 1
 1330 2373 1356 2367 1374 2367 c 0
 1409 2367 1433 2379 1450 2400 c 0
 1480 2438 1495 2470 1495 2497 c 0
 1495 2538 1464 2558 1403 2558 c 0
 1338 2558 1305 2527 1305 2466 c 0
EndSplineSet
EndChar

StartChar: cent
Encoding: 162 162 126
Width: 1171
Flags: HW
LayerCount: 2
Fore
SplineSet
1143 2611 m 2
 1324 2611 1427 2436 1427 2244 c 0
 1427 2243 1427 2242 1427 2241 c 0
 1427 2239 1427 2237 1427 2235 c 0
 1427 2130 1403 2055 1356 2011 c 0
 1326 1981 1269 1958 1184 1942 c 1
 1091 1933 998 1923 905 1913 c 1
 911 842 l 1
 1372 842 l 1
 1364 608 l 1
 -223 608 l 1
 -223 842 l 1
 121 842 l 1
 121 886 100 1442 100 1489 c 0
 100 1600 91 1646 82 1741 c 0
 82 1748 83 1761 86 1780 c 0
 106 1927 168 2083 309 2083 c 0
 318 2082 326 2081 332 2081 c 0
 358 2079 387 2077 410 2077 c 0
 538 2077 499 2079 670 2095 c 1
 731 2333 l 1
 780 2518 916 2611 1139 2611 c 2
 1143 2611 l 2
319 1794 m 0
 319 1763 324 1569 324 1538 c 2
 319 842 l 1
 674 842 l 1
 681 924 685 1030 687 1158 c 128
 689 1286 690 1467 690 1700 c 1
 698 1923 l 1
 572 1897 466 1893 328 1884 c 1
 323 1863 320 1833 319 1794 c 0
870 2111 m 1
 987 2122 1065 2131 1104 2140 c 0
 1179 2158 1219 2187 1223 2226 c 1
 1223 2321 1212 2382 1161 2419 c 0
 1144 2430 1125 2435 1102 2435 c 0
 1028 2435 926 2354 901 2298 c 1
 891 2227 886 2172 870 2111 c 1
EndSplineSet
EndChar

StartChar: sterling
Encoding: 163 163 127
Width: 950
Flags: HW
LayerCount: 2
Fore
SplineSet
395 643 m 0
 325 643 267 640 205 637 c 0
 169 637 156 644 156 657 c 0
 156 694 233 760 256 770 c 0
 366 809 459 842 573 842 c 0
 645 842 650 841 707 823 c 1
 800 804 951 721 999 651 c 1
 1038 582 1058 506 1059 424 c 0
 1059 274 983 129 889 72 c 1
 812 13 587 -49 457 -49 c 0
 316 -49 183 -7 115 63 c 1
 188 84 214 96 293 96 c 0
 415 96 525 132 608 180 c 1
 679 230 723 309 723 426 c 0
 723 485 715 527 698 565 c 1
 627 625 525 643 395 643 c 0
EndSplineSet
EndChar

StartChar: currency
Encoding: 164 164 128
Width: 1064
Flags: HW
LayerCount: 2
Fore
SplineSet
786 872 m 1
 856 927 926 998 926 1112 c 2
 926 1149 l 1
 922 1161 919 1170 918 1176 c 0
 883 1316 820 1470 748 1565 c 0
 675 1662 636 1713 631 1720 c 0
 564 1799 487 1839 399 1839 c 0
 243 1839 142 1814 86 1729 c 0
 69 1706 61 1679 61 1649 c 0
 61 1631 73 1584 98 1507 c 0
 110 1469 116 1436 117 1407 c 0
 117 1384 102 1372 72 1372 c 0
 33 1372 -7 1390 -47 1427 c 0
 -96 1474 -129 1537 -145 1616 c 1
 -145 1672 -133 1734 -108 1804 c 128
 -58 1943 16 2005 170 2038 c 128
 245 2054 329 2062 420 2062 c 0
 553 2062 668 2014 766 1919 c 0
 847 1841 926 1719 1004 1554 c 0
 1049 1459 1081 1378 1100 1312 c 128
 1119 1246 1128 1175 1128 1102 c 0
 1128 1068 1126 1030 1122 989 c 1
 1089 860 1033 753 934 721 c 0
 868 699 769 686 682 686 c 0
 623 686 552 691 469 702 c 128
 386 713 337 719 322 719 c 0
 300 719 287 715 283 707 c 0
 272 678 267 634 266 575 c 0
 266 456 294 322 372 284 c 128
 456 243 528 233 659 233 c 0
 686 233 722 240 766 254 c 0
 875 288 940 305 961 305 c 0
 972 305 979 304 983 303 c 1
 949 179 826 92 702 43 c 0
 643 21 571 10 485 10 c 0
 374 10 296 49 224 102 c 128
 97 197 74 299 66 521 c 128
 63 609 61 696 61 782 c 2
 61 965 l 1
 183 909 525 884 786 872 c 1
EndSplineSet
EndChar

StartChar: yen
Encoding: 165 165 129
Width: 1257
Flags: HW
LayerCount: 2
Fore
SplineSet
-170 911 m 0
 -113 911 -40 901 18 893 c 1
 48 893 170 812 225 778 c 1
 218 774 215 765 215 752 c 0
 215 720 232 675 248 643 c 1
 270 569 380 305 418 223 c 0
 452 146 493 88 541 49 c 1
 475 6 l 1
 437 -13 392 -23 340 -23 c 0
 296 -23 256 14 219 88 c 1
 27 530 l 1
 -38 669 -118 794 -211 903 c 1
 -206 908 -192 911 -170 911 c 0
375 1167 m 0
 310 1167 256 1103 238 1053 c 1
 230 1065 222 1078 215 1092 c 0
 207 1115 203 1134 203 1147 c 0
 203 1234 370 1312 455 1313 c 0
 470 1313 486 1311 502 1307 c 1
 607 1247 664 1172 664 1012 c 0
 664 904 629 834 555 799 c 0
 520 786 495 776 481 770 c 1
 545 770 680 790 729 803 c 1
 704 924 686 987 686 1100 c 0
 686 1242 756 1304 882 1344 c 128
 948 1365 1009 1376 1065 1376 c 0
 1158 1376 1262 1280 1303 1219 c 1
 1325 1179 1341 1092 1341 1024 c 0
 1341 865 1266 786 1149 743 c 0
 1096 723 1031 713 955 713 c 2
 944 713 l 1
 976 563 1020 148 1020 -29 c 0
 1020 -276 1011 -487 935 -666 c 128
 904 -738 855 -825 788 -926 c 1
 798 -858 825 -525 825 -449 c 0
 825 -305 831 -35 836 115 c 1
 836 265 799 567 762 672 c 1
 713 661 477 647 412 647 c 2
 393 647 l 1
 385 648 373 663 358 690 c 0
 336 730 320 755 311 766 c 1
 332 771 367 794 418 834 c 0
 478 881 511 915 516 936 c 128
 521 957 524 973 524 985 c 0
 524 1055 484 1112 440 1149 c 0
 422 1160 401 1167 375 1167 c 0
1020 1233 m 0
 925 1233 873 1147 870 1051 c 0
 870 988 899 902 915 846 c 1
 1018 863 1095 882 1150 930 c 128
 1181 957 1198 985 1198 1036 c 0
 1198 1099 1152 1178 1114 1202 c 0
 1094 1216 1051 1233 1020 1233 c 0
EndSplineSet
EndChar

StartChar: brokenbar
Encoding: 166 166 130
Width: 1449
Flags: HW
LayerCount: 2
Fore
SplineSet
383 215 m 1
 410 215 438 213 465 213 c 0
 490 213 516 215 545 219 c 0
 612 234 679 249 748 264 c 0
 756 264 760 261 760 254 c 0
 760 223 717 180 631 125 c 0
 531 61 431 29 330 29 c 0
 182 29 81 94 2 178 c 0
 -22 206 -39 251 -39 301 c 0
 -39 430 47 580 116 656 c 128
 158 702 181 728 188 733 c 0
 214 754 256 773 315 791 c 0
 403 820 1073 812 1094 821 c 1
 1109 862 1141 911 1190 969 c 0
 1261 1053 1279 1071 1380 1104 c 128
 1420 1117 1460 1124 1501 1124 c 0
 1602 1124 1657 1079 1686 1004 c 128
 1696 977 1702 949 1702 920 c 0
 1702 832 1657 741 1602 708 c 128
 1554 680 1385 649 1309 649 c 1
 1309 460 1311 328 1316 254 c 128
 1321 180 1343 104 1343 34 c 0
 1343 -25 1168 -70 1108 -70 c 0
 1081 -70 1064 -64 1057 -53 c 1
 1062 30 1065 138 1065 229 c 0
 1065 361 1061 514 1061 645 c 1
 953 644 844 642 733 641 c 128
 622 640 549 635 514 627 c 1
 394 609 333 558 295 463 c 0
 277 422 268 386 268 354 c 0
 268 272 311 238 383 215 c 1
1327 831 m 1
 1360 831 l 2
 1428 831 1430 831 1466 860 c 128
 1482 873 1491 887 1491 903 c 0
 1491 929 1477 942 1448 942 c 0
 1418 942 1390 921 1368 911 c 0
 1349 899 1335 872 1327 831 c 1
EndSplineSet
EndChar

StartChar: section
Encoding: 167 167 131
Width: 720
Flags: HW
LayerCount: 2
Fore
SplineSet
426 1604 m 1
 316 1604 240 1600 145 1597 c 0
 63 1597 -4 1602 -54 1610 c 128
 -109 1619 -148 1632 -148 1672 c 0
 -148 1704 -127 1761 -86 1843 c 0
 -29 1956 39 2052 117 2130 c 0
 214 2228 307 2277 397 2277 c 0
 514 2277 579 2234 590 2148 c 1
 590 2148 604 1843 612 1776 c 1
 651 1776 l 1
 669 1779 693 1780 723 1780 c 1
 723 1704 l 130
 723 1678 724 1651 725 1624 c 1
 702 1617 688 1616 658 1616 c 2
 635 1616 l 2
 600 1616 600 751 600 580 c 0
 600 523 629 274 629 215 c 0
 629 82 592 -8 471 -8 c 2
 469 -8 l 2
 378 -8 324 4 324 86 c 0
 325 95 326 103 326 109 c 0
 335 184 361 254 385 322 c 1
 406 510 434 850 434 1044 c 0
 434 1197 430 1445 426 1604 c 1
240 1755 m 0
 310 1755 376 1758 446 1763 c 1
 446 1838 444 1912 439 1982 c 128
 434 2052 427 2098 416 2120 c 1
 349 2109 293 2082 246 2038 c 0
 190 1985 135 1899 82 1780 c 1
 105 1757 188 1755 240 1755 c 0
902 1702 m 0
 902 1660 870 1630 829 1630 c 0
 788 1630 763 1668 763 1704 c 0
 763 1736 786 1772 831 1772 c 0
 869 1772 902 1740 902 1702 c 0
1070 1702 m 0
 1070 1660 1038 1630 997 1630 c 0
 956 1630 931 1668 931 1704 c 0
 931 1736 954 1772 999 1772 c 0
 1037 1772 1070 1740 1070 1702 c 0
1250 1702 m 0
 1250 1662 1214 1634 1180 1634 c 0
 1144 1634 1108 1659 1108 1704 c 0
 1108 1741 1138 1772 1176 1772 c 0
 1216 1772 1250 1740 1250 1702 c 0
EndSplineSet
EndChar

StartChar: dieresis
Encoding: 168 168 132
Width: 802
Flags: HW
LayerCount: 2
Fore
SplineSet
-269 1711 m 0
 -269 1670 -303 1638 -342 1638 c 0
 -383 1638 -409 1675 -409 1712 c 0
 -409 1744 -385 1781 -340 1781 c 0
 -302 1781 -269 1749 -269 1711 c 0
-101 1712 m 0
 -101 1671 -134 1639 -174 1639 c 0
 -215 1639 -241 1676 -241 1713 c 0
 -241 1746 -217 1781 -172 1781 c 0
 -133 1781 -101 1750 -101 1712 c 0
7 1640 m 0
 -34 1640 -63 1674 -63 1712 c 0
 -63 1750 -32 1782 6 1782 c 0
 46 1782 79 1750 79 1713 c 0
 79 1673 44 1640 7 1640 c 0
104 1616 m 1
 104 1673 103 1743 100 1798 c 1
 221 1794 l 1
 221 1939 234 2042 260 2103 c 0
 312 2226 419 2287 582 2288 c 0
 611 2288 644 2285 683 2280 c 128
 722 2275 770 2234 829 2157 c 0
 897 2066 931 1967 932 1860 c 0
 932 1644 764 1608 518 1608 c 2
 424 1608 l 1
 422 289 l 1
 427 228 432 191 432 125 c 0
 432 60 425 10 412 -23 c 0
 404 -42 389 -56 367 -63 c 1
 314 -46 279 -34 233 0 c 1
 233 355 226 667 219 995 c 1
 218 1580 l 1
 215 1584 217 1619 213 1617 c 128
 211 1616 203 1615 190 1615 c 0
 171 1615 142 1616 104 1616 c 1
547 1794 m 0
 651 1794 725 1815 725 1915 c 0
 725 1956 706 2020 674 2052 c 1
 637 2067 599 2075 559 2075 c 0
 503 2075 461 2058 432 2023 c 0
 419 2006 412 1972 412 1918 c 128
 412 1864 411 1825 410 1802 c 1
 457 1797 497 1794 547 1794 c 0
EndSplineSet
EndChar

StartChar: copyright
Encoding: 169 169 133
Width: 2463
Flags: HW
LayerCount: 2
Fore
SplineSet
127 61 m 1
 127 260 109 883 109 883 c 1
 109 994 112 1076 117 1128 c 128
 122 1180 132 1211 147 1221 c 0
 193 1251 222 1272 272 1274 c 0
 294 1274 314 1268 332 1255 c 0
 336 1251 339 1233 342 1200 c 128
 345 1167 346 1128 346 1081 c 0
 346 989 334 532 334 440 c 0
 334 393 334 321 342 283 c 1
 373 269 532 268 580 268 c 0
 658 268 1105 279 1174 279 c 1
 1203 302 1228 332 1249 367 c 1
 1266 401 1283 435 1300 469 c 1
 1355 530 1428 630 1520 768 c 0
 1581 862 1743 1128 1835 1280 c 1
 1985 1082 2138 881 2290 684 c 0
 2402 541 2474 451 2507 416 c 0
 2529 390 2544 211 2544 158 c 2
 2544 139 l 2
 2544 117 2543 99 2534 99 c 0
 2533 99 2531 99 2529 100 c 0
 2499 119 2427 190 2314 313 c 0
 2194 443 2004 655 1866 813 c 1
 1685 568 1512 328 1354 135 c 1
 1354 89 1304 65 1272 45 c 0
 1265 41 1223 39 1145 39 c 0
 838 39 428 61 127 61 c 1
1327 1100 m 0
 1327 930 1187 786 1014 786 c 0
 924 786 850 817 790 880 c 128
 730 943 700 1017 700 1100 c 0
 701 1270 841 1413 1014 1413 c 0
 1184 1413 1327 1273 1327 1100 c 0
1016 1243 m 0
 943 1243 879 1181 879 1106 c 0
 879 1035 935 973 1010 973 c 0
 1084 973 1147 1038 1147 1112 c 256
 1147 1187 1090 1243 1016 1243 c 0
EndSplineSet
EndChar

StartChar: ordfeminine
Encoding: 170 170 134
Width: 1548
Flags: HW
LayerCount: 2
Fore
SplineSet
1253 14 m 1
 1210 14 1078 18 1038 18 c 0
 989 18 956 24 940 35 c 1
 914 48 857 120 770 250 c 128
 683 380 630 452 614 462 c 128
 598 472 563 477 508 477 c 2
 442 477 l 130
 422 477 398 476 371 473 c 1
 215 465 l 1
 167 465 140 470 135 479 c 2
 111 522 l 2
 107 531 103 546 100 567 c 1
 100 589 109 614 127 641 c 0
 134 653 162 659 213 659 c 1
 412 668 l 1
 612 662 l 1
 666 662 702 655 736 639 c 128
 774 621 1024 211 1073 186 c 1
 1102 180 l 1
 1147 178 l 1
 1309 186 l 1
 1462 195 l 1
 1520 194 1530 179 1534 133 c 0
 1534 100 1516 57 1497 35 c 1
 1489 32 1482 31 1477 31 c 0
 1452 26 1432 22 1415 20 c 1
 1253 14 l 1
1204 426 m 1
 1154 426 1126 461 1118 512 c 1
 1118 559 1152 592 1206 598 c 1
 1255 598 1282 565 1288 512 c 1
 1288 463 1255 433 1204 426 c 1
EndSplineSet
EndChar

StartChar: guillemotleft
Encoding: 171 171 135
Width: 1048
Flags: HW
LayerCount: 2
Fore
SplineSet
102 -12 m 0
 102 468 109 1439 109 1950 c 1
 -34 2016 -302 2141 -314 2226 c 128
 -323 2293 -328 2315 -328 2374 c 0
 -328 2481 -224 2562 -126 2588 c 128
 -76 2601 -20 2607 41 2607 c 0
 89 2607 135 2604 180 2599 c 0
 349 2572 448 2554 596 2497 c 0
 645 2478 723 2442 829 2390 c 1
 803 2513 l 1
 803 2653 935 2712 1087 2712 c 0
 1239 2712 1326 2672 1399 2558 c 0
 1448 2483 1473 2403 1473 2318 c 0
 1473 2239 1452 2192 1409 2179 c 0
 1336 2156 1256 2144 1169 2144 c 0
 1088 2144 1079 2144 1018 2163 c 1
 1024 2107 l 1
 1201 2080 1377 2042 1550 1993 c 1
 1561 1833 l 1
 1611 1843 1649 1849 1704 1849 c 0
 1852 1849 1982 1781 1982 1641 c 0
 1982 1519 1896 1434 1808 1382 c 0
 1769 1358 1730 1346 1691 1346 c 2
 1686 1346 l 2
 1625 1346 1572 1377 1529 1438 c 128
 1486 1499 1453 1581 1432 1683 c 1
 1383 1678 1271 1671 1214 1671 c 0
 1167 1671 1110 1671 1110 1692 c 0
 1110 1694 1110 1697 1112 1700 c 1
 1206 1732 1351 1777 1411 1794 c 1
 1401 1898 l 1
 1280 1898 1136 1939 1032 1964 c 1
 1032 1737 998 1520 807 1520 c 0
 573 1520 447 1678 446 1917 c 0
 446 2068 540 2114 690 2128 c 1
 750 2128 813 2126 877 2126 c 1
 862 2220 l 1
 749 2268 636 2316 524 2365 c 1
 385 2420 265 2447 166 2447 c 2
 158 2447 l 2
 30 2447 -84 2446 -84 2349 c 0
 -84 2342 -83 2331 -80 2314 c 0
 -58 2222 154 2176 309 2144 c 1
 315 -6 l 2
 315 -43 243 -59 201 -59 c 256
 157 -59 102 -51 102 -12 c 0
608 1858 m 0
 608 1784 697 1702 772 1702 c 0
 837 1702 864 1748 876 1810 c 128
 885 1856 889 1914 889 1985 c 1
 829 1989 l 1
 762 1989 718 1985 696 1978 c 0
 651 1964 608 1922 608 1858 c 0
1133 2286 m 0
 1191 2286 1300 2322 1300 2392 c 0
 1300 2453 1225 2521 1174 2530 c 128
 1139 2536 1096 2552 1067 2552 c 0
 1015 2552 997 2516 985 2464 c 0
 984 2461 984 2455 984 2449 c 0
 984 2411 998 2329 1001 2312 c 1
 1026 2303 1095 2286 1133 2286 c 0
1817 1624 m 0
 1817 1692 1660 1702 1579 1702 c 0
 1554 1702 1542 1692 1542 1673 c 0
 1542 1647 1562 1617 1602 1582 c 128
 1642 1547 1680 1530 1718 1530 c 0
 1765 1530 1817 1579 1817 1624 c 0
EndSplineSet
EndChar

StartChar: logicalnot
Encoding: 172 172 136
Width: 962
Flags: HW
LayerCount: 2
Fore
SplineSet
-109 819 m 1
 -64 827 41 844 92 844 c 0
 126 844 155 825 178 788 c 1
 208 728 237 676 264 633 c 1
 335 674 413 711 500 745 c 0
 523 754 602 784 735 834 c 0
 827 869 827 874 930 874 c 2
 965 874 l 1
 950 715 l 1
 797 681 621 610 465 530 c 0
 410 501 370 480 344 467 c 1
 373 425 383 398 414 354 c 128
 453 299 502 232 553 195 c 0
 589 170 629 151 668 125 c 1
 660 110 650 96 640 85 c 128
 628 72 565 13 528 -0 c 128
 513 -5 495 -8 473 -8 c 0
 456 -8 441 -5 426 0 c 0
 352 23 296 66 258 127 c 1
 129 389 l 1
 56 540 -12 695 -109 819 c 1
EndSplineSet
EndChar

StartChar: uni00AD
Encoding: 173 173 137
Width: 1179
Flags: HW
LayerCount: 2
Fore
SplineSet
49 340 m 0
 49 391 110 489 231 635 c 0
 360 791 459 870 527 870 c 2
 528 870 l 2
 662 870 798 822 936 727 c 0
 1085 623 1159 513 1159 397 c 1
 1165 305 l 1
 1171 244 l 1
 1171 179 1129 102 1096 39 c 128
 1075 0 1048 -47 1014 -102 c 0
 891 -317 668 -554 465 -692 c 0
 331 -781 203 -835 82 -854 c 1
 165 -813 238 -767 301 -715 c 1
 411 -631 507 -530 590 -416 c 0
 698 -269 798 -86 889 133 c 1
 897 240 l 1
 840 167 776 110 705 68 c 0
 647 33 584 4 500 4 c 0
 445 4 359 43 240 121 c 0
 113 206 50 279 49 340 c 0
178 1024 m 1
 178 1208 l 1
 1085 1208 l 1
 1085 1024 l 1
 178 1024 l 1
915 295 m 1
 886 409 833 585 750 586 c 0
 708 586 635 563 532 518 c 128
 429 473 376 447 373 438 c 1
 373 383 428 328 537 272 c 0
 629 224 706 199 766 199 c 2
 770 199 l 2
 845 199 891 239 915 295 c 1
EndSplineSet
EndChar

StartChar: registered
Encoding: 174 174 138
Width: 1449
Flags: HW
LayerCount: 2
Fore
SplineSet
258 621 m 1
 230 590 201 478 201 414 c 0
 201 305 245 228 332 201 c 1
 417 246 477 281 514 305 c 0
 526 313 537 322 547 332 c 1
 528 293 509 254 492 215 c 1
 372 74 259 4 152 4 c 0
 25 4 -7 129 -24 253 c 128
 -31 306 -35 359 -35 414 c 0
 -35 552 -17 698 45 766 c 0
 71 795 123 803 182 803 c 0
 228 803 406 786 451 786 c 0
 592 786 786 783 924 780 c 1
 993 897 1035 946 1151 999 c 0
 1185 1014 1228 1022 1280 1022 c 0
 1376 1022 1426 992 1464 934 c 128
 1480 909 1489 885 1489 860 c 0
 1489 847 1486 834 1481 823 c 0
 1442 740 1411 703 1335 664 c 1
 1197 626 1194 625 1040 625 c 1
 996 516 952 406 909 297 c 0
 882 229 880 203 867 133 c 128
 862 107 860 85 860 66 c 0
 860 39 867 25 881 25 c 0
 890 25 903 29 918 38 c 128
 1004 88 1082 158 1141 236 c 1
 1123 180 1106 129 1090 82 c 128
 1060 -8 1002 -53 916 -90 c 128
 875 -108 836 -117 801 -117 c 0
 711 -117 674 -56 674 45 c 0
 674 83 692 153 729 256 c 0
 751 316 798 438 870 623 c 1
 635 623 497 621 258 621 c 1
1114 784 m 1
 1213 784 1301 789 1343 836 c 0
 1354 849 1359 859 1360 864 c 0
 1360 881 1337 889 1292 889 c 0
 1214 889 1137 841 1114 784 c 1
EndSplineSet
EndChar

StartChar: macron
Encoding: 175 175 139
Width: 991
Flags: HW
LayerCount: 2
Fore
SplineSet
750 432 m 1
 760 357 774 208 774 123 c 0
 774 42 766 -16 750 -51 c 0
 717 -115 676 -179 625 -242 c 0
 558 -324 495 -379 434 -406 c 1
 438 -383 443 -360 449 -338 c 1
 523 -170 567 -51 582 20 c 0
 592 62 594 93 594 141 c 0
 594 201 569 383 569 385 c 1
 506 362 442 350 377 350 c 0
 301 350 208 392 180 412 c 0
 141 438 109 480 86 537 c 0
 33 662 6 768 6 854 c 0
 6 920 15 959 74 961 c 0
 118 961 152 948 176 922 c 1
 193 831 213 752 236 686 c 128
 259 620 296 578 348 557 c 0
 359 552 388 547 401 547 c 0
 452 547 500 573 539 590 c 1
 518 676 508 709 463 807 c 0
 448 840 440 885 440 942 c 0
 440 1045 470 1152 528 1196 c 0
 573 1226 644 1241 741 1241 c 0
 798 1241 844 1232 876 1214 c 128
 942 1176 999 1023 1016 922 c 0
 1026 866 1034 832 1034 774 c 0
 1034 666 998 598 942 528 c 1
 857 470 853 472 750 432 c 1
725 1028 m 0
 663 1028 627 1003 627 944 c 0
 627 929 645 870 680 768 c 0
 699 712 709 666 709 631 c 1
 765 668 800 701 816 731 c 128
 832 761 840 804 840 860 c 1
 829 923 821 998 782 1016 c 128
 764 1024 744 1028 725 1028 c 0
EndSplineSet
EndChar

StartChar: degree
Encoding: 176 176 140
Width: 1171
Flags: HW
LayerCount: 2
Fore
SplineSet
164 -31 m 1
 78 6 27 614 27 745 c 0
 27 943 28 1115 30 1262 c 128
 32 1409 36 1502 43 1540 c 0
 63 1687 125 1843 266 1843 c 0
 275 1842 283 1841 289 1841 c 0
 316 1837 353 1835 399 1835 c 0
 485 1835 569 1840 651 1849 c 1
 651 1936 670 2037 688 2105 c 0
 737 2287 869 2372 1100 2372 c 0
 1282 2372 1384 2197 1384 2004 c 0
 1384 1895 1361 1818 1313 1772 c 0
 1283 1742 1226 1719 1141 1702 c 1
 1048 1693 955 1683 862 1673 c 1
 850 891 l 1
 861 695 893 349 893 135 c 2
 893 88 l 1
 892 79 891 72 891 68 c 0
 883 6 835 -10 764 -10 c 0
 748 -10 680 -6 664 -6 c 1
 664 442 647 1024 647 1460 c 1
 655 1683 l 1
 529 1657 423 1654 285 1645 c 1
 241 1525 231 950 231 776 c 0
 231 590 278 300 316 138 c 128
 336 54 347 12 350 12 c 2
 164 -31 l 1
852 1853 m 1
 967 1862 1044 1873 1083 1884 c 0
 1156 1903 1194 1933 1198 1974 c 1
 1198 2070 1186 2136 1137 2173 c 0
 1117 2187 1095 2195 1068 2195 c 2
 1063 2195 l 2
 989 2195 899 2145 877 2095 c 0
 869 2074 852 1885 852 1853 c 1
EndSplineSet
EndChar

StartChar: plusminus
Encoding: 177 177 141
Width: 1064
Flags: HW
LayerCount: 2
Fore
SplineSet
14 1231 m 1
 -28 1217 -71 1202 -111 1186 c 1
 -208 1192 -307 1211 -334 1258 c 128
 -350 1286 -358 1318 -358 1354 c 0
 -358 1487 -286 1537 -184 1571 c 128
 -140 1586 -91 1593 -35 1593 c 0
 55 1593 105 1583 182 1561 c 0
 216 1553 286 1542 326 1542 c 0
 334 1542 344 1543 356 1544 c 1
 368 1552 368 1761 369 1780 c 1
 309 1780 l 2
 74 1780 -332 1802 -332 1978 c 0
 -332 2011 -303 2054 -244 2107 c 1
 -175 2159 -106 2212 -37 2265 c 1
 10 2298 92 2347 211 2413 c 0
 348 2489 433 2527 464 2527 c 2
 465 2527 l 2
 509 2527 540 2506 558 2466 c 128
 576 2426 586 2352 586 2245 c 1
 590 1942 l 1
 644 1942 l 130
 663 1942 683 1943 705 1944 c 1
 725 1944 l 1
 2486 2028 l 1
 2486 2039 2478 2062 2462 2097 c 0
 2440 2142 2419 2188 2398 2234 c 1
 2390 2269 2386 2303 2386 2335 c 0
 2386 2433 2423 2513 2482 2554 c 0
 2563 2608 2673 2656 2791 2656 c 0
 2898 2656 2982 2617 3035 2562 c 0
 3074 2520 3094 2461 3095 2384 c 1
 3095 2328 l 130
 3095 2310 3096 2291 3097 2273 c 0
 3097 2155 3076 2100 3010 2037 c 128
 2953 1982 2854 1911 2753 1911 c 1
 2758 1904 2764 1884 2769 1850 c 128
 2774 1816 2777 1772 2777 1720 c 2
 2777 1653 l 2
 2777 1597 2772 1559 2762 1540 c 128
 2752 1521 2722 1502 2673 1483 c 0
 2661 1479 2494 1471 2172 1460 c 128
 1701 1444 1093 1427 580 1415 c 0
 564 1415 559 1014 559 1008 c 2
 559 708 l 2
 559 587 558 491 553 346 c 1
 553 -72 l 1
 281 -78 l 1
 289 -48 297 14 305 108 c 128
 313 202 317 309 317 428 c 0
 317 557 319 683 324 807 c 128
 329 931 334 999 338 1012 c 1
 338 1028 342 1257 342 1272 c 0
 342 1337 340 1370 336 1370 c 0
 261 1398 179 1419 92 1419 c 0
 48 1419 12 1416 -27 1413 c 0
 -105 1413 -145 1391 -145 1345 c 0
 -145 1264 -72 1250 14 1231 c 1
367 1950 m 1
 367 1950 381 2105 381 2146 c 0
 381 2206 374 2253 350 2290 c 1
 150 2241 -25 2151 -82 1978 c 1
 6 1954 60 1937 168 1937 c 0
 285 1937 264 1938 367 1950 c 1
598 1800 m 1
 598 1708 587 1625 575 1554 c 1
 594 1550 655 1548 756 1548 c 1
 756 1590 752 1761 752 1800 c 1
 598 1800 l 1
811 1757 m 2
 811 1698 809 1638 809 1577 c 2
 809 1548 l 1
 862 1550 l 1
 858 1806 l 1
 811 1804 l 1
 811 1757 l 2
909 1688 m 130
 909 1645 910 1600 911 1552 c 1
 965 1554 l 1
 961 1810 l 1
 909 1808 l 1
 909 1688 l 130
1008 1692 m 130
 1008 1650 1009 1604 1010 1556 c 1
 1063 1559 l 1
 1059 1812 l 1
 1008 1810 l 1
 1008 1692 l 130
1110 1696 m 130
 1110 1653 1111 1608 1112 1561 c 1
 1284 1571 l 1
 1276 1825 l 1
 1110 1815 l 1
 1110 1696 l 130
1327 1825 m 1
 1327 1734 1330 1656 1333 1573 c 1
 1382 1575 l 1
 1378 1829 l 1
 1327 1825 l 1
1421 1710 m 130
 1421 1667 1422 1621 1423 1573 c 1
 1477 1575 l 1
 1473 1833 l 1
 1421 1829 l 1
 1421 1710 l 130
1520 1788 m 2
 1520 1727 1518 1668 1518 1606 c 2
 1518 1577 l 1
 1694 1587 l 1
 1686 1845 l 1
 1520 1835 l 1
 1520 1788 l 2
1739 1849 m 1
 1739 1825 1747 1612 1747 1589 c 1
 1802 1593 l 1
 1796 1853 l 1
 1739 1849 l 1
1843 1855 m 1
 1843 1831 1847 1618 1847 1595 c 1
 1903 1599 l 1
 1894 1858 l 1
 1843 1855 l 1
2568 1708 m 0
 2568 1766 2552 1809 2537 1872 c 1
 1946 1860 l 1
 1954 1602 l 1
 2144 1602 l 2
 2247 1602 2326 1603 2382 1605 c 128
 2438 1607 2474 1610 2490 1614 c 0
 2542 1633 2568 1665 2568 1708 c 0
2875 2269 m 2
 2875 2274 l 2
 2875 2361 2849 2456 2761 2456 c 0
 2719 2456 2674 2432 2652 2410 c 0
 2627 2385 2615 2338 2615 2269 c 1
 2634 2211 2654 2148 2669 2081 c 1
 2730 2092 2773 2102 2798 2114 c 128
 2846 2137 2875 2199 2875 2269 c 2
EndSplineSet
EndChar

StartChar: uni00B2
Encoding: 178 178 142
Width: 1499
Flags: HW
LayerCount: 2
Fore
SplineSet
319 1767 m 1
 230 1780 156 1790 80 1790 c 0
 3 1793 -54 1795 -92 1796 c 0
 -208 1801 -269 1807 -274 1812 c 0
 -286 1823 -292 1857 -293 1915 c 0
 -293 2054 -223 2215 -82 2398 c 0
 68 2593 213 2691 352 2691 c 0
 464 2691 524 2687 524 2587 c 0
 524 2587 524 2586 524 2585 c 1
 524 2312 l 2
 524 2253 524 2188 525 2116 c 128
 526 2044 532 2001 545 1985 c 0
 553 1977 580 1973 627 1972 c 0
 707 1972 868 1991 924 2009 c 1
 922 2044 920 2075 920 2109 c 0
 920 2294 959 2473 1040 2578 c 0
 1134 2705 1275 2768 1464 2769 c 0
 1529 2769 1594 2733 1657 2662 c 0
 1726 2583 1761 2491 1761 2388 c 0
 1761 2247 1719 2139 1634 2062 c 0
 1597 2028 1535 1995 1448 1962 c 1
 1361 1935 1274 1908 1188 1882 c 1
 1188 1411 1182 1212 1178 838 c 1
 936 842 l 1
 936 1714 l 2
 936 1763 934 1792 930 1800 c 1
 812 1781 663 1763 535 1763 c 1
 530 1630 527 1316 516 1186 c 1
 516 1085 512 938 512 844 c 1
 299 842 l 1
 303 1060 307 1243 313 1506 c 128
 317 1670 319 1758 319 1767 c 1
-33 2085 m 1
 -18 2080 138 2044 182 2036 c 1
 240 2032 l 1
 279 2032 299 2050 299 2085 c 0
 299 2197 281 2346 254 2427 c 1
 187 2402 138 2371 106 2333 c 0
 69 2292 23 2210 -33 2085 c 1
1157 2198 m 2
 1157 2174 l 2
 1157 2120 1158 2103 1171 2052 c 1
 1311 2068 1413 2104 1487 2177 c 1
 1525 2205 1552 2285 1552 2353 c 0
 1552 2424 1533 2470 1493 2507 c 0
 1468 2532 1438 2544 1403 2544 c 0
 1331 2544 1286 2509 1242 2467 c 128
 1185 2413 1157 2311 1157 2198 c 2
EndSplineSet
EndChar

StartChar: uni00B3
Encoding: 179 179 143
Width: 1056
Flags: HW
LayerCount: 2
Fore
SplineSet
367 842 m 1
 367 988 372 1114 381 1243 c 1
 337 1254 82 1284 82 1284 c 1
 56 1289 25 1292 -12 1292 c 0
 -122 1292 -272 1266 -387 1235 c 0
 -431 1223 -435 1219 -467 1219 c 1
 -467 1240 -195 1335 -176 1339 c 0
 -40 1368 215 1377 381 1389 c 1
 393 1825 l 1
 348 1825 126 1817 72 1817 c 2
 43 1817 l 2
 -30 1817 -84 1821 -121 1829 c 0
 -250 1858 -315 1906 -315 1976 c 0
 -315 2009 -285 2050 -223 2103 c 1
 -20 2265 l 1
 11 2287 86 2332 203 2400 c 0
 352 2485 444 2527 481 2527 c 0
 596 2527 602 2385 602 2245 c 2
 602 1982 l 1
 813 1982 l 1
 809 2142 l 1
 809 2306 851 2413 946 2479 c 128
 1025 2534 1058 2556 1169 2556 c 0
 1338 2556 1415 2440 1415 2273 c 0
 1415 2244 1413 2221 1413 2193 c 0
 1413 2154 1399 2112 1371 2068 c 128
 1343 2024 1300 1983 1243 1944 c 0
 1216 1925 1167 1909 1096 1898 c 128
 1025 1887 980 1879 961 1872 c 1
 975 1765 987 1702 1012 1591 c 1
 1021 1586 1097 1581 1112 1581 c 0
 1210 1581 1376 1594 1501 1606 c 1
 1454 1669 1440 1755 1440 1862 c 0
 1441 1906 1442 1929 1442 1931 c 0
 1442 2010 1475 2075 1542 2125 c 128
 1609 2175 1684 2200 1767 2200 c 0
 1901 2200 1976 2002 1976 1853 c 0
 1976 1761 1948 1669 1913 1624 c 0
 1875 1575 1809 1533 1714 1499 c 1
 1717 1486 1728 1449 1749 1389 c 0
 1766 1340 1774 1302 1774 1276 c 0
 1774 1225 1746 1185 1690 1155 c 0
 1648 1132 1606 1120 1563 1120 c 0
 1499 1120 1132 1163 1073 1171 c 0
 945 1190 740 1213 588 1229 c 1
 578 850 l 1
 1372 842 l 1
 1364 608 l 1
 -223 608 l 1
 -223 842 l 1
 367 842 l 1
-66 1978 m 1
 60 1967 141 1964 297 1964 c 2
 389 1964 l 1
 399 1965 406 1966 410 1966 c 1
 407 2074 398 2241 367 2290 c 1
 171 2242 -11 2143 -66 1978 c 1
608 1845 m 1
 608 1780 594 1446 594 1372 c 1
 672 1372 772 1363 894 1346 c 128
 1016 1329 1138 1312 1260 1294 c 1
 1282 1294 1311 1291 1346 1284 c 0
 1428 1268 1483 1260 1509 1260 c 2
 1513 1260 l 2
 1556 1260 1577 1264 1597 1286 c 1
 1601 1303 1602 1326 1602 1343 c 0
 1602 1362 1598 1381 1589 1399 c 0
 1577 1424 1569 1450 1565 1479 c 1
 1493 1479 1064 1464 993 1464 c 2
 928 1464 l 1
 902 1467 884 1468 874 1468 c 1
 828 1607 816 1679 815 1855 c 1
 811 1855 797 1853 773 1848 c 128
 749 1843 721 1841 690 1841 c 2
 653 1841 l 1
 634 1844 619 1845 608 1845 c 1
965 2098 m 130
 965 2066 967 2036 971 2007 c 1
 971 2007 1139 2051 1169 2064 c 0
 1230 2087 1270 2177 1270 2261 c 0
 1270 2308 1260 2342 1239 2361 c 0
 1209 2390 1176 2404 1139 2404 c 0
 1093 2404 1068 2390 1042 2364 c 128
 1013 2335 970 2242 965 2189 c 1
 965 2098 l 130
1831 1882 m 0
 1829 1963 1802 2040 1720 2040 c 256
 1627 2040 1585 1977 1585 1882 c 0
 1585 1803 1616 1701 1647 1626 c 1
 1678 1637 1717 1665 1763 1712 c 0
 1801 1750 1831 1812 1831 1882 c 0
EndSplineSet
EndChar

StartChar: acute
Encoding: 180 180 144
Width: 1056
Flags: HW
LayerCount: 2
Fore
SplineSet
1460 1937 m 0
 1596 1937 1688 1788 1688 1649 c 0
 1688 1624 1686 1606 1683 1595 c 0
 1663 1430 1573 1339 1444 1257 c 1
 1466 1190 1480 1145 1486 1122 c 128
 1492 1099 1495 1076 1495 1055 c 0
 1495 1050 1494 1033 1491 1006 c 1
 1457 971 1424 948 1393 938 c 0
 1378 934 1350 932 1309 932 c 0
 1183 932 1087 933 980 950 c 128
 831 974 779 981 580 1008 c 1
 580 698 l 130
 580 610 581 510 582 399 c 1
 602 -6 l 1
 354 -31 l 1
 362 154 l 1
 389 1022 l 1
 307 1022 l 130
 280 1022 252 1023 225 1024 c 0
 168 1024 120 1021 66 1014 c 0
 -73 993 -291 956 -457 913 c 1
 -457 918 -395 943 -270 987 c 128
 -145 1031 -60 1057 -16 1066 c 128
 83 1086 276 1105 389 1118 c 1
 389 1208 l 1
 350 1199 283 1192 236 1192 c 0
 172 1192 63 1204 33 1229 c 0
 -15 1267 -51 1327 -51 1407 c 0
 -51 1471 -31 1530 10 1583 c 1
 58 1631 183 1657 285 1657 c 0
 323 1657 361 1654 393 1647 c 1
 393 1825 l 1
 348 1825 126 1817 72 1817 c 2
 43 1817 l 2
 -30 1817 -84 1821 -121 1829 c 0
 -250 1858 -315 1906 -315 1976 c 0
 -315 2009 -285 2050 -223 2103 c 1
 -20 2265 l 1
 11 2287 86 2332 203 2400 c 0
 352 2485 444 2527 481 2527 c 0
 596 2527 602 2385 602 2245 c 2
 602 1982 l 1
 813 1982 l 1
 809 2142 l 1
 809 2306 851 2413 946 2479 c 128
 1025 2534 1058 2556 1169 2556 c 0
 1338 2556 1415 2440 1415 2273 c 0
 1415 2244 1413 2221 1413 2193 c 0
 1413 2154 1399 2112 1371 2068 c 128
 1343 2024 1300 1983 1243 1944 c 0
 1216 1925 1167 1909 1096 1898 c 128
 1025 1887 980 1879 961 1872 c 1
 976 1801 989 1736 998 1678 c 128
 1007 1620 1012 1579 1012 1554 c 0
 1012 1535 1009 1523 1004 1520 c 0
 952 1491 848 1485 758 1485 c 0
 693 1485 633 1488 578 1495 c 1
 578 1368 l 1
 657 1380 869 1384 965 1384 c 0
 1068 1384 1149 1384 1235 1380 c 1
 1210 1482 1184 1562 1184 1694 c 1
 1219 1794 1255 1859 1290 1890 c 128
 1325 1921 1382 1937 1460 1937 c 0
-66 1974 m 1
 7 1967 128 1964 297 1964 c 2
 389 1964 l 1
 399 1965 406 1966 410 1966 c 1
 407 2074 398 2241 367 2290 c 1
 167 2241 -8 2143 -66 1974 c 1
397 1507 m 1
 357 1514 306 1518 264 1518 c 0
 199 1518 159 1514 127 1489 c 1
 112 1463 104 1440 104 1421 c 0
 104 1384 132 1371 164 1352 c 0
 186 1337 212 1331 246 1331 c 0
 298 1331 351 1347 397 1356 c 1
 397 1507 l 1
877 1249 m 0
 744 1249 683 1245 573 1225 c 1
 573 1118 l 1
 677 1118 765 1112 836 1100 c 0
 877 1091 918 1082 961 1073 c 1
 1011 1068 1100 1059 1153 1059 c 0
 1230 1059 1282 1063 1331 1090 c 1
 1331 1168 1331 1170 1290 1229 c 1
 1274 1229 895 1249 877 1249 c 0
815 1855 m 1
 776 1848 722 1841 680 1841 c 2
 641 1841 l 1
 622 1844 607 1845 596 1845 c 1
 598 1630 l 1
 668 1634 836 1639 836 1662 c 0
 836 1718 815 1790 815 1855 c 1
963 2048 m 1
 966 2029 967 2015 967 2007 c 1
 967 2007 1133 2051 1169 2064 c 0
 1230 2087 1270 2177 1270 2261 c 0
 1270 2308 1260 2342 1239 2361 c 0
 1209 2390 1176 2404 1139 2404 c 0
 1093 2404 1068 2390 1042 2364 c 128
 1020 2342 970 2246 967 2206 c 128
 964 2164 963 2142 963 2093 c 2
 963 2048 l 1
1427 1808 m 0
 1347 1808 1321 1737 1321 1655 c 0
 1321 1575 1347 1474 1376 1397 c 1
 1430 1415 1486 1463 1509 1511 c 0
 1538 1568 1552 1615 1552 1651 c 0
 1552 1731 1508 1808 1427 1808 c 0
EndSplineSet
EndChar

StartChar: mu
Encoding: 181 181 145
Width: 1056
Flags: HW
LayerCount: 2
Fore
SplineSet
578 1368 m 1
 831 1451 967 1487 1305 1487 c 0
 1462 1487 1565 1485 1612 1482 c 128
 1659 1479 1683 1471 1683 1458 c 0
 1683 1437 1595 1389 1581 1380 c 1
 1382 1380 1187 1361 997 1323 c 1
 802 1275 660 1242 573 1225 c 1
 573 842 l 1
 1454 842 l 1
 1446 608 l 1
 578 608 l 1
 582 399 l 1
 602 -6 l 1
 354 -31 l 1
 362 154 l 1
 373 608 l 1
 -252 608 l 1
 -254 842 l 1
 379 842 l 1
 389 1208 l 1
 350 1199 283 1192 236 1192 c 0
 172 1192 63 1204 33 1229 c 0
 -15 1267 -51 1327 -51 1407 c 0
 -51 1471 -31 1530 10 1583 c 1
 58 1631 183 1657 285 1657 c 0
 323 1657 361 1654 393 1647 c 1
 393 1825 l 1
 348 1825 126 1817 72 1817 c 2
 43 1817 l 2
 -30 1817 -84 1821 -121 1829 c 0
 -250 1858 -315 1906 -315 1976 c 0
 -315 2009 -285 2050 -223 2103 c 1
 -20 2265 l 1
 11 2287 86 2332 203 2400 c 0
 352 2485 444 2527 481 2527 c 0
 596 2527 602 2385 602 2245 c 2
 602 1982 l 1
 813 1982 l 1
 809 2142 l 1
 809 2306 851 2413 946 2479 c 128
 1025 2534 1058 2556 1169 2556 c 0
 1338 2556 1415 2440 1415 2273 c 0
 1415 2244 1413 2221 1413 2193 c 0
 1413 2154 1399 2112 1371 2068 c 128
 1343 2024 1300 1983 1243 1944 c 0
 1216 1925 1167 1909 1096 1898 c 128
 1025 1887 980 1879 961 1872 c 1
 976 1801 989 1736 998 1678 c 128
 1007 1620 1012 1579 1012 1554 c 0
 1012 1535 1009 1523 1004 1520 c 0
 952 1491 848 1485 758 1485 c 0
 693 1485 633 1488 578 1495 c 1
 578 1368 l 1
-66 1974 m 1
 7 1967 128 1964 297 1964 c 2
 389 1964 l 1
 399 1965 406 1966 410 1966 c 1
 407 2074 398 2241 367 2290 c 1
 167 2241 -8 2143 -66 1974 c 1
397 1507 m 1
 357 1514 306 1518 264 1518 c 0
 199 1518 159 1514 127 1489 c 1
 112 1463 104 1440 104 1421 c 0
 104 1384 132 1371 164 1352 c 0
 186 1337 212 1331 246 1331 c 0
 298 1331 351 1347 397 1356 c 1
 397 1507 l 1
815 1855 m 1
 776 1848 722 1841 680 1841 c 2
 641 1841 l 1
 622 1844 607 1845 596 1845 c 1
 598 1630 l 1
 668 1634 836 1639 836 1662 c 0
 836 1718 815 1790 815 1855 c 1
963 2048 m 1
 966 2029 967 2015 967 2007 c 1
 967 2007 1133 2051 1169 2064 c 0
 1230 2087 1270 2177 1270 2261 c 0
 1270 2308 1260 2342 1239 2361 c 0
 1209 2390 1176 2404 1139 2404 c 0
 1093 2404 1068 2390 1042 2364 c 128
 1020 2342 970 2246 967 2206 c 128
 964 2164 963 2142 963 2093 c 2
 963 2048 l 1
EndSplineSet
EndChar

StartChar: paragraph
Encoding: 182 182 146
Width: 802
Flags: HW
LayerCount: 2
Fore
SplineSet
-301 627 m 0
 -307 627 -309 688 -309 694 c 0
 -309 715 -309 832 -299 842 c 1
 190 842 l 1
 195 888 199 970 199 1020 c 0
 204 1218 217 1572 217 1618 c 0
 217 1674 215 1710 215 1767 c 0
 215 1938 217 2139 238 2286 c 1
 271 2294 294 2298 307 2298 c 0
 329 2298 458 2294 483 2294 c 1
 476 2283 470 2251 465 2198 c 128
 460 2145 456 2112 455 2101 c 1
 529 2119 598 2136 663 2150 c 128
 728 2164 777 2171 811 2171 c 1
 819 2148 823 2116 823 2075 c 0
 823 2018 815 1977 799 1954 c 1
 780 1953 698 1939 553 1913 c 0
 490 1902 453 1897 442 1896 c 1
 442 1820 424 1608 424 1608 c 1
 422 842 l 1
 1047 842 l 1
 1057 800 1065 670 1065 618 c 1
 651 618 150 624 -301 627 c 0
EndSplineSet
EndChar

StartChar: periodcentered
Encoding: 183 183 147
Width: 1056
Flags: HW
LayerCount: 2
Fore
SplineSet
158 1620 m 0
 82 1620 33 1623 33 1688 c 0
 33 1703 36 1724 43 1751 c 0
 77 1894 146 2023 250 2138 c 0
 369 2269 497 2335 635 2335 c 0
 739 2335 805 2287 805 2189 c 0
 805 2103 815 1878 815 1794 c 1
 958 1794 l 1
 958 1719 l 130
 958 1694 959 1668 961 1642 c 1
 815 1636 l 2
 806 1636 805 1525 805 1430 c 2
 805 1084 l 130
 805 1004 806 924 807 842 c 1
 801 588 l 1
 776 591 757 592 743 592 c 0
 686 596 647 598 627 598 c 0
 587 598 565 598 530 590 c 0
 486 578 452 563 426 546 c 128
 393 525 382 512 382 480 c 0
 382 426 415 379 484 337 c 128
 560 291 668 268 809 268 c 0
 878 268 945 273 1008 283 c 1
 979 206 902 141 776 88 c 0
 664 43 557 20 455 20 c 2
 434 20 l 1
 425 23 419 24 416 25 c 0
 338 34 262 76 188 148 c 128
 114 220 75 297 68 379 c 1
 68 468 103 542 172 602 c 0
 211 636 301 689 440 760 c 0
 492 785 561 795 623 809 c 1
 618 1636 l 1
 447 1636 322 1628 158 1620 c 0
258 1819 m 1
 288 1807 325 1805 368 1805 c 0
 392 1805 418 1806 446 1806 c 2
 524 1806 l 130
 550 1806 576 1807 602 1808 c 1
 623 1808 l 1
 623 1841 l 130
 623 1854 624 1870 625 1890 c 0
 625 1978 625 2069 598 2122 c 1
 524 2093 466 2061 424 2025 c 0
 367 1978 311 1910 258 1819 c 1
1135 1725 m 0
 1135 1683 1103 1651 1062 1651 c 0
 1021 1651 996 1689 996 1725 c 0
 996 1758 1019 1793 1064 1793 c 0
 1102 1793 1135 1763 1135 1725 c 0
1303 1724 m 0
 1303 1682 1271 1651 1230 1651 c 0
 1189 1651 1164 1689 1164 1725 c 0
 1164 1758 1187 1793 1232 1793 c 0
 1270 1793 1303 1762 1303 1724 c 0
1412 1653 m 0
 1372 1653 1341 1687 1341 1724 c 0
 1342 1761 1372 1794 1410 1794 c 0
 1450 1794 1483 1761 1483 1725 c 0
 1483 1686 1449 1653 1412 1653 c 0
EndSplineSet
EndChar

StartChar: cedilla
Encoding: 184 184 148
Width: 921
Flags: HW
LayerCount: 2
Fore
SplineSet
201 -59 m 256
 157 -59 102 -51 102 -12 c 2
 86 1372 l 1
 -53 1388 -70 1395 -193 1395 c 0
 -419 1395 -563 1357 -752 1286 c 1
 -654 1365 -575 1413 -516 1430 c 1
 -391 1453 -250 1479 -94 1507 c 0
 -35 1518 24 1523 84 1524 c 1
 72 2404 l 1
 174 2363 297 2339 422 2339 c 0
 591 2339 712 2334 881 2331 c 1
 883 2352 885 2392 885 2413 c 0
 885 2415 882 2467 882 2489 c 0
 882 2495 883 2499 883 2499 c 1
 923 2613 997 2674 1143 2675 c 0
 1217 2675 1274 2638 1313 2564 c 0
 1342 2509 1356 2453 1356 2394 c 0
 1356 2381 1355 2371 1352 2365 c 0
 1301 2244 1217 2183 1100 2183 c 2
 1073 2183 l 1
 1060 2186 1050 2187 1044 2187 c 1
 1051 2071 l 1
 1161 2054 1215 2051 1317 2038 c 1
 1317 2163 1335 2253 1401 2302 c 1
 1444 2345 1455 2363 1524 2363 c 0
 1554 2362 1579 2361 1599 2361 c 0
 1633 2361 1671 2343 1712 2307 c 128
 1753 2271 1774 2242 1774 2220 c 0
 1774 2109 1764 2035 1743 1997 c 0
 1736 1985 1710 1960 1663 1921 c 1
 1611 1910 1569 1905 1538 1905 c 0
 1512 1905 1481 1909 1444 1917 c 1
 1437 1720 1413 1542 1282 1479 c 0
 1070 1378 867 1352 543 1352 c 2
 387 1352 l 130
 362 1352 338 1353 313 1354 c 1
 293 1354 l 1
 315 -6 l 2
 315 -43 243 -59 201 -59 c 256
492 2214 m 0
 378 2214 276 2165 276 2056 c 0
 276 2043 278 2028 283 2013 c 1
 291 1520 l 1
 323 1520 639 1511 668 1511 c 0
 911 1511 1059 1533 1204 1622 c 0
 1275 1666 1303 1807 1317 1933 c 1
 1226 1933 1112 1947 1034 1958 c 1
 1021 1824 1001 1733 975 1686 c 0
 941 1622 880 1590 791 1589 c 0
 587 1589 473 1656 473 1855 c 0
 473 2008 539 2063 672 2091 c 0
 699 2098 725 2101 756 2101 c 0
 791 2101 859 2081 893 2081 c 1
 881 2193 l 1
 793 2193 512 2214 492 2214 c 0
608 1851 m 2
 608 1765 676 1704 760 1704 c 0
 822 1704 868 1741 878 1800 c 128
 884 1834 887 1891 887 1970 c 1
 839 1974 792 1979 745 1985 c 1
 661 1985 624 1956 610 1880 c 0
 609 1875 608 1870 608 1864 c 130
 608 1851 l 2
1219 2441 m 0
 1219 2501 1179 2553 1115 2553 c 0
 1065 2553 1038 2505 1038 2447 c 1
 1030 2331 l 1
 1085 2331 l 2
 1166 2331 1177 2337 1208 2394 c 0
 1215 2407 1218 2423 1219 2441 c 0
1681 2146 m 0
 1681 2215 1621 2249 1552 2249 c 0
 1485 2249 1465 2201 1452 2145 c 128
 1444 2110 1440 2075 1440 2038 c 1
 1449 2038 1551 2034 1559 2034 c 0
 1593 2034 1618 2036 1634 2040 c 1
 1665 2065 1681 2100 1681 2146 c 0
EndSplineSet
EndChar

StartChar: uni00B9
Encoding: 185 185 149
Width: 1167
Flags: HW
LayerCount: 2
Fore
SplineSet
1133 965 m 0
 1133 912 1131 898 1118 836 c 1
 905 838 l 1
 913 826 936 758 973 635 c 0
 992 572 1021 508 1060 444 c 128
 1099 380 1123 339 1133 322 c 0
 1162 271 1181 229 1192 195 c 1
 1192 180 1173 145 1135 90 c 0
 1116 61 1099 46 1085 43 c 1
 1054 43 1020 78 985 147 c 0
 958 202 931 256 905 311 c 1
 864 450 826 563 792 650 c 128
 758 737 721 787 680 801 c 1
 641 794 583 715 508 563 c 0
 463 468 418 372 373 276 c 1
 313 167 269 94 241 59 c 128
 213 24 191 6 174 6 c 0
 154 6 120 26 111 37 c 1
 88 83 66 130 43 176 c 1
 72 245 80 253 131 330 c 1
 176 391 210 438 233 471 c 0
 275 530 300 567 309 584 c 1
 335 661 382 765 424 827 c 1
 389 824 409 827 373 827 c 0
 356 827 293 823 276 823 c 0
 207 823 171 828 168 838 c 1
 168 862 l 130
 168 873 166 888 162 907 c 0
 162 926 152 981 152 981 c 1
 152 1034 230 1038 291 1038 c 2
 319 1038 l 2
 365 1038 410 1036 455 1036 c 0
 472 1036 484 1037 492 1038 c 1
 597 1038 l 130
 633 1038 670 1039 709 1040 c 1
 807 1040 l 130
 834 1040 877 1037 936 1032 c 1
 948 1025 980 1021 1033 1020 c 128
 1086 1019 1115 1017 1120 1016 c 0
 1128 1016 1132 999 1133 965 c 0
EndSplineSet
EndChar

StartChar: ordmasculine
Encoding: 186 186 150
Width: 1048
Flags: HW
LayerCount: 2
Fore
SplineSet
270 10 m 1
 270 -39 l 2
 270 -119 266 -188 217 -188 c 0
 187 -188 133 -157 55 -96 c 0
 47 -89 42 -45 39 38 c 128
 36 121 35 225 35 352 c 0
 35 518 36 670 39 817 c 0
 39 902 35 1370 35 1460 c 1
 227 1442 l 1
 292 1442 l 130
 315 1442 342 1443 375 1444 c 1
 401 1444 l 1
 401 1477 375 2066 375 2099 c 1
 363 2186 350 2296 350 2374 c 0
 350 2420 351 2486 381 2490 c 1
 1264 2497 l 1
 1464 2485 1655 2442 1690 2318 c 0
 1696 2291 1708 2241 1708 2210 c 0
 1708 2169 1698 2132 1678 2098 c 128
 1658 2064 1624 2030 1575 1993 c 0
 1542 1970 1377 1958 1315 1958 c 0
 1285 1958 1260 1960 1241 1964 c 1
 1241 1732 l 130
 1241 1655 1242 1578 1243 1501 c 0
 1243 1420 1240 1354 1233 1302 c 128
 1223 1221 1197 1176 1124 1160 c 128
 1096 1154 1063 1151 1028 1151 c 0
 912 1151 806 1176 702 1176 c 0
 683 1176 666 1174 653 1171 c 1
 651 852 l 1
 662 608 l 1
 675 475 692 252 692 172 c 0
 692 161 693 149 693 137 c 0
 693 113 690 92 674 92 c 0
 660 92 644 88 616 74 c 0
 555 41 515 25 498 25 c 0
 476 25 457 34 440 51 c 1
 440 1186 l 1
 268 1198 l 1
 270 10 l 1
625 2353 m 1
 625 2223 623 2092 623 1954 c 0
 623 1747 624 1620 625 1573 c 128
 626 1526 630 1477 637 1425 c 1
 710 1416 793 1409 881 1409 c 2
 889 1409 l 2
 958 1409 1057 1410 1057 1456 c 0
 1057 1502 1056 1557 1049 1602 c 1
 1034 1609 1019 1613 1006 1616 c 0
 977 1623 963 1647 963 1688 c 0
 963 1721 973 1742 993 1751 c 0
 1024 1764 1042 1774 1046 1780 c 128
 1050 1786 1053 1795 1053 1808 c 0
 1053 1821 1046 1841 1044 1851 c 0
 1044 1863 1013 1854 1004 1853 c 0
 964 1853 954 1874 954 1921 c 0
 954 1944 966 1964 989 1980 c 0
 992 1983 1010 1992 1044 2007 c 0
 1049 2008 1052 2014 1053 2025 c 0
 1050 2042 1049 2053 1049 2060 c 0
 1049 2075 1031 2086 994 2093 c 128
 957 2100 938 2115 938 2138 c 0
 938 2172 955 2194 988 2204 c 128
 1043 2221 1047 2222 1047 2275 c 0
 1047 2301 1044 2326 1044 2349 c 1
 960 2349 871 2346 793 2343 c 1
 770 2343 l 2
 720 2343 665 2344 625 2353 c 1
1253 2347 m 1
 1253 2275 1251 2222 1251 2142 c 2
 1251 2103 l 1
 1366 2106 1502 2115 1536 2162 c 128
 1555 2189 1565 2213 1565 2234 c 0
 1564 2309 1460 2347 1253 2347 c 1
EndSplineSet
EndChar

StartChar: guillemotright
Encoding: 187 187 151
Width: 1064
Flags: HW
LayerCount: 2
Fore
SplineSet
700 700 m 1
 594 674 484 645 367 645 c 0
 285 645 237 653 172 676 c 0
 73 709 -10 851 -66 981 c 1
 -81 1045 -96 1098 -96 1159 c 0
 -96 1259 -73 1315 -33 1399 c 0
 54 1579 216 1686 473 1686 c 0
 510 1686 546 1693 580 1708 c 128
 614 1723 658 1751 713 1790 c 1
 700 1739 686 1689 672 1638 c 1
 617 1526 556 1470 489 1470 c 0
 302 1470 212 1424 137 1311 c 0
 115 1276 104 1228 104 1169 c 0
 104 1060 134 1003 194 951 c 128
 243 909 339 870 422 870 c 0
 469 870 538 887 629 922 c 0
 693 947 743 964 778 973 c 1
 856 886 918 795 964 700 c 128
 1010 605 1032 502 1032 393 c 2
 1032 340 l 1
 1029 325 1028 314 1028 307 c 0
 1017 188 961 116 881 55 c 0
 824 12 718 -35 621 -35 c 0
 448 -35 331 15 236 94 c 0
 177 143 140 198 123 258 c 1
 127 259 134 260 145 260 c 0
 176 260 229 248 302 224 c 128
 375 200 423 188 446 188 c 0
 573 188 653 199 737 240 c 0
 779 260 793 314 793 379 c 0
 793 485 759 599 725 690 c 0
 724 697 715 700 700 700 c 1
EndSplineSet
EndChar

StartChar: onequarter
Encoding: 188 188 152
Width: 720
Flags: HW
LayerCount: 2
Fore
SplineSet
901 2388 m 0
 608 2388 195 2333 -98 2302 c 1
 -98 2302 -479 2268 -688 2253 c 1
 -478 2305 -81 2370 170 2406 c 0
 395 2439 583 2462 733 2476 c 1
 1072 2476 1337 2429 1530 2335 c 0
 1699 2252 1784 2151 1784 2032 c 0
 1784 2003 1778 1975 1765 1946 c 0
 1732 1871 1631 1805 1462 1749 c 0
 1341 1710 1181 1675 983 1645 c 1
 643 1599 l 2
 626 1596 615 1491 609 1283 c 128
 603 1075 600 841 600 580 c 0
 600 523 629 274 629 215 c 0
 629 82 592 -8 471 -8 c 2
 469 -8 l 2
 378 -8 324 4 324 86 c 0
 325 95 326 103 326 109 c 0
 335 184 361 254 385 322 c 1
 406 510 434 850 434 1044 c 0
 434 1197 430 1445 426 1604 c 1
 316 1604 240 1600 145 1597 c 0
 63 1597 -4 1602 -54 1610 c 128
 -109 1619 -148 1632 -148 1672 c 0
 -148 1704 -127 1761 -86 1843 c 0
 -29 1956 39 2052 117 2130 c 0
 214 2228 307 2277 397 2277 c 0
 512 2277 557 2234 582 2142 c 128
 611 2038 627 1907 639 1793 c 128
 640 1780 649 1774 666 1774 c 0
 681 1774 772 1780 788 1780 c 0
 925 1780 1072 1804 1231 1853 c 0
 1416 1910 1509 1976 1509 2050 c 256
 1509 2210 1289 2327 1139 2367 c 0
 1086 2380 1006 2387 901 2388 c 0
430 1853 m 0
 430 1879 422 1956 422 1987 c 0
 422 2017 417 2037 406 2048 c 0
 388 2066 375 2086 367 2107 c 1
 294 2078 248 2054 227 2034 c 0
 190 1997 146 1921 94 1804 c 1
 126 1794 255 1784 299 1784 c 0
 385 1784 430 1784 430 1853 c 0
EndSplineSet
EndChar

StartChar: onehalf
Encoding: 189 189 153
Width: 1048
Flags: HW
LayerCount: 2
Fore
SplineSet
1047 596 m 0
 1047 560 1051 415 1051 375 c 0
 1051 230 1039 99 993 4 c 0
 915 -155 876 -229 763 -326 c 128
 636 -434 170 -551 -35 -580 c 0
 -71 -584 -97 -585 -125 -590 c 1
 21 -555 204 -508 322 -467 c 0
 441 -426 521 -386 563 -346 c 0
 622 -294 681 -243 741 -193 c 1
 854 -65 942 214 942 489 c 2
 942 514 l 2
 942 530 935 551 920 551 c 256
 913 551 907 547 901 539 c 0
 880 504 854 441 821 352 c 128
 788 263 754 187 717 123 c 0
 694 84 674 55 657 37 c 0
 623 -1 593 -4 535 -4 c 0
 478 -4 417 -2 395 27 c 0
 307 158 222 326 147 477 c 0
 136 495 106 526 57 571 c 0
 40 588 31 602 31 614 c 0
 31 667 112 684 172 684 c 0
 207 684 241 680 274 672 c 1
 300 672 353 591 434 430 c 0
 485 327 533 245 578 182 c 1
 639 306 715 475 744 568 c 128
 761 623 774 660 784 676 c 128
 794 692 807 700 823 700 c 0
 839 700 882 692 903 692 c 0
 943 692 943 689 965 684 c 1
 1025 684 1056 683 1059 682 c 1
 1053 653 1047 655 1047 596 c 0
EndSplineSet
EndChar

StartChar: threequarters
Encoding: 190 190 154
Width: 1040
Flags: HW
LayerCount: 2
Fore
SplineSet
248 -987 m 0
 256 -758 264 -396 264 -152 c 1
 254 57 l 1
 193 90 l 2
 80 151 0 245 0 401 c 0
 0 557 87 704 168 801 c 0
 181 819 199 836 221 852 c 1
 219 903 l 1
 210 904 205 908 205 913 c 0
 205 932 305 958 344 958 c 0
 364 958 392 958 375 932 c 1
 375 924 l 1
 453 940 516 946 610 946 c 0
 702 946 840 883 906 843 c 128
 988 793 1010 697 1012 561 c 0
 1012 254 879 64 602 33 c 0
 565 29 494 27 389 27 c 1
 389 -45 l 2
 389 -252 381 -437 366 -599 c 128
 351 -761 324 -883 285 -965 c 0
 267 -1004 256 -1024 252 -1024 c 0
 249 -1024 248 -1012 248 -987 c 0
231 629 m 1
 187 575 168 520 168 424 c 0
 168 398 171 364 178 322 c 128
 185 280 209 242 248 211 c 1
 231 629 l 1
379 735 m 1
 387 158 l 1
 410 156 429 154 451 154 c 0
 624 154 783 247 821 379 c 0
 826 394 829 412 829 432 c 0
 829 507 794 582 725 654 c 128
 656 726 587 762 520 762 c 0
 475 762 428 753 379 735 c 1
EndSplineSet
EndChar

StartChar: questiondown
Encoding: 191 191 155
Width: 925
Flags: HW
LayerCount: 2
Fore
SplineSet
629 1137 m 0
 663 1137 808 1088 808 1046 c 0
 808 1043 807 1039 805 1036 c 1
 728 1019 656 1005 586 992 c 128
 458 969 407 924 350 842 c 1
 1004 842 l 1
 995 608 l 1
 330 608 l 1
 365 491 458 453 621 453 c 0
 675 453 797 465 797 465 c 1
 844 465 863 456 863 440 c 0
 863 425 846 405 820 382 c 128
 788 354 752 333 711 319 c 0
 616 288 531 272 457 272 c 0
 332 272 248 315 169 373 c 128
 98 425 35 500 35 608 c 1
 -76 608 l 1
 -76 842 l 1
 76 842 l 1
 130 962 239 1074 365 1118 c 1
 425 1128 557 1137 629 1137 c 0
EndSplineSet
EndChar

StartChar: Agrave
Encoding: 192 192 156
Width: 706
Flags: HW
LayerCount: 2
Fore
SplineSet
-115 938 m 256
 -175 938 -229 1036 -229 1102 c 0
 -229 1155 -203 1226 -150 1313 c 0
 -89 1411 -20 1481 55 1524 c 0
 101 1549 189 1556 266 1556 c 0
 390 1556 529 1537 598 1487 c 0
 746 1380 883 1211 883 981 c 0
 883 903 877 841 866 795 c 0
 848 716 812 642 758 573 c 0
 624 401 517 292 438 246 c 1
 589 246 709 243 798 238 c 128
 887 233 938 226 950 215 c 0
 985 182 1003 150 1004 117 c 0
 1004 88 987 60 954 31 c 0
 951 28 938 27 915 27 c 0
 869 27 428 45 377 45 c 0
 294 45 2 29 -70 29 c 0
 -97 29 -113 31 -117 35 c 0
 -139 67 -160 109 -160 158 c 0
 -160 232 -112 239 -24 242 c 128
 20 243 83 244 166 244 c 1
 270 310 458 523 555 647 c 0
 612 721 643 834 643 961 c 0
 643 1107 611 1183 508 1256 c 128
 433 1310 349 1337 258 1337 c 0
 183 1337 108 1291 35 1200 c 0
 -28 1122 -62 1058 -68 1010 c 128
 -74 962 -90 938 -115 938 c 256
EndSplineSet
EndChar

StartChar: Aacute
Encoding: 193 193 157
Width: 1314
Flags: HW
LayerCount: 2
Fore
SplineSet
12 332 m 0
 12 526 95 673 209 764 c 0
 266 811 316 842 358 856 c 128
 400 870 453 877 514 877 c 1
 552 838 595 775 643 690 c 0
 676 634 752 483 872 238 c 1
 880 247 916 308 981 420 c 0
 1054 545 1109 639 1147 700 c 0
 1203 789 1239 835 1254 835 c 0
 1255 835 1256 834 1257 834 c 0
 1285 816 1389 418 1419 399 c 1
 1305 201 l 1
 1297 197 1289 195 1280 195 c 0
 1255 195 1230 222 1204 276 c 0
 1169 351 1147 394 1139 403 c 1
 1070 328 1014 249 971 166 c 0
 938 101 886 40 815 -16 c 1
 780 37 744 90 709 143 c 1
 676 200 653 235 639 246 c 1
 639 216 622 182 586 144 c 128
 511 64 373 -23 209 -23 c 0
 170 -23 125 28 76 131 c 0
 34 224 13 291 12 332 c 0
195 563 m 1
 195 504 215 432 256 347 c 128
 297 262 329 218 354 215 c 1
 454 215 530 259 569 319 c 1
 558 404 517 502 481 580 c 0
 443 670 409 724 379 743 c 1
 373 745 367 746 361 746 c 0
 345 746 328 739 311 725 c 0
 277 698 238 644 195 563 c 1
EndSplineSet
EndChar

StartChar: Acircumflex
Encoding: 194 194 158
Width: 2713
Flags: HW
LayerCount: 2
Fore
SplineSet
2314 905 m 1
 2314 717 2499 672 2716 672 c 0
 2728 672 2734 669 2734 662 c 0
 2734 645 2705 623 2648 595 c 128
 2570 557 2466 528 2351 526 c 0
 2248 526 2192 555 2114 600 c 0
 2057 632 1994 666 1960 709 c 1
 573 692 l 2
 536 692 371 696 332 696 c 0
 319 696 306 696 293 696 c 0
 231 696 173 694 173 673 c 0
 173 671 173 670 174 668 c 0
 191 631 199 526 200 350 c 128
 201 174 223 86 268 86 c 0
 281 86 317 108 317 84 c 0
 317 46 293 1 244 -51 c 0
 213 -84 185 -100 160 -100 c 0
 103 -100 83 -44 70 16 c 0
 60 56 45 245 45 301 c 0
 45 334 48 360 53 379 c 1
 30 492 -6 664 -6 778 c 0
 -6 809 -2 834 5 852 c 128
 12 870 56 887 137 903 c 1
 238 916 340 931 442 946 c 1
 509 934 537 928 608 928 c 2
 668 928 l 1
 668 1144 675 1385 682 1620 c 128
 686 1761 688 1834 688 1839 c 1
 598 1852 524 1861 449 1862 c 0
 372 1865 315 1867 276 1868 c 0
 160 1873 99 1879 94 1884 c 0
 82 1895 76 1929 76 1987 c 0
 76 2126 146 2287 287 2470 c 0
 437 2665 582 2763 721 2763 c 0
 834 2763 893 2758 893 2656 c 2
 893 2384 l 2
 893 2353 891 2301 891 2247 c 0
 891 2166 895 2081 913 2056 c 0
 921 2048 948 2044 995 2044 c 0
 1076 2044 1236 2061 1292 2081 c 1
 1290 2116 1288 2147 1288 2181 c 0
 1288 2366 1328 2544 1409 2650 c 0
 1503 2777 1644 2840 1833 2841 c 0
 1898 2841 1962 2805 2025 2734 c 0
 2094 2655 2129 2563 2130 2460 c 0
 2130 2319 2088 2211 2003 2134 c 0
 1966 2100 1904 2067 1817 2034 c 1
 1730 2007 1643 1980 1556 1954 c 1
 1549 1407 1546 1069 1546 942 c 1
 1962 948 l 1
 2003 1005 2070 1047 2138 1087 c 1
 2198 1109 2266 1124 2342 1132 c 128
 2418 1140 2471 1146 2501 1149 c 1
 2537 1149 2693 1131 2693 1098 c 0
 2693 1094 2689 1088 2681 1081 c 1
 2622 1068 2564 1054 2505 1040 c 1
 2448 1014 2384 969 2314 905 c 1
336 2157 m 1
 351 2152 508 2116 551 2107 c 1
 608 2103 l 1
 647 2103 667 2121 668 2157 c 0
 668 2269 650 2418 623 2499 c 1
 556 2474 507 2443 475 2404 c 0
 438 2363 392 2281 336 2157 c 1
905 1268 m 1
 905 1157 899 1058 897 942 c 1
 1325 948 l 1
 1325 1790 l 2
 1325 1843 1323 1874 1319 1882 c 1
 1201 1863 1052 1845 924 1845 c 1
 919 1713 916 1397 905 1268 c 1
1526 2269 m 2
 1526 2245 l 2
 1526 2191 1527 2175 1540 2124 c 1
 1682 2140 1782 2175 1855 2249 c 1
 1893 2277 1921 2357 1921 2425 c 0
 1921 2496 1902 2541 1862 2578 c 0
 1837 2603 1807 2615 1772 2615 c 0
 1701 2615 1655 2579 1611 2538 c 128
 1554 2484 1526 2382 1526 2269 c 2
EndSplineSet
EndChar

StartChar: Atilde
Encoding: 195 195 159
Width: 962
Flags: HW
LayerCount: 2
Fore
SplineSet
834 1133 m 1
 876 1033 936 867 936 784 c 0
 936 775 935 768 934 764 c 0
 908 746 847 736 752 733 c 0
 430 722 231 711 156 700 c 1
 178 669 318 396 350 338 c 0
 353 333 373 289 412 207 c 0
 456 112 500 103 573 49 c 1
 558 20 528 11 506 -8 c 0
 481 -29 446 -39 399 -39 c 0
 362 -39 331 -31 306 -14 c 128
 281 3 252 56 221 145 c 0
 174 276 144 358 129 389 c 0
 31 586 -27 698 -45 727 c 0
 -89 796 -127 840 -158 858 c 1
 -109 910 -43 915 59 915 c 0
 93 915 116 907 127 891 c 1
 134 869 140 853 147 842 c 1
 216 852 323 858 395 858 c 2
 487 858 l 2
 544 858 605 862 670 870 c 0
 700 875 715 886 715 903 c 0
 715 912 712 926 707 944 c 0
 692 995 684 1038 684 1073 c 1
 703 1096 727 1111 754 1118 c 0
 787 1124 813 1129 834 1133 c 1
EndSplineSet
EndChar

StartChar: Adieresis
Encoding: 196 196 160
Width: 802
Flags: HW
LayerCount: 2
Fore
SplineSet
748 1927 m 0
 748 2004 689 2083 598 2083 c 0
 528 2083 470 2034 440 1987 c 1
 418 1944 414 1868 414 1798 c 1
 480 1794 498 1790 551 1790 c 0
 665 1790 745 1819 748 1927 c 0
-5 1636 m 0
 -45 1636 -76 1671 -76 1708 c 0
 -76 1746 -46 1778 -8 1778 c 0
 32 1778 66 1745 66 1707 c 0
 66 1668 31 1636 -5 1636 c 0
-114 1707 m 0
 -114 1666 -146 1635 -187 1635 c 0
 -228 1635 -253 1672 -253 1709 c 0
 -253 1741 -230 1777 -185 1777 c 0
 -147 1777 -114 1745 -114 1707 c 0
1047 842 m 1
 1074 823 1083 787 1083 741 c 0
 1083 693 1079 676 1069 631 c 1
 -305 627 l 1
 -305 669 -305 712 -304 754 c 0
 -303 796 -302 818 -299 821 c 0
 -260 832 -190 838 -90 840 c 0
 10 842 84 842 131 842 c 2
 203 842 l 1
 206 881 214 1396 214 1437 c 0
 215 1495 216 1555 217 1618 c 1
 96 1618 l 1
 96 1790 l 1
 217 1790 l 1
 217 1966 250 2089 315 2159 c 0
 389 2237 504 2277 660 2277 c 0
 662 2277 664 2277 666 2277 c 0
 711 2277 763 2239 821 2163 c 0
 889 2074 923 1976 924 1868 c 0
 924 1665 825 1610 612 1610 c 2
 550 1610 l 2
 530 1610 511 1611 492 1612 c 1
 459 1612 l 1
 442 1609 431 1608 424 1608 c 1
 422 842 l 1
 1047 842 l 1
-282 1707 m 0
 -282 1666 -314 1635 -355 1635 c 0
 -396 1635 -421 1672 -421 1709 c 0
 -421 1741 -398 1777 -353 1777 c 0
 -315 1777 -282 1745 -282 1707 c 0
EndSplineSet
EndChar

StartChar: Aring
Encoding: 197 197 161
Width: 1218
Flags: HW
LayerCount: 2
Fore
SplineSet
154 860 m 0
 154 879 156 896 180 883 c 0
 232 853 366 846 455 846 c 0
 524 846 566 849 580 854 c 1
 580 907 620 1018 639 1075 c 1
 667 1192 776 1288 885 1329 c 0
 903 1336 927 1339 958 1339 c 0
 1108 1339 1194 1268 1234 1154 c 128
 1251 1104 1260 1053 1260 1001 c 0
 1260 903 1213 816 1174 776 c 0
 1145 747 1104 728 1049 719 c 1
 972 684 891 680 782 680 c 1
 809 591 833 471 854 320 c 128
 875 169 885 48 885 -45 c 0
 885 -218 848 -433 786 -541 c 0
 747 -609 717 -643 698 -643 c 0
 686 -643 680 -628 680 -598 c 0
 680 -543 716 -407 724 -337 c 128
 729 -295 731 -241 731 -176 c 0
 731 22 693 258 650 424 c 128
 625 522 603 607 586 678 c 1
 457 687 322 695 227 711 c 0
 194 717 154 820 154 860 c 0
1094 1028 m 0
 1094 1115 1072 1174 999 1176 c 0
 960 1176 937 1163 909 1145 c 0
 871 1119 843 1082 825 1034 c 1
 807 971 793 921 782 883 c 1
 851 883 912 886 964 891 c 128
 1060 901 1094 929 1094 1028 c 0
EndSplineSet
EndChar

StartChar: AE
Encoding: 198 198 162
Width: 1155
Flags: HW
LayerCount: 2
Fore
SplineSet
1063 1618 m 1
 1025 1618 993 1616 950 1616 c 1
 950 842 l 1
 944 645 l 1
 962 612 971 582 971 553 c 0
 971 394 888 261 723 154 c 0
 585 64 448 19 311 18 c 0
 281 18 228 39 152 82 c 0
 59 134 13 187 12 242 c 0
 12 379 67 512 176 641 c 0
 291 779 419 848 561 848 c 0
 621 848 687 830 760 793 c 1
 774 1044 l 1
 774 1201 770 1465 766 1628 c 1
 583 1628 505 1622 334 1616 c 0
 241 1616 178 1617 178 1696 c 0
 178 1705 181 1724 186 1751 c 0
 220 1894 289 2023 393 2138 c 0
 512 2269 640 2335 778 2335 c 0
 882 2335 948 2287 948 2189 c 1
 954 1806 l 1
 1065 1806 l 1
 1063 1618 l 1
299 479 m 1
 428 328 l 2
 506 238 563 193 600 193 c 0
 613 193 638 227 676 294 c 128
 714 361 733 411 733 444 c 0
 733 465 700 510 635 580 c 0
 563 654 508 692 469 692 c 2
 467 692 l 2
 448 692 417 659 375 594 c 0
 341 542 316 504 299 479 c 1
389 1823 m 1
 418 1814 721 1800 762 1800 c 1
 760 1923 758 2130 729 2167 c 1
 666 2159 607 2124 551 2062 c 0
 510 2017 456 1937 389 1823 c 1
1242 1724 m 0
 1242 1682 1210 1651 1169 1651 c 0
 1128 1651 1103 1689 1103 1725 c 0
 1103 1758 1126 1793 1171 1793 c 0
 1209 1793 1242 1762 1242 1724 c 0
1409 1724 m 0
 1409 1683 1377 1651 1337 1651 c 0
 1296 1651 1271 1689 1271 1725 c 0
 1271 1757 1294 1793 1339 1793 c 0
 1377 1793 1409 1761 1409 1724 c 0
1518 1653 m 0
 1477 1653 1448 1686 1448 1724 c 0
 1448 1762 1478 1794 1516 1794 c 0
 1556 1794 1590 1761 1590 1724 c 0
 1590 1685 1554 1653 1518 1653 c 0
EndSplineSet
EndChar

